<svg width="334" height="228" viewBox="0 0 334 228" fill="none" xmlns="http://www.w3.org/2000/svg">
<g clip-path="url(#clip0_37_391)">
<path d="M48.642 38.3467C48.642 38.3467 50.8223 41.6755 53.8031 40.0126C56.7838 38.3497 53.9245 33.7554 53.9245 33.7554C53.9245 33.7554 48.2153 33.0219 48.642 38.3467Z" fill="#2115FC"/>
<path opacity="0.1" d="M53.803 40.0126C53.4515 40.2261 53.0571 40.3699 52.6441 40.4352C52.2312 40.5006 51.8084 40.486 51.4016 40.3925C50.3084 40.1324 49.4674 39.3434 49.0158 38.8261C48.881 38.6745 48.7562 38.5154 48.642 38.3497C48.4894 36.45 49.1186 35.319 49.9907 34.6527C51.1898 33.7379 52.8499 33.6999 53.5663 33.7291C53.7875 33.7291 53.9152 33.7584 53.9152 33.7584L53.9743 33.8519C54.0584 34.0009 54.2422 34.3312 54.4384 34.7725C55.105 36.2191 55.8992 38.8407 53.803 40.0126Z" fill="black"/>
<path opacity="0.1" d="M328.341 182.171C320.069 198.19 303.262 208.901 285.851 215.965C271.91 221.583 257.175 225.273 242.105 226.919C239.219 227.24 236.323 227.489 233.418 227.667C225.995 228.121 218.548 228.113 211.126 227.643C206.662 227.365 202.213 226.92 197.78 226.308C182.376 224.199 167.358 220.096 153.156 214.115C149.057 212.383 145.041 210.492 141.108 208.442C134.539 205.026 128.245 201.164 122.277 196.886C120.956 195.94 119.652 194.972 118.365 193.984L117.835 193.578C116.823 192.795 115.82 191.994 114.802 191.217C113.109 189.886 111.312 188.677 109.426 187.599C109.298 187.528 109.17 187.458 109.039 187.391C108.691 187.201 108.335 187.023 107.974 186.853C107.23 186.501 106.467 186.185 105.688 185.906C102.09 184.62 98.2376 184.153 94.3318 184.232C93.684 184.232 93.0361 184.273 92.3851 184.314C91.4757 184.372 90.5631 184.46 89.6536 184.571L89.3172 184.615C86.419 184.999 83.5536 185.577 80.7425 186.342C76.4006 187.511 72.1366 188.972 67.8445 190.29C66.0225 190.854 64.1973 191.392 62.3565 191.874L61.9516 191.979C59.3335 192.67 56.6685 193.194 53.9749 193.546C47.8537 194.28 41.6367 193.81 35.7197 192.167L35.5141 192.111L35.1341 192.006L34.614 191.854C33.7419 191.597 32.877 191.315 32.0194 191.009L31.4993 190.822C30.6687 190.522 29.8558 190.2 29.0605 189.855L28.5403 189.633C27.7098 189.27 26.8968 188.887 26.1015 188.484C25.815 188.344 25.5316 188.192 25.2512 188.049C24.404 187.604 23.5735 187.139 22.7595 186.652C21.8957 186.135 21.0506 185.597 20.2241 185.036C19.8421 184.778 19.4642 184.514 19.0904 184.243C16.9358 182.697 14.9182 180.99 13.0572 179.138C12.9545 179.041 12.8579 178.942 12.7614 178.846C12.2661 178.343 11.7802 177.831 11.3099 177.308C11.1355 177.115 10.9611 176.923 10.7898 176.724C10.2312 176.085 9.69235 175.431 9.17323 174.763C9.09537 174.666 9.02062 174.567 8.94586 174.47C6.81772 171.709 5.05341 168.716 3.69139 165.557C3.64778 165.46 3.60729 165.361 3.56992 165.264C3.15463 164.261 2.77567 163.241 2.43306 162.205C2.2929 161.772 2.15896 161.328 2.04061 160.895C2.00012 160.767 1.96274 160.635 1.92848 160.507C0.209172 154.156 0.0129471 147.554 0.0129471 140.99C0.0129471 140.224 0.0129471 139.459 0.0129471 138.696C0.062782 128.078 0.237204 117.279 1.90667 106.808C1.90667 106.734 1.92848 106.661 1.94094 106.591C2.4997 103.066 3.25974 99.5715 4.21777 96.1227C5.22045 92.504 6.50188 88.9583 8.05195 85.5138C11.8924 77.0384 17.477 69.3258 23.6783 62.1772C31.1536 53.5761 39.7189 45.6385 49.2592 39.0891C50.6297 38.148 52.0188 37.2342 53.4267 36.3477L54.0776 35.9473C54.305 35.8041 54.5324 35.6551 54.7598 35.5294C55.227 35.2371 55.6942 34.9624 56.1676 34.6848L56.6971 34.375L57.7063 33.7905L58.0177 33.6239L58.5566 33.3316L59.0892 33.0394C59.7121 32.6945 60.3423 32.3574 60.9798 32.0282C63.702 30.6039 66.4886 29.3024 69.3396 28.1236C70.1806 27.7749 71.0267 27.4388 71.8781 27.1154C75.7432 25.6383 79.7138 24.4166 83.7606 23.4592C85.2556 23.1046 86.76 22.7929 88.2738 22.524C90.0595 22.2006 91.8546 21.9327 93.659 21.7203C96.5305 21.3813 99.4184 21.1794 102.312 21.1154C122.657 20.6507 143.207 26.864 159.152 38.7734C165.505 43.5197 171.215 49.1397 178.35 52.7783C184.58 55.9463 191.871 57.2586 198.543 54.7656C204.056 52.7052 207.644 51.6823 213.836 51.9951C226.649 52.6723 239.281 55.1509 251.309 59.3482C251.795 59.5148 252.281 59.6872 252.763 59.8596C284.131 71.1261 311.101 93.4982 325.111 122.247C325.481 123.007 325.841 123.773 326.192 124.545C334.549 142.854 337.564 164.32 328.341 182.171Z" fill="#6C63FF"/>
<path opacity="0.1" d="M62.3468 81.0686V191.88L61.9418 191.985C59.3238 192.676 56.6588 193.2 53.9651 193.552C47.844 194.286 41.627 193.816 35.71 192.172L35.5044 192.117L35.1244 192.012L34.6043 191.86C33.7322 191.602 32.8673 191.321 32.0097 191.015L31.4896 190.828C30.659 190.528 29.8461 190.206 29.0508 189.861L28.5306 189.639C27.7 189.276 26.8871 188.893 26.0918 188.49C25.8053 188.35 25.5218 188.198 25.2415 188.055C24.3943 187.61 23.5637 187.145 22.7498 186.658C21.886 186.141 21.0409 185.602 20.2144 185.041C19.8324 184.784 19.4544 184.52 19.0807 184.249C16.9261 182.703 14.9084 180.996 13.0475 179.144C12.9448 179.047 12.8482 178.948 12.7516 178.851C12.2564 178.349 11.7705 177.837 11.3002 177.314C11.1258 177.121 10.9514 176.928 10.78 176.73C10.2215 176.091 9.68264 175.437 9.16353 174.769C9.08566 174.672 9.01091 174.573 8.93615 174.476C6.80801 171.715 5.0437 168.722 3.68168 165.563C3.63808 165.466 3.59759 165.367 3.56021 165.27C3.14492 164.267 2.76597 163.247 2.42335 162.21C2.28319 161.778 2.14926 161.334 2.0309 160.901C1.99041 160.772 1.95303 160.641 1.91877 160.512C0.199467 154.162 0.00324249 147.56 0.00324249 140.996C0.00324249 140.23 0.00324249 139.465 0.00324249 138.701C0.0530774 128.084 0.227499 117.285 1.89697 106.813C1.89697 106.74 1.91877 106.667 1.93123 106.597C2.48999 103.072 3.25003 99.5773 4.20806 96.1285H36.0152V81.0686H42.3567V68.9722H56.0053V81.0686H62.3468Z" fill="#6C63FF"/>
<path opacity="0.1" d="M328.341 182.171C320.068 198.19 303.261 208.901 285.85 215.965C271.91 221.583 257.174 225.273 242.104 226.919C239.218 227.24 236.322 227.489 233.418 227.667C225.995 228.121 218.548 228.113 211.126 227.643C206.661 227.365 202.213 226.92 197.779 226.308C182.375 224.199 167.357 220.096 153.155 214.115C149.056 212.383 145.04 210.492 141.108 208.442C134.539 205.026 128.245 201.164 122.276 196.886C120.956 195.939 119.652 194.972 118.364 193.984L117.835 193.578C116.822 192.795 115.82 191.994 114.801 191.217C113.108 189.886 111.311 188.677 109.425 187.599C109.297 187.528 109.17 187.458 109.039 187.391C108.69 187.201 108.335 187.023 107.974 186.853C107.229 186.501 106.466 186.185 105.687 185.906V140.575H163.493V150.666H188.862V76.8484H218.722V106.366H233.492V88.8893H245.696V70.22H251.302V59.3481C251.788 59.5147 252.274 59.6872 252.757 59.8596V70.22H258.214V88.901H270.407V106.378H288.389V172.962H316.969V124.539H326.179C334.548 142.854 337.563 164.32 328.341 182.171Z" fill="#6C63FF"/>
<path opacity="0.1" d="M211.132 87.957H197.786V100.48H211.132V87.957Z" fill="#6C63FF"/>
<path opacity="0.1" d="M211.132 113.915H197.786V126.438H211.132V113.915Z" fill="#6C63FF"/>
<path opacity="0.1" d="M211.132 139.876H197.786V152.4H211.132V139.876Z" fill="#6C63FF"/>
<path opacity="0.1" d="M211.132 165.837H197.786V178.361H211.132V165.837Z" fill="#6C63FF"/>
<path opacity="0.1" d="M211.132 191.795H197.786V204.319H211.132V191.795Z" fill="#6C63FF"/>
<path opacity="0.1" d="M211.132 217.75V227.64C206.668 227.362 202.219 226.917 197.786 226.305V217.75H211.132Z" fill="#6C63FF"/>
<path opacity="0.1" d="M156.806 156.76H110.089V162.433H156.806V156.76Z" fill="#6C63FF"/>
<path opacity="0.1" d="M156.806 173.988H110.089V179.661H156.806V173.988Z" fill="#6C63FF"/>
<path opacity="0.1" d="M156.806 191.217V196.887H122.282C120.962 195.94 119.658 194.972 118.37 193.984L117.841 193.578C116.829 192.795 115.826 191.994 114.807 191.217H156.806Z" fill="#6C63FF"/>
<path opacity="0.1" d="M156.806 208.442V214.115H153.161C149.063 212.383 145.047 210.492 141.114 208.442H156.806Z" fill="#6C63FF"/>
<path opacity="0.1" d="M242.111 121.867H233.424V130.018H242.111V121.867Z" fill="#6C63FF"/>
<path opacity="0.1" d="M53.9837 83.8801H45.2968V92.0311H53.9837V83.8801Z" fill="#6C63FF"/>
<path opacity="0.1" d="M53.9837 102.818H45.2968V110.969H53.9837V102.818Z" fill="#6C63FF"/>
<path opacity="0.1" d="M53.9837 121.753H45.2968V129.904H53.9837V121.753Z" fill="#6C63FF"/>
<path opacity="0.1" d="M53.9837 140.692H45.2968V148.843H53.9837V140.692Z" fill="#6C63FF"/>
<path opacity="0.1" d="M53.9837 159.63H45.2968V167.781H53.9837V159.63Z" fill="#6C63FF"/>
<path opacity="0.1" d="M53.9837 178.565H45.2968V186.716H53.9837V178.565Z" fill="#6C63FF"/>
<path opacity="0.1" d="M275.279 121.867H266.592V130.018H275.279V121.867Z" fill="#6C63FF"/>
<path opacity="0.1" d="M242.111 141.975H233.424V150.126H242.111V141.975Z" fill="#6C63FF"/>
<path opacity="0.1" d="M275.279 141.975H266.592V150.126H275.279V141.975Z" fill="#6C63FF"/>
<path opacity="0.1" d="M242.111 162.085H233.424V170.236H242.111V162.085Z" fill="#6C63FF"/>
<path opacity="0.1" d="M275.279 162.085H266.592V170.236H275.279V162.085Z" fill="#6C63FF"/>
<path opacity="0.1" d="M242.111 182.195H233.424V190.346H242.111V182.195Z" fill="#6C63FF"/>
<path opacity="0.1" d="M275.279 182.195H266.592V190.346H275.279V182.195Z" fill="#6C63FF"/>
<path opacity="0.1" d="M242.111 202.302H233.424V210.453H242.111V202.302Z" fill="#6C63FF"/>
<path opacity="0.1" d="M275.279 202.302H266.592V210.453H275.279V202.302Z" fill="#6C63FF"/>
<path opacity="0.1" d="M233.424 227.667V222.409H242.111V226.919L233.424 227.667Z" fill="#6C63FF"/>
<path opacity="0.1" d="M1.89996 106.6V111.276H35.1243V106.6H1.89996ZM4.85891 110.984H2.42011V106.892H4.85891V110.984ZM7.81786 110.984H5.37906V106.892H7.81786V110.984ZM10.7768 110.984H8.33801V106.892H10.7768V110.984ZM13.7358 110.984H11.297V106.892H13.7358V110.984ZM16.6947 110.984H14.2559V106.892H16.6947V110.984ZM19.6537 110.984H17.2149V106.892H19.6537V110.984ZM22.6126 110.984H20.1738V106.892H22.6126V110.984ZM25.5716 110.984H23.1328V106.892H25.5716V110.984ZM28.5305 110.984H26.0917V106.892H28.5305V110.984ZM31.4895 110.984H29.0507V106.892H31.4895V110.984ZM34.6041 110.984H32.0096V106.892H34.6041V110.984Z" fill="#6C63FF"/>
<path opacity="0.1" d="M1.89996 120.178V124.84H35.1243V120.178H1.89996ZM4.85891 124.547H2.42011V120.47H4.85891V124.547ZM7.81786 124.547H5.37906V120.47H7.81786V124.547ZM10.7768 124.547H8.33801V120.47H10.7768V124.547ZM13.7358 124.547H11.297V120.47H13.7358V124.547ZM16.6947 124.547H14.2559V120.47H16.6947V124.547ZM19.6537 124.547H17.2149V120.47H19.6537V124.547ZM22.6126 124.547H20.1738V120.47H22.6126V124.547ZM25.5716 124.547H23.1328V120.47H25.5716V124.547ZM28.5305 124.547H26.0917V120.47H28.5305V124.547ZM31.4895 124.547H29.0507V120.47H31.4895V124.547ZM34.6041 124.547H32.0096V120.47H34.6041V124.547Z" fill="#6C63FF"/>
<path opacity="0.1" d="M1.89996 133.753V138.415H35.1243V133.753H1.89996ZM4.85891 138.123H2.42011V134.046H4.85891V138.123ZM7.81786 138.123H5.37906V134.046H7.81786V138.123ZM10.7768 138.123H8.33801V134.046H10.7768V138.123ZM13.7358 138.123H11.297V134.046H13.7358V138.123ZM16.6947 138.123H14.2559V134.046H16.6947V138.123ZM19.6537 138.123H17.2149V134.046H19.6537V138.123ZM22.6126 138.123H20.1738V134.046H22.6126V138.123ZM25.5716 138.123H23.1328V134.046H25.5716V138.123ZM28.5305 138.123H26.0917V134.046H28.5305V138.123ZM31.4895 138.123H29.0507V134.046H31.4895V138.123ZM34.6041 138.123H32.0096V134.046H34.6041V138.123Z" fill="#6C63FF"/>
<path opacity="0.1" d="M1.89996 147.317V151.993H35.1243V147.317H1.89996ZM4.85891 151.701H2.42011V147.609H4.85891V151.701ZM7.81786 151.701H5.37906V147.609H7.81786V151.701ZM10.7768 151.701H8.33801V147.609H10.7768V151.701ZM13.7358 151.701H11.297V147.609H13.7358V151.701ZM16.6947 151.701H14.2559V147.609H16.6947V151.701ZM19.6537 151.701H17.2149V147.609H19.6537V151.701ZM22.6126 151.701H20.1738V147.609H22.6126V151.701ZM25.5716 151.701H23.1328V147.609H25.5716V151.701ZM28.5305 151.701H26.0917V147.609H28.5305V151.701ZM31.4895 151.701H29.0507V147.609H31.4895V151.701ZM34.6041 151.701H32.0096V147.609H34.6041V151.701Z" fill="#6C63FF"/>
<path opacity="0.1" d="M2.02766 160.904C2.14601 161.342 2.27995 161.781 2.42011 162.213V161.196H4.85891V165.288H3.55697C3.59434 165.384 3.63483 165.484 3.67844 165.58H35.1367V160.904H2.02766ZM7.81786 165.288H5.37906V161.196H7.81786V165.288ZM10.7768 165.288H8.33801V161.196H10.7768V165.288ZM13.7358 165.288H11.297V161.196H13.7358V165.288ZM16.6947 165.288H14.2559V161.196H16.6947V165.288ZM19.6537 165.288H17.2149V161.196H19.6537V165.288ZM22.6126 165.288H20.1738V161.196H22.6126V165.288ZM25.5716 165.288H23.1328V161.196H25.5716V165.288ZM28.5305 165.288H26.0917V161.196H28.5305V165.288ZM31.4895 165.288H29.0507V161.196H31.4895V165.288ZM34.6041 165.288H32.0096V161.196H34.6041V165.288Z" fill="#6C63FF"/>
<path opacity="0.1" d="M8.93291 174.479C9.00767 174.576 9.08242 174.675 9.16029 174.772H10.7768V176.733C10.9481 176.928 11.1225 177.121 11.297 177.317V174.774H13.7358V178.866H12.7484C12.845 178.962 12.9415 179.062 13.0443 179.158H35.1243V174.482L8.93291 174.479ZM16.6947 178.863H14.2559V174.772H16.6947V178.863ZM19.6537 178.863H17.2149V174.772H19.6537V178.863ZM22.6126 178.863H20.1738V174.772H22.6126V178.863ZM25.5716 178.863H23.1328V174.772H25.5716V178.863ZM28.5305 178.863H26.0917V174.772H28.5305V178.863ZM31.4895 178.863H29.0507V174.772H31.4895V178.863ZM34.6041 178.863H32.0096V174.772H34.6041V178.863Z" fill="#6C63FF"/>
<path opacity="0.1" d="M25.2414 188.055C25.5217 188.204 25.8052 188.347 26.0917 188.49V188.347H28.5305V189.639L29.0507 189.861V188.347H31.4894V190.828L32.0096 191.015V188.347H34.6041V191.854L35.1243 192.006V188.055H25.2414Z" fill="#6C63FF"/>
<path opacity="0.1" d="M127.69 66.1197C127.69 66.1197 120.264 65.6988 121.149 70.5795C121.103 70.8276 121.143 71.0827 121.261 71.3085C121.38 71.5342 121.572 71.7189 121.809 71.8362C121.809 71.8362 121.809 71.4738 122.569 71.5966C122.836 71.6376 123.106 71.6494 123.376 71.6316C123.74 71.6091 124.087 71.4757 124.363 71.2517C124.363 71.2517 126.45 70.4422 127.263 67.242C127.263 67.242 127.861 66.5435 127.839 66.3652L126.593 66.8679C126.593 66.8679 127.023 67.7154 126.687 68.4197C126.687 68.4197 126.646 66.9 126.403 66.9351C126.357 66.9351 125.752 67.2273 125.752 67.2273C125.752 67.2273 126.49 68.7062 125.933 69.7787C125.933 69.7787 126.145 67.9609 125.525 67.3355L124.622 67.8235C124.622 67.8235 125.484 69.3491 124.899 70.5941C124.899 70.5941 125.051 68.6857 124.438 67.9434L123.637 68.5279C123.637 68.5279 124.447 70.0301 123.949 71.0647C123.949 71.0647 123.883 68.8406 123.46 68.6711C123.156 68.9115 122.885 69.1864 122.653 69.4894C122.653 69.4894 123.208 70.5795 122.865 71.1553C122.865 71.1553 122.653 69.6764 122.479 69.6677C122.479 69.6677 121.784 70.6497 121.713 71.3218C121.745 70.6982 121.951 70.0935 122.311 69.5683C121.909 69.6395 121.539 69.8194 121.245 70.0856C121.245 70.0856 121.354 69.393 122.491 69.3316C122.491 69.3316 123.067 68.5893 123.223 68.5425C123.223 68.5425 122.099 68.4548 121.417 68.7383C121.417 68.7383 122.018 68.0837 123.429 68.3818L124.217 67.7768C124.217 67.7768 122.737 67.5868 122.111 67.7972C122.111 67.7972 122.831 67.2127 124.429 67.6394L125.288 67.1572C124.628 67.0215 123.951 66.9665 123.276 66.9935C123.276 66.9935 124.067 66.5932 125.54 67.0286L126.163 66.7685C126.163 66.7685 125.229 66.599 124.97 66.5727C124.712 66.5464 124.684 66.4763 124.684 66.4763C125.269 66.3847 125.87 66.4474 126.419 66.6574C126.419 66.6574 127.711 66.1957 127.69 66.1197Z" fill="#6C63FF"/>
<path opacity="0.1" d="M108.198 89.8714C108.198 89.8714 105.659 96.4297 110.898 97.0288C111.138 97.1395 111.409 97.1763 111.673 97.1337C111.936 97.0912 112.179 96.9716 112.365 96.7921C112.365 96.7921 112.001 96.6781 112.337 96.038C112.455 95.8107 112.545 95.5714 112.605 95.3249C112.684 94.9901 112.645 94.6403 112.493 94.3283C112.493 94.3283 112.259 92.2212 109.219 90.5816C109.219 90.5816 108.678 89.8422 108.488 89.813L108.643 91.0843C108.643 91.0843 109.631 90.9382 110.257 91.4409C110.257 91.4409 108.699 91.0463 108.659 91.2743C108.659 91.3181 108.774 91.9435 108.774 91.9435C108.774 91.9435 110.493 91.698 111.431 92.5047C111.431 92.5047 109.631 91.7974 108.818 92.1803L109.061 93.1096C109.061 93.1096 110.864 92.7706 111.97 93.6474C111.97 93.6474 110.064 92.9723 109.129 93.3113L109.5 94.1881C109.5 94.1881 111.266 93.8958 112.182 94.6235C112.182 94.6235 109.889 94.039 109.599 94.3839C109.759 94.7242 109.962 95.0451 110.204 95.3395C110.204 95.3395 111.478 95.1525 111.967 95.6318C111.967 95.6318 110.394 95.4009 110.338 95.5529C110.338 95.5529 111.144 96.4589 111.811 96.7219C111.185 96.5141 110.628 96.1564 110.194 95.6844C110.153 96.0665 110.232 96.4517 110.422 96.7921C110.422 96.7921 109.743 96.4998 110.001 95.4623C110.001 95.4623 109.403 94.7346 109.403 94.5855C109.403 94.5855 108.992 95.5704 109.092 96.266C109.092 96.266 108.593 95.5383 109.297 94.3546L108.905 93.4779C108.905 93.4779 108.282 94.755 108.326 95.3805C108.326 95.3805 107.939 94.5651 108.824 93.247L108.578 92.3381C108.252 92.8901 108.004 93.4796 107.84 94.0916C107.84 94.0916 107.653 93.2645 108.516 92.0634L108.425 91.4379C108.425 91.4379 107.989 92.2212 107.886 92.4579C107.784 92.6946 107.706 92.6859 107.706 92.6859C107.777 92.1332 108.011 91.6101 108.382 91.1749C108.382 91.1749 108.282 89.8714 108.198 89.8714Z" fill="#6C63FF"/>
<path opacity="0.1" d="M157.419 84.3419C157.419 84.3419 154.884 90.9118 160.12 91.4963C160.36 91.6069 160.632 91.6433 160.896 91.6003C161.16 91.5572 161.403 91.4369 161.59 91.2567C161.59 91.2567 161.222 91.1427 161.562 90.5056C161.681 90.2778 161.77 90.0374 161.827 89.7895C161.906 89.455 161.868 89.1053 161.717 88.7929C161.717 88.7929 161.484 86.6858 158.444 85.0462C158.444 85.0462 157.899 84.3097 157.709 84.2805L157.868 85.5489C157.868 85.5489 158.855 85.4057 159.481 85.9084C159.481 85.9084 157.924 85.5138 157.88 85.7389C157.88 85.7856 157.995 86.4081 157.995 86.4081C157.995 86.4081 159.715 86.1656 160.655 86.9693C160.655 86.9693 158.855 86.2649 158.039 86.6449L158.285 87.5772C158.285 87.5772 160.089 87.2352 161.194 88.1149C161.194 88.1149 159.285 87.4369 158.351 87.7759L158.721 88.6527C158.721 88.6527 160.487 88.3604 161.403 89.0881C161.403 89.0881 159.114 88.5036 158.821 88.8514C158.985 89.193 159.195 89.514 159.444 89.8071C159.444 89.8071 160.715 89.6171 161.207 90.0993C161.207 90.0993 159.634 89.8684 159.578 90.0233C159.578 90.0233 160.381 90.9264 161.048 91.1924C160.422 90.9854 159.866 90.6276 159.434 90.1549C159.393 90.5367 159.471 90.9215 159.659 91.2625C159.659 91.2625 158.983 90.9702 159.241 89.9357C159.241 89.9357 158.643 89.205 158.64 89.0589C158.64 89.0589 158.232 90.0467 158.329 90.7394C158.329 90.7394 157.83 90.0146 158.534 88.828L158.142 87.9512C158.142 87.9512 157.519 89.2284 157.562 89.8509C157.562 89.8509 157.176 89.0384 158.061 87.7204L157.812 86.8085C157.486 87.3606 157.238 87.95 157.073 88.5621C157.073 88.5621 156.89 87.735 157.752 86.5338L157.662 85.9084C157.662 85.9084 157.226 86.6916 157.12 86.9283C157.014 87.1651 156.94 87.1563 156.94 87.1563C157.013 86.6036 157.248 86.0807 157.619 85.6454C157.619 85.6454 157.506 84.3448 157.419 84.3419Z" fill="#6C63FF"/>
<path opacity="0.1" d="M87.0586 137.965C87.0586 137.965 84.5201 144.526 89.759 145.125C89.9991 145.236 90.2704 145.273 90.5341 145.229C90.7977 145.186 91.0399 145.066 91.226 144.886C91.226 144.886 90.8616 144.772 91.198 144.134C91.3177 143.907 91.4076 143.666 91.4658 143.418C91.5462 143.084 91.5068 142.733 91.3537 142.422C91.3537 142.422 91.1201 140.315 88.0802 138.678C88.0802 138.678 87.5382 137.939 87.3482 137.909L87.5039 139.178C87.5039 139.178 88.4944 139.035 89.1174 139.537C89.1174 139.537 87.56 139.143 87.5195 139.368C87.5195 139.415 87.6348 140.037 87.6348 140.037C87.6348 140.037 89.3541 139.794 90.2916 140.598C90.2916 140.598 88.4913 139.894 87.6784 140.274L87.9213 141.206C87.9213 141.206 89.7247 140.864 90.8304 141.744C90.8304 141.744 88.9242 141.066 87.9898 141.405L88.3605 142.282C88.3605 142.282 90.1265 141.989 91.0422 142.717C91.0422 142.717 88.7529 142.133 88.4602 142.48C88.6197 142.821 88.8226 143.141 89.0644 143.436C89.0644 143.436 90.3383 143.246 90.8304 143.728C90.8304 143.728 89.2544 143.497 89.1983 143.652C89.1983 143.652 90.005 144.555 90.6716 144.821C90.0455 144.615 89.4881 144.258 89.0551 143.787C89.0139 144.168 89.0929 144.552 89.2824 144.891C89.2824 144.891 88.6034 144.599 88.8619 143.565C88.8619 143.565 88.267 142.834 88.2639 142.688C88.2639 142.688 87.8528 143.676 87.9525 144.368C87.9525 144.368 87.4541 143.643 88.158 142.457L87.7656 141.58C87.7656 141.58 87.1427 142.857 87.1894 143.48C87.1894 143.48 86.8031 142.667 87.6877 141.349L87.4385 140.44C87.112 140.992 86.8638 141.582 86.7004 142.194C86.7004 142.194 86.5135 141.364 87.3762 140.166L87.2859 139.537C87.2859 139.537 86.8499 140.321 86.7471 140.557C86.6443 140.794 86.5664 140.785 86.5664 140.785C86.6384 140.232 86.8736 139.709 87.2454 139.274C87.2454 139.274 87.1426 137.965 87.0586 137.965Z" fill="#6C63FF"/>
<path opacity="0.1" d="M76.9856 76.1266C76.9856 76.1266 74.4503 82.6848 79.6861 83.2839C79.9265 83.3944 80.198 83.431 80.4619 83.3885C80.7258 83.3461 80.9688 83.2266 81.1562 83.0472C81.1562 83.0472 80.7887 82.9332 81.1282 82.2932C81.2456 82.0649 81.3345 81.8246 81.3929 81.5771C81.4726 81.2436 81.4344 80.8948 81.2839 80.5835C81.2839 80.5835 81.0503 78.4763 78.0073 76.8367C78.0073 76.8367 77.4653 76.0973 77.2753 76.0681L77.4342 77.3394C77.4342 77.3394 78.4215 77.1933 79.0444 77.696C79.0444 77.696 77.4871 77.3014 77.4466 77.5294C77.4466 77.5732 77.5619 78.1987 77.5619 78.1987C77.5619 78.1987 79.2812 77.9532 80.2218 78.7598C80.2218 78.7598 78.4215 78.0525 77.6055 78.4354L77.8484 79.3648C77.8484 79.3648 79.6518 79.0228 80.7606 79.9025C80.7606 79.9025 78.8513 79.2245 77.9169 79.5664L78.2876 80.4432C78.2876 80.4432 80.0536 80.1509 80.9693 80.8816C80.9693 80.8816 78.68 80.297 78.3872 80.6419C78.5468 80.9822 78.7497 81.3031 78.9915 81.5976C78.9915 81.5976 80.2654 81.4105 80.7575 81.8898C80.7575 81.8898 79.1846 81.659 79.1285 81.8109C79.1285 81.8109 79.9321 82.7169 80.5987 82.98C79.9731 82.7714 79.4161 82.4139 78.9821 81.9425C78.9409 82.3246 79.0199 82.7097 79.2095 83.0501C79.2095 83.0501 78.5305 82.7578 78.7921 81.7203C78.7921 81.7203 78.1941 80.9926 78.191 80.8436C78.191 80.8436 77.783 81.8285 77.8796 82.524C77.8796 82.524 77.3781 81.7963 78.0851 80.6127L77.6896 79.7359C77.6896 79.7359 77.0666 81.0131 77.1133 81.6385C77.1133 81.6385 76.7271 80.8231 77.6117 79.505L77.3625 78.5961C77.0366 79.1482 76.7884 79.7376 76.6243 80.3497C76.6243 80.3497 76.4406 79.5226 77.3002 78.3214L77.213 77.696C77.213 77.696 76.7738 78.4792 76.6711 78.713C76.5683 78.9468 76.4904 78.9439 76.4904 78.9439C76.5624 78.3908 76.7976 77.8675 77.1694 77.433C77.1694 77.433 77.0729 76.1266 76.9856 76.1266Z" fill="#6C63FF"/>
<path opacity="0.1" d="M95.8108 111.84C95.8108 111.84 97.7699 118.562 102.417 116.224C102.681 116.185 102.925 116.068 103.114 115.891C103.303 115.713 103.428 115.484 103.47 115.236C103.47 115.236 103.102 115.342 102.987 114.637C102.943 114.387 102.868 114.143 102.763 113.91C102.625 113.592 102.378 113.327 102.062 113.155C102.062 113.155 100.576 111.56 97.0785 111.864C97.0785 111.864 96.1814 111.557 96.007 111.636L96.9165 112.586C96.9165 112.586 97.636 111.934 98.4552 112.001C98.4552 112.001 96.9321 112.527 97.0442 112.729C97.0691 112.77 97.5488 113.214 97.5488 113.214C97.5488 113.214 98.7947 112.083 100.065 112.232C100.065 112.232 98.1624 112.629 97.7325 113.383L98.5019 114.012C98.5019 114.012 99.7664 112.758 101.212 112.875C101.212 112.875 99.2338 113.354 98.6794 114.137L99.5266 114.661C99.5266 114.661 100.772 113.459 101.987 113.568C101.987 113.568 99.7633 114.336 99.7291 114.769C100.069 114.961 100.433 115.113 100.813 115.222C100.813 115.222 101.747 114.38 102.429 114.5C102.429 114.5 101 115.163 101.05 115.318C101.05 115.318 102.264 115.61 102.965 115.47C102.327 115.64 101.653 115.65 101.009 115.499C101.21 115.834 101.511 116.105 101.875 116.28C101.875 116.28 101.14 116.405 100.716 115.42C100.716 115.42 99.782 115.149 99.6823 115.026C99.6823 115.026 99.9564 116.055 100.461 116.569C100.461 116.569 99.6076 116.245 99.455 114.894L98.5922 114.389C98.5922 114.389 98.8756 115.765 99.2868 116.253C99.2868 116.253 98.4707 115.797 98.3835 114.243L97.6235 113.635C97.6975 114.265 97.8588 114.884 98.1032 115.476C98.1032 115.476 97.446 114.891 97.4117 113.454L96.9539 112.989C96.9539 112.989 97.0785 113.866 97.1376 114.114C97.1968 114.363 97.1376 114.406 97.1376 114.406C96.8571 113.915 96.7277 113.361 96.7639 112.805C96.7639 112.805 95.8824 111.797 95.8108 111.84Z" fill="#6C63FF"/>
<path opacity="0.1" d="M148.96 117.843C148.96 117.843 150.919 124.565 155.563 122.227C155.828 122.189 156.073 122.072 156.263 121.895C156.452 121.717 156.577 121.488 156.619 121.239C156.619 121.239 156.248 121.344 156.133 120.655C156.091 120.404 156.017 120.16 155.912 119.927C155.771 119.61 155.524 119.345 155.208 119.173C155.208 119.173 153.722 117.577 150.224 117.884C150.224 117.884 149.327 117.574 149.156 117.653L150.062 118.603C150.062 118.603 150.782 117.951 151.601 118.019C151.601 118.019 150.078 118.545 150.193 118.746C150.215 118.787 150.698 119.231 150.698 119.231C150.698 119.231 151.944 118.1 153.214 118.249C153.214 118.249 151.308 118.647 150.878 119.401L151.651 120.029C151.651 120.029 152.897 118.776 154.358 118.892C154.358 118.892 152.383 119.372 151.828 120.155L152.676 120.678C152.676 120.678 153.921 119.477 155.133 119.585C155.133 119.585 152.909 120.354 152.878 120.786C153.217 120.978 153.58 121.13 153.959 121.239C153.959 121.239 154.893 120.398 155.575 120.517C155.575 120.517 154.149 121.181 154.196 121.336C154.196 121.336 155.41 121.628 156.114 121.488C155.475 121.657 154.8 121.667 154.155 121.517C154.356 121.851 154.657 122.122 155.021 122.297C155.021 122.297 154.286 122.423 153.862 121.438C153.862 121.438 152.928 121.166 152.831 121.043C152.831 121.043 153.102 122.072 153.607 122.586C153.607 122.586 152.753 122.262 152.601 120.912L151.738 120.4C151.738 120.4 152.022 121.777 152.436 122.265C152.436 122.265 151.62 121.809 151.533 120.254L150.769 119.646C150.843 120.277 151.006 120.896 151.252 121.488C151.252 121.488 150.592 120.903 150.558 119.465L150.1 119.001C150.1 119.001 150.224 119.877 150.284 120.126C150.343 120.374 150.284 120.418 150.284 120.418C150.003 119.927 149.874 119.372 149.91 118.816C149.91 118.816 149.031 117.799 148.96 117.843Z" fill="#6C63FF"/>
<path d="M129.02 185.348C129.02 185.348 145.178 180.243 141.833 162.152L121.308 157.152L116.542 171.995L129.02 185.348Z" fill="#CED7E7"/>
<path opacity="0.1" d="M116.542 171.995L129.016 185.348C129.016 185.348 145.175 180.242 141.83 162.152L116.542 171.995Z" fill="black"/>
<path d="M130.608 161.302L141.821 162.152L162.689 162.313L146.247 181.309C146.247 181.309 141.03 181.575 139.955 182.265C138.881 182.955 123.793 182.586 123.793 182.586L121.357 172.849L130.608 161.302Z" fill="#FFA2A2"/>
<path opacity="0.05" d="M130.608 161.302L141.821 162.152L162.689 162.313L146.247 181.309C146.247 181.309 141.03 181.575 139.955 182.265C138.881 182.955 123.793 182.586 123.793 182.586L121.357 172.849L130.608 161.302Z" fill="black"/>
<path d="M119.267 110.227L121.874 114.377L122.441 121.613C122.441 121.613 124.257 127.783 125.618 129.592C126.979 131.401 127.546 136.191 127.546 136.191C127.546 136.191 128.113 140.66 128.792 141.615C129.471 142.571 130.381 149.506 130.381 149.506C130.381 149.506 136.392 160.784 141.833 162.167C141.833 162.167 114.845 170.467 129.02 185.363C129.02 185.363 118.928 187.701 116.545 185.044C114.163 182.388 107.927 143.015 107.927 143.015L109.855 109.815L119.267 110.227Z" fill="#CED7E7"/>
<path opacity="0.05" d="M119.267 110.227L121.874 114.377L122.441 121.613C122.441 121.613 124.257 127.783 125.618 129.592C126.979 131.401 127.546 136.191 127.546 136.191C127.546 136.191 128.113 140.66 128.792 141.615C129.471 142.571 130.381 149.506 130.381 149.506C130.381 149.506 136.392 160.784 141.833 162.167C141.833 162.167 114.845 170.467 129.02 185.363C129.02 185.363 118.928 187.701 116.545 185.044C114.163 182.388 107.927 143.015 107.927 143.015L109.855 109.815L119.267 110.227Z" fill="black"/>
<path d="M86.5228 69.7818C85.7655 73.4681 85.9901 77.273 87.1769 80.8582L82.9783 92.1364C82.9783 92.1364 50.9998 75.4311 53.7221 71.3863C55.2638 69.092 55.4601 63.0219 55.3355 58.1997C55.2452 54.5348 54.9679 51.5947 54.9679 51.5947C54.9679 51.5947 94.213 55.2158 88.9896 63.621C87.8076 65.5314 86.9739 67.6137 86.5228 69.7818Z" fill="#FFA2A2"/>
<path opacity="0.1" d="M88.9896 63.621C87.8076 65.5314 86.9738 67.6136 86.5228 69.7818C80.6987 71.53 74.4091 71.3315 68.7234 69.22C63.0377 67.1085 58.3069 63.2143 55.3355 58.1997C55.2452 54.5348 54.9679 51.5947 54.9679 51.5947C54.9679 51.5947 94.2036 55.2158 88.9896 63.621Z" fill="black"/>
<path d="M104.865 45.5304C104.868 49.4316 103.889 53.2784 102.009 56.758C100.13 60.2376 97.401 63.2519 94.0458 65.5558C90.6905 67.8598 86.8033 69.3883 82.6999 70.0172C78.5966 70.646 74.393 70.3575 70.4309 69.1751C66.4688 67.9926 62.8599 65.9496 59.8977 63.2121C56.9355 60.4746 54.7034 57.1198 53.3831 53.4205C52.0627 49.7213 51.6913 45.7818 52.299 41.9225C52.9067 38.0632 54.4763 34.3928 56.8804 31.2099C57.2541 30.7169 57.6476 30.2357 58.0608 29.7661C60.4153 27.0809 63.3453 24.8903 66.6605 23.3365C68.4591 22.4922 70.3562 21.8468 72.3136 21.4135C75.848 20.6278 79.5169 20.5329 83.092 21.1348C86.6671 21.7367 90.0721 23.0224 93.0949 24.9119C96.1178 26.8015 98.6939 29.2545 100.663 32.1183C102.632 34.9821 103.952 38.1955 104.541 41.5586C104.761 42.8724 104.87 44.2005 104.865 45.5304Z" fill="#FFA2A2"/>
<path d="M115.296 147.472C114.901 149.454 115.396 153.075 116.147 156.76C116.178 156.921 116.212 157.081 116.246 157.242C116.281 157.403 116.33 157.651 116.374 157.853C116.72 159.437 117.097 161.006 117.464 162.433C117.832 163.859 118.162 165.08 118.442 166.086C118.866 167.591 119.155 168.538 119.155 168.538C119.155 168.538 119.193 169.467 119.243 170.946C119.271 171.799 119.302 172.84 119.333 173.988C119.333 174.322 119.355 174.661 119.364 175.011C119.38 175.622 119.395 176.256 119.411 176.905C119.411 177.116 119.411 177.326 119.426 177.539C119.426 178.238 119.454 178.951 119.467 179.661C119.482 180.637 119.495 181.613 119.501 182.56C119.501 182.923 119.501 183.279 119.501 183.63C119.501 184.536 119.501 185.404 119.501 186.202C119.467 188.467 119.37 190.176 119.165 190.67C119.093 190.84 119.028 191.024 118.965 191.217C118.695 192.124 118.5 193.049 118.38 193.984L117.85 193.578C116.838 192.795 115.835 191.994 114.817 191.217C113.124 189.886 111.327 188.677 109.441 187.599C109.313 187.529 109.185 187.458 109.054 187.391C108.706 187.201 108.351 187.023 107.989 186.853C107.245 186.501 106.482 186.185 105.703 185.907C102.106 184.621 98.2527 184.153 94.3469 184.232C92.7896 184.79 91.7773 185.191 91.7773 185.191L89.7963 185.752L89.4662 185.845C87.3202 186.459 84.302 187.33 83.215 187.692C81.4583 188.277 66.2057 191.255 66.2057 191.255C64.8123 191.612 63.3889 191.856 61.9511 191.985C59.333 192.676 56.668 193.2 53.9744 193.552C47.8532 194.286 41.6362 193.816 35.7192 192.172C35.5426 192.182 35.3654 192.177 35.1897 192.158C35.2987 192.158 35.4046 192.134 35.5012 192.117L35.1212 192.012L34.601 191.86C33.7289 191.603 32.8641 191.321 32.0065 191.015L31.4863 190.828C30.6558 190.528 29.8428 190.206 29.0475 189.861L28.5274 189.639C27.6968 189.276 26.8839 188.893 26.0886 188.49C25.802 188.35 25.5186 188.198 25.2383 188.055C24.3911 187.61 23.5605 187.145 22.7465 186.658C22.6095 185.556 22.5379 184.819 22.5379 184.819L21.3231 179.144L21.2608 178.852L20.3887 174.76L20.3264 174.468L18.4296 165.566L18.3673 165.273L17.4952 161.182L17.4329 160.889L15.5111 151.993L15.4488 151.701L14.5767 147.609L14.5144 147.317L12.6082 138.403L12.5459 138.111L11.6738 134.034L11.6115 133.742L11.2658 132.134L10.7457 129.7C10.7457 129.7 9.08554 127.473 7.21673 124.84L7.00804 124.548C6.47543 123.808 5.92725 123.04 5.39464 122.285C5.2171 122.037 5.04579 121.792 4.87448 121.549C4.61493 121.181 4.36367 120.821 4.12073 120.471L3.95254 120.228L3.91828 120.178C1.23342 116.28 3.03059 114.585 3.03059 114.585C3.03059 114.585 4.15811 113.153 5.61266 111.259C5.6843 111.162 5.75905 111.066 5.83692 110.966C6.45986 110.148 7.14509 109.254 7.81786 108.36L8.33801 107.664C8.53424 107.404 8.72735 107.144 8.91423 106.887C8.98898 106.79 9.06062 106.691 9.12914 106.594C10.565 104.648 11.7486 102.95 11.9915 102.348C12.3715 101.398 14.7948 98.5894 17.2086 96.1257C19.1117 94.1793 21.0054 92.4492 21.8557 92.0341C23.7837 91.0785 24.578 87.9893 24.578 87.9893C24.578 87.9893 28.7735 86.6099 29.3403 85.5461C29.9072 84.4823 37.8465 79.701 37.8465 79.701C37.8465 79.701 41.0578 77.7604 42.3566 76.5914C42.5405 76.4385 42.7008 76.2625 42.8331 76.0682C43.2848 75.3084 46.2344 74.683 47.4335 74.4579C47.745 74.3995 47.9381 74.3673 47.9381 74.3673C48.4222 73.5419 49.0342 72.7884 49.754 72.1316C50.243 71.7253 50.8535 70.3254 51.3674 68.9694C51.9249 67.4906 52.3578 66.0673 52.3578 66.0673C53.2673 63.1944 55.0801 64.0449 55.0801 64.0449C55.0776 64.4373 55.1173 64.8289 55.1984 65.2139C55.9553 68.7209 60.0667 70.1822 62.2252 71.8218C64.6079 73.6279 68.3486 78.3128 71.2982 79.2684C73.7402 80.0605 76.5714 83.0473 77.4684 84.0439L77.5369 84.1199C77.6865 84.2835 77.7612 84.3771 77.7612 84.3771C77.7612 84.3771 79.4338 84.2952 80.4523 84.2777H80.8229C81.0301 84.2582 81.2269 84.1831 81.3898 84.0614C82.4021 83.4155 83.9096 81.5217 84.5668 81.0863C85.3579 80.5514 86.1553 71.9328 86.1553 71.9328L86.1958 71.9153C89.0208 70.6732 92.0514 83.1058 92.0514 83.1058C92.0514 83.1058 97.3806 84.5963 97.8354 85.6601C97.9226 85.8705 98.3244 86.2446 98.9286 86.6976C101.68 88.6705 104.608 90.4159 107.681 91.9143C107.749 91.9465 107.815 91.9786 107.883 92.0049C107.945 92.0362 108.008 92.0645 108.073 92.0897C108.189 92.1423 108.301 92.189 108.407 92.2329C108.575 92.303 108.731 92.3615 108.874 92.4082L109.061 92.4696C109.507 92.609 109.927 92.8131 110.307 93.0746C110.419 93.1506 110.531 93.2295 110.64 93.3142C111.064 93.6454 111.454 94.0134 111.805 94.4131C111.858 94.4716 111.907 94.5329 111.957 94.5914C112.194 94.869 112.406 95.1437 112.58 95.398C112.867 95.7903 113.128 96.1982 113.362 96.6196C113.362 96.6196 118.009 104.069 119.486 104.917C120.962 105.764 121.868 114.389 121.868 114.389L116.885 131.722C116.885 131.722 116.651 136.106 116.215 140.578C115.972 143.085 115.664 145.637 115.296 147.472Z" fill="#CED7E7"/>
<path d="M77.7612 84.903C77.7612 84.903 74.4192 86.6039 71.8091 86.7647C71.4674 86.7796 71.125 86.761 70.7874 86.7091C68.0527 86.3204 64.041 84.2103 64.041 84.2103L68.7473 79.3677L74.4721 82.0301L76.5776 83.8684L77.7612 84.903Z" fill="#63667E"/>
<path opacity="0.1" d="M104.529 41.5586C104.41 41.7158 104.276 41.8616 104.127 41.9941C102.489 43.4554 99.5795 42.8504 97.3463 42.5114C95.4057 42.2137 93.51 41.6996 91.6994 40.98C90.1234 40.3487 88.2328 39.5771 86.8156 40.4831C86.2705 40.828 85.8967 41.3803 85.3299 41.6843C84.763 41.9882 84.0404 42.0087 83.3707 42.0175C81.1905 42.0175 79.0102 42.0408 76.8829 41.5791C73.709 40.8835 70.4261 39.1329 67.408 40.2873C65.0471 41.1875 63.7669 43.5986 63.1284 45.9161C62.8169 47.053 62.5865 48.2542 61.8825 49.2186C61.1786 50.1831 59.8175 50.867 58.6588 50.414C56.9489 49.7447 56.6966 47.0209 54.6347 46.8835C52.3703 46.7345 52.3983 48.9293 53.0586 50.5162C54.0366 52.8543 55.3168 55.1923 55.3728 57.6297C52.9392 53.5398 51.7893 48.887 52.0561 44.2096C52.3229 39.5321 53.9955 35.021 56.8804 31.1982C57.3824 30.9064 57.7753 30.4754 58.0048 29.9649C58.0278 29.8958 58.0465 29.8255 58.0608 29.7544C58.2321 28.939 57.7493 28.0827 57.7213 27.2294C57.6123 25.1456 60.0168 23.6931 62.222 23.43C63.6891 23.2547 65.1903 23.3891 66.6605 23.3453C67.401 23.33 68.1374 23.2378 68.8563 23.0706C70.0966 22.7218 71.2579 22.1621 72.2825 21.4193C75.8168 20.6337 79.4857 20.5388 83.0609 21.1407C86.636 21.7425 90.0409 23.0282 93.0638 24.9178C96.0866 26.8073 98.6628 29.2603 100.632 32.1242C102.601 34.988 103.921 38.2014 104.51 41.5645L104.529 41.5586Z" fill="black"/>
<path d="M105.061 39.8373C104.906 40.4153 104.583 40.9415 104.127 41.357C102.489 42.8183 99.5795 42.2104 97.3463 41.8714C95.4056 41.5802 93.5096 41.0699 91.6994 40.3516C90.1234 39.7233 88.2327 38.9517 86.8156 39.8577C86.2705 40.2026 85.8967 40.755 85.3299 41.0589C84.763 41.3629 84.0404 41.3833 83.3707 41.3892C81.1905 41.4038 79.0102 41.4155 76.8828 40.9537C73.709 40.2552 70.4261 38.5075 67.408 39.659C65.047 40.5592 63.7669 42.9732 63.1284 45.2908C62.8169 46.4276 62.5865 47.6288 61.8825 48.5903C61.1786 49.5518 59.8175 50.2416 58.6588 49.7886C56.9489 49.1193 56.6966 46.3955 54.6347 46.2581C52.3703 46.1091 52.3983 48.3039 53.0586 49.8909C54.2173 52.6585 55.7933 55.4116 55.2763 58.3458C54.7624 58.3458 53.9121 58.3283 53.4075 58.3166C53.7999 57.6882 53.0524 56.9401 52.308 56.7267C51.5636 56.5134 50.6946 56.5163 50.1277 56.0078C49.5608 55.4992 49.5577 54.7131 49.6169 54.0087C49.7461 52.5033 50.1386 51.0282 50.7787 49.6424C51.1867 48.7657 51.7131 47.8158 51.4016 46.8982C51.2147 46.4822 50.9896 46.0823 50.7288 45.7028C50.081 44.5338 50.2336 43.0725 50.788 41.8655C51.0247 41.3512 51.1961 40.866 51.3923 40.4043C51.6401 39.7479 51.9987 39.1331 52.4544 38.5835C53.1676 37.7506 53.8653 36.4968 53.0773 35.7223C52.878 35.5265 53.2767 35.3921 53.149 35.1378C53.1264 35.0944 53.1107 35.0481 53.1022 35.0005C53.0656 34.6926 53.145 34.3824 53.3265 34.1237C53.3633 34.0565 53.4038 33.9911 53.448 33.9279C53.4838 33.8611 53.5244 33.7966 53.5694 33.735C54.2591 32.6545 55.1758 31.7168 56.2636 30.979C56.9395 30.5202 57.7307 30.0789 57.9985 29.3365C58.31 28.4598 57.7618 27.5275 57.7151 26.601C57.6061 24.5173 60.0106 23.0647 62.2158 22.8017C64.421 22.5387 66.7072 22.9742 68.8563 22.4393C71.9056 21.6853 74.0485 19.1602 76.8174 17.7428C78.3322 16.9828 80.0121 16.5577 81.7287 16.5C83.4453 16.4422 85.1533 16.7534 86.7221 17.4096C89.9552 18.7949 92.394 21.5947 95.7703 22.6468C96.9663 23.0209 98.262 23.17 99.3397 23.7895C100.586 24.5085 101.342 25.7652 101.99 27.0044C102.978 28.8836 103.177 30.7715 103.859 32.7618C104.401 34.34 105.152 36.4033 105.214 38.2211C105.249 38.764 105.198 39.3087 105.061 39.8373Z" fill="#896363"/>
<g opacity="0.1">
<path opacity="0.1" d="M53.4822 36.1753C53.5321 35.9883 53.537 35.7932 53.4966 35.6041C53.4562 35.4151 53.3715 35.2368 53.2486 35.0823C53.3296 35.3102 52.9777 35.4418 53.1708 35.6317C53.3246 35.7835 53.4322 35.9712 53.4822 36.1753Z" fill="black"/>
<path opacity="0.1" d="M53.2393 34.4128C53.2026 34.5148 53.1806 34.621 53.1739 34.7285C53.2331 34.635 53.314 34.5385 53.2393 34.4128Z" fill="black"/>
<path opacity="0.1" d="M104.214 40.6439C102.573 42.1051 99.6668 41.5002 97.4273 41.1582C95.488 40.8652 93.5938 40.352 91.7866 39.6297C90.2075 38.9985 88.32 38.2269 86.8997 39.1329C86.3577 39.4778 85.984 40.0301 85.414 40.3341C84.844 40.638 84.1245 40.6585 83.4548 40.6643C81.2746 40.6643 79.0943 40.6906 76.9638 40.2259C73.7931 39.5304 70.5102 37.7856 67.4921 38.9342C65.1312 39.8372 63.851 42.2483 63.2125 44.5659C62.901 45.7028 62.6737 46.904 61.9666 47.8684C61.2596 48.8328 59.8985 49.5167 58.7429 49.0667C57.033 48.3945 56.7807 45.6736 54.7188 45.5362C53.1085 45.4281 52.66 46.5094 52.769 47.7106C52.8624 46.7929 53.3919 46.0856 54.7188 46.1733C56.7807 46.3107 57.033 49.0345 58.7429 49.7038C59.8985 50.1568 61.2627 49.4758 61.9666 48.5055C62.6706 47.5352 62.901 46.3399 63.2125 45.206C63.851 42.8884 65.1312 40.4743 67.4921 39.5742C70.5102 38.4227 73.7931 40.1587 76.9638 40.866C79.0818 41.3307 81.2808 41.316 83.4548 41.3014C84.1245 41.3014 84.8315 41.2839 85.414 40.9741C85.9964 40.6643 86.3484 40.1178 86.8997 39.77C88.32 38.8669 90.2075 39.6385 91.7866 40.2668C93.5942 40.9887 95.4882 41.5029 97.4273 41.7983C99.6668 42.1373 102.573 42.7481 104.214 41.281C105.105 40.4831 105.373 39.3287 105.314 38.0662C105.264 39.0686 104.952 39.9775 104.214 40.6439Z" fill="black"/>
<path opacity="0.1" d="M57.8241 26.072C57.8069 26.2176 57.8006 26.364 57.8054 26.5104C57.8366 27.1183 58.0826 27.7262 58.1605 28.3195C58.2757 27.5917 57.9176 26.8319 57.8241 26.072Z" fill="black"/>
<path opacity="0.1" d="M51.4951 46.8076C51.5208 46.895 51.5405 46.9838 51.5543 47.0735C51.6047 46.772 51.5845 46.4638 51.4951 46.1704C51.3094 45.753 51.0842 45.352 50.8223 44.9722C50.5883 44.5399 50.4495 44.0677 50.4143 43.584C50.3509 44.2823 50.492 44.9836 50.8223 45.6122C51.0848 45.9907 51.31 46.3908 51.4951 46.8076Z" fill="black"/>
<path opacity="0.1" d="M55.3604 57.6151L53.5383 57.5888C53.5808 57.692 53.5978 57.803 53.5881 57.9133C53.5784 58.0237 53.5422 58.1305 53.4822 58.2259C53.9962 58.2259 54.8496 58.2434 55.3511 58.2551C55.4382 57.7549 55.4685 57.2474 55.4414 56.7412C55.4343 57.0338 55.4073 57.3257 55.3604 57.6151Z" fill="black"/>
<path opacity="0.1" d="M52.3796 55.9989C51.6352 55.7885 50.7694 55.7856 50.2149 55.2741C49.8886 54.9391 49.7046 54.5034 49.6979 54.0496C49.6512 54.7217 49.6979 55.4465 50.2149 55.9142C50.7694 56.4256 51.6352 56.4285 52.3796 56.6389C52.6218 56.705 52.8471 56.8169 53.0415 56.9677C53.2359 57.1185 53.3955 57.305 53.5103 57.5157C53.8249 56.9107 53.1023 56.2006 52.3796 55.9989Z" fill="black"/>
</g>
<path opacity="0.1" d="M109.045 187.391C108.696 187.201 108.341 187.023 107.98 186.853C107.236 186.501 106.472 186.185 105.694 185.906C102.096 184.62 98.2434 184.153 94.3376 184.232C92.7802 184.79 91.7679 185.19 91.7679 185.19L89.787 185.752L89.4569 185.845C89.4351 185.64 89.4101 185.436 89.3883 185.228C89.3665 185.021 89.3416 184.822 89.3167 184.618C88.619 178.419 88.0708 172.051 88.0708 172.051V166.55V165.91L88.0334 149.705L87.722 144.362L87.5756 141.998L87.5476 141.548L87.4915 140.624L87.4603 140.075C87.3916 139.901 87.3334 139.723 87.2859 139.543C87.2641 139.47 87.2423 139.388 87.2236 139.303C87.1458 139.011 87.0617 138.634 86.9745 138.225C86.4045 135.536 85.6912 131.003 85.6476 130.083C85.5915 128.855 84.4578 121.514 84.4578 121.514C84.3425 117.472 80.7202 109.862 79.8076 108.427C78.895 106.992 77.8765 98.3701 78.2191 97.9054C78.3966 97.657 78.5119 96.187 78.5835 94.8309C78.5835 94.676 78.5991 94.5241 78.6053 94.375C78.652 93.3141 78.6738 92.4286 78.6738 92.4286L82.237 91.7681L83.1932 91.5927L83.268 91.5781L83.2991 91.6366C83.4019 91.8149 83.7227 92.3848 84.0996 93.1329C84.1432 93.2118 84.1837 93.2966 84.2273 93.3813C84.246 93.4223 84.2678 93.4632 84.2896 93.5041C84.9873 94.9361 85.794 96.8212 85.7597 97.9054C85.7037 99.8226 88.0303 104.452 88.0303 104.452C88.2546 105.516 93.1882 116.101 93.1882 116.101C93.1882 116.101 97.2155 126.476 96.9882 128.18C96.7608 129.884 98.9161 141.162 98.9161 141.162L101.128 152.762C102.202 155.047 103.619 160.314 103.619 160.314L104.158 163.3L104.261 163.87L105.697 171.84L106.401 175.745C106.401 175.745 106.697 177.82 107.145 180.129C107.183 180.336 107.226 180.546 107.27 180.757C107.546 182.277 107.938 183.776 108.444 185.243C108.695 185.946 108.895 186.663 109.045 187.391Z" fill="black"/>
<path d="M109.431 187.599C109.304 187.528 109.176 187.458 109.045 187.391C108.696 187.201 108.341 187.023 107.98 186.853C107.236 186.501 106.472 186.185 105.694 185.906C102.096 184.62 98.2434 184.153 94.3375 184.232C92.7802 184.79 91.7679 185.19 91.7679 185.19L89.787 185.752C89.7621 185.547 89.7403 185.342 89.7153 185.135C89.6904 184.927 89.6717 184.761 89.6531 184.574C88.9554 178.39 88.4072 172.051 88.4072 172.051V166.498V165.858L88.3698 149.693L88.0583 144.59L87.996 143.532L87.9524 142.816L87.8964 141.869L87.8403 140.908L87.7998 140.215V140.063C87.7998 140.049 87.7998 140.031 87.778 140.014C87.7188 139.856 87.6472 139.616 87.5693 139.312L87.532 139.166C87.5164 139.099 87.4977 139.026 87.4821 138.953C86.8966 136.46 86.0369 131.085 85.9902 130.077C85.9341 128.849 84.8004 121.508 84.8004 121.508C84.6851 117.466 81.0628 109.856 80.1502 108.421C79.2376 106.986 78.2222 98.3643 78.5617 97.8996C78.7579 97.6073 78.8731 95.8333 78.9479 94.3691C78.9479 94.2522 78.9479 94.1383 78.9479 94.0301C78.9884 93.1271 79.004 92.4227 79.004 92.4227L82.318 91.809L83.1589 91.6541L83.2898 91.6307L83.6012 91.5723C83.6012 91.5723 84.0092 92.2795 84.4983 93.2527L84.5605 93.3755C85.2738 94.8192 86.1179 96.7832 86.093 97.8996C86.0369 99.8168 88.3636 104.446 88.3636 104.446C88.5878 105.51 93.5215 116.095 93.5215 116.095C93.5215 116.095 97.5488 126.47 97.3214 128.174C97.094 129.878 99.2494 141.156 99.2494 141.156L101.461 152.756C102.535 155.041 103.953 160.308 103.953 160.308L104.454 163.09L104.557 163.654L105.687 169.943L106.731 175.739C106.731 175.739 107.042 177.805 107.472 180.123C107.513 180.333 107.553 180.544 107.597 180.757C107.873 182.283 108.265 183.79 108.771 185.263C109.047 186.027 109.268 186.807 109.431 187.599Z" fill="#63667E"/>
<path d="M106.622 37.4992C106.622 37.4992 105.432 38.9371 104.357 38.9371C103.283 38.9371 99.0999 38.7764 96.9196 38.1393C94.7393 37.5021 84.0497 37.0199 84.0497 37.0199C84.0497 37.0199 68.9124 37.0725 68.4016 36.5932C67.8908 36.1139 58.989 33.5596 58.0826 33.7204C57.8926 33.7554 57.4285 33.8314 56.8087 33.9279L56.0986 34.036C55.024 34.1967 53.6816 34.3838 52.4544 34.5211C50.9375 34.6877 49.6044 34.7725 49.1808 34.6264V33.4018C49.1808 33.4018 50.9375 31.0053 51.0497 30.3185C51.1618 29.6317 52.6382 19.6746 56.4941 16.112C58.0871 13.2546 60.6651 10.9882 63.8074 9.68238C69.0245 7.55184 74.2416 5.7457 74.2416 5.7457L75.1542 5.62295L78.0976 5.2138C78.1871 5.13022 78.284 5.05396 78.3872 4.98584C79.2033 4.40133 81.6764 3.13002 84.9001 5.8626L85.47 6.71599C85.47 6.71599 95.3903 8.89621 99.9814 16.5036C104.572 24.111 104.803 31.5606 105.142 34.9654C105.142 34.9654 104.915 35.924 105.37 36.2951C105.534 36.4316 105.691 36.576 105.84 36.7277C105.881 36.7657 105.921 36.8037 105.958 36.8446C106.089 36.9673 106.211 37.0959 106.31 37.2011C106.322 37.2093 106.333 37.2192 106.342 37.2304C106.366 37.258 106.392 37.2844 106.419 37.3093L106.622 37.4992Z" fill="#2115FC"/>
<path opacity="0.05" d="M106.622 37.4992C106.622 37.4992 105.432 38.9371 104.357 38.9371C103.283 38.9371 99.0999 38.7764 96.9196 38.1392C94.7393 37.5021 84.0498 37.0199 84.0498 37.0199C84.0498 37.0199 68.9124 37.0725 68.4016 36.5932C67.8908 36.1139 58.989 33.5596 58.0826 33.7203C57.8926 33.7554 57.4286 33.8314 56.8087 33.9278L56.6468 32.9926L56.6063 32.7617C56.6063 32.7617 73.7869 29.3044 85.2396 31.1164C96.6923 32.9283 105.142 34.9449 105.142 34.9449C105.142 34.9449 104.915 35.9035 105.37 36.2747C105.534 36.4111 105.691 36.5555 105.84 36.7072C105.881 36.7452 105.921 36.7832 105.958 36.8241C106.089 36.9468 106.211 37.0754 106.31 37.1806C106.322 37.1889 106.333 37.1987 106.342 37.2099C106.366 37.2375 106.392 37.2638 106.419 37.2888L106.622 37.4992Z" fill="black"/>
<path opacity="0.1" d="M105.061 39.8374C102.94 39.9923 99.0314 39.5071 97.3214 39.2704C96.8355 39.2032 96.359 39.1214 95.8793 39.022C94.0448 38.6479 88.4041 37.5987 84.9779 38.0839C80.8385 38.6684 69.1585 37.6046 69.1585 37.6046C69.1585 37.6046 61.9573 36.2222 59.0638 35.1058C58.0017 34.6937 56.2263 34.5651 54.4603 34.7697C54.0099 34.8224 53.5628 34.8975 53.1209 34.9947C50.7102 35.5295 48.6763 36.7483 49.0282 38.8262C48.8935 38.6746 48.7687 38.5156 48.6545 38.3498C48.5019 36.4502 49.131 35.3191 50.0031 34.6528L50.2087 34.5739C51.2741 34.2898 52.3583 34.0721 53.4542 33.9221C53.6255 33.8958 53.8031 33.8725 53.9837 33.852C57.0828 33.4604 61.5649 33.3727 65.3461 35.1584C65.3461 35.1584 68.8594 36.7044 71.2422 36.7044C73.6249 36.7044 93.0138 36.8652 97.5519 38.0868C98.4553 38.3317 99.3766 38.5143 100.308 38.6333C101.963 38.8334 103.644 38.6847 105.23 38.1978C105.262 38.7492 105.205 39.302 105.061 39.8374Z" fill="black"/>
<path opacity="0.1" d="M106.622 37.4992C106.622 37.4992 105.432 38.9371 104.357 38.9371C103.283 38.9371 99.0999 38.7763 96.9196 38.1392C94.7393 37.5021 84.0497 37.0199 84.0497 37.0199C84.0497 37.0199 68.9124 37.0725 68.4016 36.5932C67.8908 36.1139 58.989 33.5596 58.0826 33.7203C57.8926 33.7554 57.4285 33.8314 56.8087 33.9278L56.0986 34.0359C54.8651 34.03 53.6374 34.1935 52.4544 34.5211C50.9375 34.6877 49.6044 34.7724 49.1808 34.6263V34.3837C49.5074 34.2059 49.8479 34.0515 50.1994 33.922C52.3012 33.3697 54.4655 33.0538 56.6467 32.9809C59.3659 32.8874 62.546 33.1855 65.3398 34.5065C65.3398 34.5065 68.8532 36.0525 71.2359 36.0525C73.6187 36.0525 93.0076 36.2103 97.5457 37.4349C98.4495 37.6775 99.3707 37.8591 100.302 37.9785C102.346 38.2201 104.422 37.9405 106.31 37.1689C106.322 37.1771 106.333 37.187 106.342 37.1981C106.366 37.2258 106.392 37.2521 106.419 37.277L106.622 37.4992Z" fill="black"/>
<path d="M49.0718 38.7765C49.0718 38.7765 45.2719 36.0614 50.2056 34.2523C50.2056 34.2523 58.8239 31.7536 65.3461 34.8369C65.3461 34.8369 68.8594 36.377 71.2422 36.377C73.6249 36.377 93.0138 36.5378 97.5519 37.7623C98.4557 38.0053 99.3769 38.1869 100.308 38.3059C102.723 38.5806 105.168 38.1445 107.307 37.058C107.619 36.8973 107.899 36.8154 107.983 36.9089C108.266 37.2304 108.042 39.0921 105.547 39.4633C103.601 39.7555 99.1778 39.2031 97.3183 38.9489C96.8355 38.8817 96.3559 38.7969 95.8793 38.7005C94.0448 38.3264 88.4041 37.2772 84.9623 37.7623C80.826 38.3468 69.1429 37.283 69.1429 37.283C69.1429 37.283 61.9448 35.9007 59.0513 34.7813C56.1578 33.662 47.9942 34.6264 49.0718 38.7765Z" fill="#2115FC"/>
<path opacity="0.1" d="M81.1064 10.2493C80.7949 9.82847 76.7925 6.82116 75.1604 5.60538L78.1038 5.19622C78.1933 5.11265 78.2902 5.03638 78.3935 4.96826C80.5333 7.07542 81.1064 10.2493 81.1064 10.2493Z" fill="black"/>
<path opacity="0.1" d="M68.1244 26.379L66.8193 28.188L71.809 28.0302L71.9212 26.0078L68.1244 26.379Z" fill="black"/>
<path opacity="0.1" d="M98.5704 28.562L99.1373 30.2103L102.314 30.6896L100.953 28.7198L98.5704 28.562Z" fill="black"/>
<path opacity="0.1" d="M44.0261 83.8977C44.3656 84.4296 55.5348 98.2182 58.4844 97.8354C61.434 97.4525 44.0261 83.8977 44.0261 83.8977Z" fill="black"/>
<path opacity="0.1" d="M81.449 96.4998C81.449 96.4998 84.1712 98.9489 83.7725 99.9045C83.3739 100.86 81.449 96.4998 81.449 96.4998Z" fill="black"/>
<path opacity="0.1" d="M51.738 113.313C51.738 113.313 49.3553 123.794 50.6043 124.127C51.8532 124.46 51.738 113.313 51.738 113.313Z" fill="black"/>
<path opacity="0.1" d="M82.3553 154.013C82.7509 155.077 86.04 161.994 86.7782 162.365C87.5164 162.737 82.3553 154.013 82.3553 154.013Z" fill="black"/>
<path opacity="0.1" d="M120.573 125.603C120.457 125.974 117.623 128.157 118.246 128.955C118.869 129.753 120.573 125.603 120.573 125.603Z" fill="black"/>
<path opacity="0.1" d="M98.5704 145.02C98.5143 145.289 97.9475 150.865 99.0251 151.938C100.103 153.01 98.5704 145.02 98.5704 145.02Z" fill="black"/>
<path opacity="0.1" d="M127.624 173.988C126.802 174.418 125.952 174.833 125.086 175.23C124.151 175.657 123.217 176.063 122.264 176.446C121.884 176.601 121.504 176.753 121.127 176.899C120.554 177.121 119.987 177.335 119.426 177.539C117.723 178.165 116.081 178.708 114.62 179.167C114.053 179.345 113.512 179.509 113.007 179.661C110.465 180.418 108.777 180.83 108.777 180.83C108.392 180.753 107.997 180.722 107.603 180.739C107.494 180.739 107.382 180.739 107.267 180.739C106.739 180.775 106.214 180.838 105.694 180.926C102.215 181.511 97.2996 183.151 94.3375 184.223C92.7802 184.781 91.7679 185.182 91.7679 185.182L89.787 185.743L89.4568 185.836C87.3108 186.45 84.2927 187.321 83.2057 187.683C81.449 188.268 66.1964 191.246 66.1964 191.246C64.8029 191.603 63.3795 191.847 61.9417 191.977C58.3987 192.282 54.8375 192.358 51.2833 192.205C47.7138 192.421 41.9392 191.684 38.5785 191.188L38.0427 191.109C36.7439 190.91 35.9185 190.767 35.9185 190.767L36.3546 190.203L45.2968 178.626L45.3498 178.556L53.6816 167.775L53.993 167.383L54.7499 166.404C54.7499 166.404 55.2047 165.82 56.9551 165.782C57.1607 165.782 57.3849 165.782 57.631 165.782C59.1013 165.893 60.5519 166.17 61.9511 166.609L62.356 166.723C68.3891 168.345 77.7145 167.939 77.7145 167.939C77.7145 167.939 83.5171 167.062 88.077 166.536L88.4165 166.495C89.9066 166.297 91.4069 166.175 92.911 166.13C95.6893 166.182 101.701 164.8 101.701 164.8C102.993 164.54 103.538 164.321 104.267 163.832C104.364 163.768 104.466 163.698 104.579 163.622C104.89 163.403 105.248 163.134 105.709 162.801C106.55 162.196 107.731 161.375 109.587 160.223C109.749 160.124 109.92 160.024 110.104 159.931C110.288 159.837 110.521 159.712 110.746 159.606C112.543 158.808 114.439 158.219 116.39 157.853C118.008 157.527 119.649 157.315 121.301 157.219H121.547C126.219 156.985 130.991 157.736 133.782 160.2C134.27 160.633 134.695 161.124 135.046 161.661C135.217 161.916 135.369 162.182 135.501 162.456C135.756 162.979 135.945 163.528 136.065 164.093C136.088 164.198 136.106 164.303 136.121 164.408C136.121 164.44 136.121 164.47 136.121 164.502C136.121 164.586 136.14 164.671 136.146 164.756C136.395 168.254 132.527 171.416 127.624 173.988Z" fill="black"/>
<path d="M35.9185 190.138C35.9185 190.138 46.0101 191.892 51.2833 191.573C51.2833 191.573 60.9793 192.053 66.1964 190.618C66.1964 190.618 81.4583 187.637 83.2057 187.052C84.953 186.468 91.7679 184.551 91.7679 184.551C91.7679 184.551 105.036 179.337 108.777 180.187C108.777 180.187 138.149 173.059 136.049 163.429C133.95 153.799 115.411 155.983 109.575 159.598C103.738 163.213 104.591 163.59 101.694 164.175C101.694 164.175 95.6831 165.557 92.9048 165.504C90.1265 165.452 77.7082 167.313 77.7082 167.313C77.7082 167.313 67.9562 167.74 61.9479 165.984C55.9397 164.227 54.7468 165.77 54.7468 165.77L35.9185 190.138Z" fill="#FFA2A2"/>
<path opacity="0.1" d="M57.8023 165.145C57.8038 165.156 57.8038 165.168 57.8023 165.18C57.7806 165.397 57.7206 165.609 57.6248 165.808C56.4287 168.561 49.6387 175.987 49.6387 175.987C49.3292 176.87 48.9556 177.731 48.5205 178.565C47.5849 180.348 46.5073 182.063 45.2968 183.694C43.5026 186.135 41.5436 188.465 39.4319 190.67H39.4163C39.1476 190.857 38.8679 191.03 38.5785 191.188C37.8465 191.597 36.747 192.102 35.7099 192.164C35.5332 192.174 35.356 192.169 35.1804 192.149C35.2894 192.149 35.3953 192.126 35.4918 192.108L35.1118 192.003L34.5917 191.851C33.7196 191.594 32.8547 191.312 31.9971 191.006L31.477 190.819C30.6464 190.519 29.8335 190.197 29.0382 189.852L28.518 189.63C27.6875 189.268 26.8745 188.885 26.0792 188.481C25.7927 188.341 25.5093 188.189 25.2289 188.046C24.3817 187.602 23.5512 187.136 22.7372 186.649C21.8734 186.133 21.0283 185.594 20.2018 185.033C19.5789 183.948 19.065 182.987 18.7847 182.47C18.2738 181.508 18.2302 180.132 18.2925 179.135C18.2925 179.033 18.2925 178.936 18.3112 178.843C18.3642 178.217 18.4452 177.788 18.4452 177.788C17.9836 177.209 17.5673 176.599 17.1993 175.964C16.9879 175.649 16.8676 175.287 16.8504 174.915C16.8645 174.766 16.8498 174.615 16.8068 174.471C16.567 173.547 15.536 171.96 14.583 170.964C13.8728 170.23 13.8292 167.489 13.8977 165.545C13.9382 164.376 14.0161 163.517 14.0161 163.517C13.8765 163.432 13.7721 163.306 13.7202 163.157C13.4697 162.518 13.3004 161.853 13.2156 161.176C13.2156 161.08 13.1876 160.983 13.172 160.884C12.9727 159.542 12.8823 158.195 12.8823 158.195C10.5775 156.62 9.4811 154.162 8.97029 151.97L8.90488 151.678C8.62435 150.33 8.50525 148.958 8.54981 147.586C8.54981 147.455 8.54981 147.355 8.54981 147.294C8.54981 147.232 8.54981 147.221 8.54981 147.221C8.54981 147.221 8.85505 140.888 9.70847 138.415C9.74273 138.31 9.78011 138.213 9.81748 138.123C9.88036 137.968 9.96186 137.82 10.0604 137.682C10.3719 137.293 10.593 136.559 10.7768 135.691C10.9045 135.089 11.0104 134.42 11.0883 133.754C11.1599 133.198 11.216 132.646 11.2596 132.135C11.3811 130.767 11.4184 129.7 11.4184 129.7L10.8422 127.035C10.6834 126.307 10.5619 125.573 10.4778 124.84C10.4778 124.743 10.4529 124.647 10.4404 124.548C10.2947 123.193 10.2687 121.829 10.3626 120.471C10.3626 120.371 10.3626 120.275 10.3812 120.178C10.6244 117.084 11.4867 114.06 12.9228 111.265L13.0786 110.972C13.2862 110.583 13.5042 110.2 13.7326 109.824C13.8977 109.546 14.0721 109.271 14.2528 109C14.7317 108.272 15.2515 107.568 15.8101 106.892C15.8911 106.793 15.9752 106.697 16.0593 106.6C17.0312 105.47 18.1113 104.425 19.2861 103.479C22.432 100.942 25.3193 99.8404 27.9418 99.7556C39.4101 99.3757 45.8419 118.407 46.8822 121.742C46.9819 122.063 47.0317 122.239 47.0317 122.239C47.0317 122.239 51.6788 126.602 50.3177 128.516C50.0538 128.938 49.8932 129.409 49.8474 129.896C49.4736 132.471 50.5451 136.711 50.5451 136.711C50.5451 136.711 50.9251 137.88 52.0339 140.68L52.361 141.498C53.0555 143.252 53.2175 146.195 52.8188 148.831C52.4357 151.356 51.5356 153.589 50.0935 154.162C47.1439 155.331 47.9381 156.5 48.6171 157.461C49.0206 158.151 49.3573 158.873 49.6231 159.618C50.0499 160.697 50.4454 161.831 50.5949 162.272C50.6385 162.395 50.6603 162.462 50.6603 162.462C51.0735 162.312 51.5027 162.204 51.9405 162.14C52.498 162.067 53.0493 162.12 53.1552 162.567C53.2113 162.807 53.5321 163.09 53.9837 163.374C55.323 164.239 57.8023 165.145 57.8023 165.145Z" fill="black"/>
<path d="M57.1233 165.145C57.1043 165.367 57.0442 165.585 56.9458 165.788C55.756 168.544 48.9597 175.987 48.9597 175.987C48.6488 176.869 48.2752 177.73 47.8415 178.565C47.0899 180.005 46.2399 181.398 45.2969 182.736C43.3444 185.499 41.1813 188.127 38.8245 190.597L38.7529 190.67C38.7529 190.67 38.4788 190.866 38.0428 191.117C37.2636 191.584 36.405 191.922 35.5043 192.117L35.1243 192.012L34.6041 191.86C33.732 191.603 32.8672 191.321 32.0096 191.015L31.4895 190.828C30.6589 190.528 29.8459 190.206 29.0507 189.861L28.5305 189.639C27.6999 189.276 26.887 188.893 26.0917 188.49C25.8052 188.35 25.5217 188.198 25.2414 188.055C24.3942 187.61 23.5636 187.145 22.7497 186.658C21.8858 186.141 21.0407 185.603 20.2143 185.041C19.8322 184.784 19.4543 184.52 19.0806 184.249C18.6601 183.501 18.3237 182.87 18.115 182.478C17.6042 181.517 17.5606 180.14 17.6229 179.144C17.6229 179.041 17.6229 178.945 17.6416 178.851C17.6945 178.226 17.7755 177.796 17.7755 177.796C17.7755 177.796 17.5232 177.478 17.218 177.045C17.0467 176.806 16.8629 176.528 16.6978 176.253C16.3864 175.739 16.1434 175.219 16.1901 174.924C16.1964 174.873 16.1964 174.822 16.1901 174.772C16.1855 174.673 16.1698 174.575 16.1434 174.479C15.9036 173.556 14.8695 171.969 13.9164 170.972C13.2063 170.239 13.1627 167.497 13.2281 165.554C13.2281 165.454 13.2281 165.358 13.2281 165.262C13.2717 164.253 13.3371 163.526 13.3371 163.526C12.9851 163.382 12.7141 162.321 12.5397 161.188L12.493 160.895C12.2937 159.554 12.2033 158.207 12.2033 158.207C9.89847 156.631 8.8021 154.173 8.29441 151.981C7.94072 150.446 7.80457 148.874 7.8895 147.305C7.8895 147.259 7.8895 147.232 7.8895 147.232C7.8895 147.232 8.15736 140.867 9.01079 138.392C9.04505 138.286 9.08242 138.19 9.1198 138.099C9.19454 137.948 9.28755 137.805 9.39701 137.673C9.87044 137.053 10.185 135.563 10.3906 134.037L10.428 133.745C10.6865 131.699 10.7581 129.691 10.7581 129.691L10.1788 127.026C10.021 126.295 9.89951 125.564 9.81437 124.831C9.7988 124.735 9.78946 124.635 9.777 124.539C9.63136 123.184 9.60531 121.82 9.69913 120.462C9.69913 120.362 9.69913 120.266 9.72093 120.17C9.96266 117.075 10.825 114.05 12.2625 111.256C12.3124 111.156 12.3622 111.06 12.4182 110.963C12.8187 110.204 13.2638 109.467 13.7513 108.754C13.9195 108.506 14.0908 108.26 14.2715 108.018C14.5549 107.632 14.8508 107.252 15.1592 106.884L15.4083 106.591C16.3719 105.465 17.4426 104.423 18.6071 103.479C22.0333 100.723 25.148 99.659 27.9512 99.7555C38.9927 100.127 45.191 118.474 46.2095 121.742C46.3091 122.063 46.359 122.239 46.359 122.239C46.359 122.239 51.0092 126.602 49.6481 128.516C49.3842 128.938 49.2235 129.409 49.1777 129.896C48.8009 132.471 49.8754 136.711 49.8754 136.711C49.8754 136.711 50.2554 137.88 51.3643 140.68C51.4639 140.94 51.5729 141.212 51.6757 141.498C52.3703 143.252 52.5323 146.195 52.1336 148.831C51.7505 151.359 50.8535 153.589 49.4082 154.162C46.4617 155.331 47.2529 156.5 47.935 157.461C48.3385 158.151 48.6752 158.872 48.941 159.618C49.4799 160.995 49.9751 162.462 49.9751 162.462C50.179 162.388 50.3869 162.325 50.598 162.272C51.0314 162.138 51.4902 162.093 51.9436 162.14C52.0691 162.149 52.1882 162.196 52.2839 162.272C52.3796 162.349 52.4469 162.452 52.4762 162.567C52.5603 162.918 53.205 163.353 53.9868 163.765C55.0019 164.284 56.0493 164.744 57.1233 165.145Z" fill="#CED7E7"/>
<path opacity="0.1" d="M16.1278 137.041C17.2055 136.989 28.7735 132.786 31.1562 134.221C33.5389 135.656 48.2869 144.967 48.2869 144.967C48.2869 144.967 39.0457 133.637 30.9942 130.977C22.9428 128.318 16.1278 137.041 16.1278 137.041Z" fill="black"/>
<path opacity="0.1" d="M32.7571 154.173C32.7571 154.173 44.3251 156.354 46.0817 157.844L32.7571 154.173Z" fill="black"/>
<path opacity="0.1" d="M30.5301 170.405C30.3619 170.566 26.1696 179.395 26.506 179.395C26.8423 179.395 30.418 174.134 30.418 174.134L30.5301 170.405Z" fill="black"/>
<path opacity="0.1" d="M38.4134 159.811C38.4134 159.811 35.0122 160.93 35.4077 161.036C35.8033 161.141 38.2982 160.29 38.4134 159.811Z" fill="black"/>
<path opacity="0.1" d="M35.0121 173.167C35.579 174.283 37.3918 177.636 37.7904 177.104C38.1891 176.572 35.0121 173.167 35.0121 173.167Z" fill="black"/>
<path opacity="0.1" d="M77.4715 84.6782L76.9856 85.327C76.9856 85.327 73.1265 82.7756 71.5412 81.4985C69.9558 80.2213 66.2119 86.0723 63.2623 87.668C60.3127 89.2637 55.3261 89.6904 55.3261 89.6904C55.3261 89.6904 51.4701 86.0723 51.5885 85.0143C51.7069 83.9563 49.7757 83.6319 49.6605 82.8867C49.5453 82.1414 48.8663 80.0138 47.9599 78.95C47.4802 78.3889 47.4117 76.6324 47.4553 75.1039C47.7668 75.0455 47.9599 75.0133 47.9599 75.0133C48.444 74.1879 49.0559 73.4344 49.7757 72.7776C50.7974 71.9271 52.3827 66.7133 52.3827 66.7133C53.2891 63.8404 55.1019 64.6909 55.1019 64.6909C55.1019 69.0542 59.8673 70.6499 62.2469 72.459C64.6266 74.2681 68.3704 78.95 71.32 79.9086C73.7401 80.6831 76.5714 83.6787 77.4715 84.6782Z" fill="black"/>
<path d="M77.4715 84.0379L76.9856 84.6896C76.9856 84.6896 73.111 82.1441 71.5256 80.8582C69.9402 79.5722 66.1964 85.4319 63.2468 87.0277C60.2972 88.6234 55.3106 89.053 55.3106 89.053C55.3106 89.053 51.4546 85.4319 51.5729 84.3769C51.6913 83.3219 49.7602 82.9945 49.645 82.2464C49.5297 81.4982 48.8507 79.3735 47.9443 78.3097C47.4647 77.7486 47.3962 75.9921 47.4398 74.4636L47.9443 74.3759C48.4284 73.5505 49.0404 72.797 49.7602 72.1402C50.7818 71.2868 52.3672 66.0759 52.3672 66.0759C53.2736 63.203 55.0863 64.0505 55.0863 64.0505C55.0863 68.4139 59.8518 70.0126 62.2314 71.8216C64.611 73.6307 68.3549 78.3097 71.3045 79.2683C73.7401 80.0544 76.5714 83.0384 77.4715 84.0379Z" fill="#CED7E7"/>
<path opacity="0.1" d="M77.7612 84.903C77.7612 84.903 74.4191 86.6039 71.809 86.7647C71.4674 86.7796 71.125 86.761 70.7874 86.7092C70.7874 86.7092 73.6685 84.6897 76.344 84.2776L77.7612 84.903Z" fill="black"/>
<path opacity="0.1" d="M84.5668 93.5742C84.5668 93.5742 80.3526 92.034 78.9603 94.3516C79.0071 93.2878 79.0257 92.4051 79.0257 92.4051L83.6199 91.5518C83.6199 91.5518 84.0622 92.3204 84.5792 93.355C84.5668 93.4923 84.5668 93.5742 84.5668 93.5742Z" fill="black"/>
<path d="M70.7874 86.7092C70.7874 86.7092 75.8363 83.8655 78.2627 84.1052C80.8074 84.3536 85.7379 84.5289 85.7379 84.5289C85.7379 84.5289 84.0373 88.147 84.2647 88.8923C84.492 89.6376 84.5481 93.2557 84.5481 93.2557C84.5481 93.2557 79.4462 91.394 78.5959 94.8514C78.5959 94.8514 75.8176 90.9673 73.9457 89.7954C72.7036 88.9533 71.6337 87.9078 70.7874 86.7092Z" fill="#63667E"/>
<path opacity="0.1" d="M99.3086 90.0117C97.8353 90.0117 92.6182 86.9226 91.4845 84.9031C90.3507 82.8836 88.7623 85.1135 87.289 85.8617C86.3546 86.341 82.6513 85.3385 80.6547 84.6108C81.667 83.9649 83.9096 82.1471 84.5668 81.7117C85.3579 81.1768 86.1553 72.5582 86.1553 72.5582C88.9896 71.1758 92.0514 83.7311 92.0514 83.7311C92.0514 83.7311 97.3837 85.2217 97.8353 86.2855C97.9225 86.4959 98.3243 86.87 98.9286 87.323C99.5515 88.7959 99.8941 90.0117 99.3086 90.0117Z" fill="black"/>
<path d="M99.3086 89.3716C97.8353 89.3716 92.6182 86.2854 91.4845 84.2659C90.3507 82.2464 88.7622 84.4763 87.289 85.2216C86.3546 85.7009 83.3863 84.7744 81.3898 84.0525C82.4021 83.4096 83.9096 81.5158 84.5668 81.0774C85.3579 80.5455 86.1553 71.9269 86.1553 71.9269C88.9896 70.5445 92.0513 83.0998 92.0513 83.0998C92.0513 83.0998 97.3837 84.5903 97.8353 85.6541C97.9225 85.8645 98.3243 86.2386 98.9286 86.6916C99.5515 88.1558 99.8941 89.3716 99.3086 89.3716Z" fill="#CED7E7"/>
<path d="M119.457 182.592L168.766 144.015C169.258 143.625 169.885 143.417 170.529 143.43L188.924 143.883C188.924 143.883 190.198 144.76 188.329 146.677L141.815 182.493C141.312 182.878 140.688 183.098 140.039 183.118L119.925 183.744C119.78 183.748 119.638 183.71 119.518 183.635C119.397 183.559 119.305 183.451 119.254 183.324C119.202 183.197 119.194 183.059 119.231 182.928C119.267 182.796 119.347 182.679 119.457 182.592Z" fill="#F0FC15"/>
<path d="M143.31 177.846C143.31 177.846 154.08 192.319 166.047 178.857C178.014 165.396 174.553 158.323 170.925 157.949C167.296 157.575 146.879 172.314 143.31 177.846Z" fill="#FFA2A2"/>
<path opacity="0.1" d="M215.953 15.9776C215.953 15.9776 229.836 -9.30243 246.244 3.73508C246.244 3.73508 249.826 4.95963 249.555 8.51345C249.555 8.51345 248.175 7.80327 247.079 10.5183C246.676 11.4817 246.153 12.397 245.521 13.2451C244.681 14.3907 243.468 15.2501 242.064 15.6942C242.064 15.6942 234.701 20.87 221.062 16.8778C221.062 16.8778 217.206 17.398 216.583 16.9479L221.065 13.8734C221.065 13.8734 223.342 17.0444 226.671 17.4068C226.671 17.4068 221.065 14.1043 221.706 13.3883C221.837 13.2421 224.161 11.8598 224.161 11.8598C224.161 11.8598 228.144 17.3571 233.309 17.7633C233.309 17.7633 226.073 14.6683 225.036 11.3337L228.671 9.43113C228.671 9.43113 232.577 15.437 238.442 16.1092C238.442 16.1092 230.997 12.6284 229.496 9.06581L233.343 7.65714C233.343 7.65714 237.277 13.4438 242.157 13.9728C242.157 13.9728 233.991 9.13595 234.246 7.38827C234.246 7.38827 237.862 6.29523 238.971 6.43844C238.971 6.43844 241.896 10.53 244.761 10.6031C244.761 10.6031 239.669 6.82714 240.005 6.24555C240.005 6.24555 245.119 5.99713 247.792 7.15739C247.792 7.15739 243.992 5.17297 240.005 5.49446C240.005 5.49446 241.808 3.5042 244.16 3.06581C244.16 3.06581 241.341 1.97863 238.765 5.56752C238.765 5.56752 234.788 5.90946 234.296 6.32446C234.296 6.32446 236.308 2.44331 238.784 0.792068C238.784 0.792068 235.093 1.40288 233.265 6.66348L229.365 7.99908C229.365 7.99908 231.736 2.73849 233.826 1.11355C233.826 1.11355 230.163 2.28257 228.412 8.41993L224.824 10.2494C224.824 10.2494 226.497 5.57336 228.406 3.29085C228.406 3.29085 225.257 5.06192 223.815 10.8077L221.572 12.2894C221.572 12.2894 222.859 8.89338 223.323 7.9494C223.787 7.00541 223.553 6.8096 223.553 6.8096C221.994 8.53893 220.978 10.6403 220.616 12.8797C220.616 12.8797 216.212 16.2115 215.953 15.9776Z" fill="#6C63FF"/>
<path opacity="0.1" d="M273.366 29.4972C273.366 29.4972 279.639 18.073 287.052 23.9648C287.052 23.9648 288.672 24.5172 288.547 26.1217C288.547 26.1217 287.924 25.8031 287.429 27.0306C287.25 27.4654 287.016 27.8784 286.732 28.261C286.353 28.7774 285.807 29.1657 285.174 29.3686C285.174 29.3686 281.845 31.7067 275.681 29.9034C275.681 29.9034 273.94 30.1372 273.659 29.9356L275.684 28.5445C275.684 28.5445 276.712 29.9794 278.219 30.1402C278.219 30.1402 275.69 28.6497 275.977 28.3253C276.033 28.261 277.082 27.6355 277.082 27.6355C277.082 27.6355 278.883 30.1197 281.219 30.3038C281.219 30.3038 277.948 28.9039 277.481 27.3813L279.126 26.525C279.126 26.525 280.888 29.24 283.539 29.544C283.539 29.544 280.175 27.9716 279.49 26.3613L281.228 25.7242C281.228 25.7242 283.003 28.3399 285.208 28.5795C285.208 28.5795 281.518 26.3935 281.636 25.6044C281.636 25.6044 283.268 25.1105 283.77 25.1748C283.77 25.1748 285.09 27.0247 286.386 27.054C286.386 27.054 284.084 25.3501 284.237 25.0871C284.237 25.0871 286.548 24.976 287.75 25.4992C287.75 25.4992 286.034 24.6019 284.237 24.7481C284.732 24.219 285.382 23.8371 286.106 23.6492C286.106 23.6492 284.832 23.1582 283.667 24.7802C283.667 24.7802 281.87 24.9351 281.648 25.1222C281.648 25.1222 282.558 23.3686 283.676 22.6234C283.676 22.6234 282.007 22.8981 281.184 25.277L279.44 25.8908C279.44 25.8908 280.508 23.5148 281.455 22.7783C281.455 22.7783 279.798 23.3073 279.007 26.0778L277.388 26.902C277.388 26.902 278.141 24.7861 279.004 23.7573C279.004 23.7573 277.581 24.5581 276.933 27.1533L275.917 27.8226C275.917 27.8226 276.5 26.2883 276.709 25.8616C276.917 25.4349 276.811 25.3472 276.811 25.3472C276.107 26.1313 275.648 27.0832 275.484 28.0973C275.484 28.0973 273.475 29.6024 273.366 29.4972Z" fill="#6C63FF"/>
<path opacity="0.1" d="M205.395 42.7892C205.395 42.7892 211.668 31.365 219.099 37.2568C219.099 37.2568 220.716 37.8092 220.594 39.4166C220.594 39.4166 219.971 39.0951 219.476 40.3226C219.296 40.7569 219.061 41.1698 218.778 41.553C218.395 42.0719 217.844 42.4605 217.206 42.6606C217.206 42.6606 213.879 44.9987 207.715 43.1954C207.715 43.1954 205.974 43.4322 205.694 43.2276L207.718 41.8365C207.718 41.8365 208.746 43.2714 210.25 43.4351C210.25 43.4351 207.721 41.9417 208.008 41.6173C208.067 41.553 209.117 40.9275 209.117 40.9275C209.117 40.9275 210.917 43.4117 213.25 43.5958C213.25 43.5958 209.983 42.1959 209.512 40.6733L211.157 39.8199C211.157 39.8199 212.923 42.532 215.573 42.836C215.573 42.836 212.21 41.2636 211.524 39.6533L213.262 39.0162C213.262 39.0162 215.041 41.6319 217.246 41.8715C217.246 41.8715 213.555 39.6855 213.67 38.8964C213.67 38.8964 215.306 38.4025 215.807 38.4668C215.807 38.4668 217.128 40.3167 218.423 40.3489C218.423 40.3489 216.122 38.6421 216.274 38.3791C216.274 38.3791 218.582 38.268 219.788 38.7912C219.788 38.7912 218.068 37.8939 216.271 38.0401C216.767 37.511 217.416 37.1291 218.14 36.9412C218.14 36.9412 216.869 36.4502 215.704 38.0722C215.704 38.0722 213.907 38.2271 213.686 38.4141C213.686 38.4141 214.592 36.6606 215.714 35.9154C215.714 35.9154 214.044 36.1901 213.222 38.569L211.456 39.1828C211.456 39.1828 212.527 36.8067 213.471 36.0732C213.471 36.0732 211.817 36.5992 211.026 39.3698L209.403 40.194C209.403 40.194 210.16 38.0781 211.023 37.0493C211.023 37.0493 209.6 37.8501 208.949 40.4453L207.933 41.1146C207.933 41.1146 208.516 39.5802 208.724 39.1536C208.933 38.7269 208.83 38.6392 208.83 38.6392C208.124 39.4225 207.665 40.3748 207.503 41.3893C207.503 41.3893 205.504 42.8944 205.395 42.7892Z" fill="#6C63FF"/>
</g>
<defs>
<clipPath id="clip0_37_391">
<rect width="334" height="228" fill="white"/>
</clipPath>
</defs>
</svg>
