<svg width="334" height="228" viewBox="0 0 334 228" fill="none" xmlns="http://www.w3.org/2000/svg">
<g clip-path="url(#clip0_37_496)">
<path d="M195.534 211.578C204.046 211.578 210.946 204.693 210.946 196.2C210.946 187.707 204.046 180.822 195.534 180.822C187.022 180.822 180.122 187.707 180.122 196.2C180.122 204.693 187.022 211.578 195.534 211.578Z" fill="#2115FC"/>
<path d="M287.605 210.714C296.227 208.13 305.394 205.436 312.232 199.294C318.342 193.805 322.467 185.424 319.936 177.192C317.409 168.978 309.843 163.5 302.031 160.776C297.6 159.231 292.964 158.374 288.33 157.7C283.293 156.968 278.234 156.369 273.176 155.792C252.699 153.455 232.145 152.027 211.514 151.509C201.334 151.253 191.156 151.259 180.975 151.407C171.882 151.538 162.305 151.535 153.87 147.679C147.311 144.68 141.357 139.225 139.529 132.055C137.42 123.78 141.311 115.352 146.894 109.359C149.836 106.2 153.275 103.541 156.823 101.096C160.672 98.4431 164.655 95.9785 168.724 93.6779C176.738 89.149 185.117 85.2946 193.774 82.1548C198.044 80.6055 202.378 79.2688 206.749 78.0357C210.44 76.9944 214.143 75.9517 217.71 74.533C224.606 71.7905 231.166 67.1449 232.919 59.5288C234.581 52.3107 231.779 44.4748 226.867 39.1125C221.183 32.9088 212.614 30.1893 204.399 29.7493C195.176 29.2553 186.165 31.5585 177.496 34.4817C168.25 37.5994 159.203 41.1843 149.762 43.7096C140.4 46.2114 130.856 47.9815 121.218 49.0039C116.5 49.5052 111.639 50.0712 106.893 49.6875C102.915 49.3658 98.9579 48.1985 96.0264 45.3817C93.5127 42.9664 92.0153 39.647 92.5301 36.144C92.6236 35.5078 93.5923 35.7783 93.4993 36.4106C92.8727 40.6748 95.7776 44.604 99.3572 46.6168C103.494 48.943 108.529 48.9462 113.135 48.6801C123.122 48.0782 133.041 46.6474 142.791 44.4025C152.37 42.2192 161.608 39.0982 170.835 35.7643C179.598 32.5979 188.557 29.5075 197.919 28.8216C206.043 28.2265 214.588 29.4074 221.665 33.6434C227.885 37.3662 232.458 43.5747 233.916 50.6991C235.34 57.6609 233.367 64.6681 228.086 69.5263C222.618 74.5564 215.12 76.7069 208.132 78.6875C199.27 81.1996 190.597 84.1361 182.203 87.9489C173.694 91.8027 165.533 96.3804 157.812 101.631C150.358 106.714 143.003 113.108 140.645 122.175C139.547 126.398 139.75 130.878 141.587 134.867C143.221 138.414 145.912 141.397 149.046 143.699C156.524 149.189 165.95 150.317 174.983 150.429C185.128 150.555 195.274 150.213 205.423 150.38C226.106 150.718 246.746 151.974 267.344 154.148C272.506 154.693 277.661 155.296 282.809 155.956C287.44 156.549 292.086 157.139 296.639 158.194C304.734 160.069 312.612 163.674 317.643 170.522C319.876 173.491 321.26 177.009 321.646 180.701C321.998 184.553 321.053 188.413 319.307 191.84C315.444 199.426 308.206 204.25 300.521 207.42C296.404 209.118 292.134 210.404 287.872 211.681C287.251 211.867 286.986 210.9 287.605 210.714L287.605 210.714Z" fill="#F2F2F2"/>
<path d="M93.1791 44.2577C97.62 44.2577 101.22 40.6655 101.22 36.2343C101.22 31.8031 97.62 28.2109 93.1791 28.2109C88.7382 28.2109 85.1382 31.8031 85.1382 36.2343C85.1382 40.6655 88.7382 44.2577 93.1791 44.2577Z" fill="#F2F2F2"/>
<path d="M148.963 59.4686C153.404 59.4686 157.004 55.8764 157.004 51.4452C157.004 47.0141 153.404 43.4219 148.963 43.4219C144.522 43.4219 140.922 47.0141 140.922 51.4452C140.922 55.8764 144.522 59.4686 148.963 59.4686Z" fill="#F2F2F2"/>
<path d="M196.204 29.0467C200.645 29.0467 204.245 25.4545 204.245 21.0234C204.245 16.5922 200.645 13 196.204 13C191.763 13 188.163 16.5922 188.163 21.0234C188.163 25.4545 191.763 29.0467 196.204 29.0467Z" fill="#F2F2F2"/>
<path d="M225.687 63.146C230.128 63.146 233.728 59.5538 233.728 55.1226C233.728 50.6914 230.128 47.0992 225.687 47.0992C221.247 47.0992 217.646 50.6914 217.646 55.1226C217.646 59.5538 221.247 63.146 225.687 63.146Z" fill="#F2F2F2"/>
<path d="M185.818 102.594C190.259 102.594 193.859 99.002 193.859 94.5709C193.859 90.1397 190.259 86.5475 185.818 86.5475C181.377 86.5475 177.777 90.1397 177.777 94.5709C177.777 99.002 181.377 102.594 185.818 102.594Z" fill="#F2F2F2"/>
<path d="M135.227 121.65C139.668 121.65 143.268 118.058 143.268 113.626C143.268 109.195 139.668 105.603 135.227 105.603C130.786 105.603 127.186 109.195 127.186 113.626C127.186 118.058 130.786 121.65 135.227 121.65Z" fill="#F2F2F2"/>
<path d="M188.833 151.403C193.274 151.403 196.874 147.811 196.874 143.38C196.874 138.949 193.274 135.356 188.833 135.356C184.392 135.356 180.792 138.949 180.792 143.38C180.792 147.811 184.392 151.403 188.833 151.403Z" fill="#F2F2F2"/>
<path d="M246.46 168.118C250.901 168.118 254.501 164.526 254.501 160.095C254.501 155.664 250.901 152.072 246.46 152.072C242.019 152.072 238.419 155.664 238.419 160.095C238.419 164.526 242.019 168.118 246.46 168.118Z" fill="#F2F2F2"/>
<path d="M313.803 164.441C318.244 164.441 321.844 160.849 321.844 156.418C321.844 151.986 318.244 148.394 313.803 148.394C309.362 148.394 305.762 151.986 305.762 156.418C305.762 160.849 309.362 164.441 313.803 164.441Z" fill="#F2F2F2"/>
<path d="M193.883 35.7339C169.796 35.9037 150.074 55.4346 149.732 79.4668C149.729 79.6886 149.728 81.2488 149.728 83.2893C149.728 86.2812 150.919 89.1505 153.039 91.2661C155.159 93.3817 158.035 94.5705 161.033 94.5708H161.033C162.52 94.5705 163.991 94.2779 165.364 93.7098C166.737 93.1418 167.985 92.3093 169.035 91.26C170.086 90.2107 170.919 88.9652 171.487 87.5945C172.054 86.2239 172.346 84.7551 172.345 83.272C172.344 81.8839 172.343 80.9232 172.343 80.8642C172.342 77.1501 173.31 73.4997 175.152 70.2722C176.994 67.0447 179.646 64.3512 182.848 62.4567C186.05 60.5622 189.69 59.5319 193.412 59.4672C197.134 59.4026 200.808 60.3057 204.074 62.0878C207.34 63.87 210.085 66.4697 212.038 69.6312C213.992 72.7928 215.087 76.4073 215.215 80.1192C215.344 83.8311 214.502 87.5126 212.773 90.8014C211.043 94.0902 208.485 96.8732 205.351 98.8765L205.355 98.8812C205.355 98.8812 189.264 109.218 184.358 123.398L184.362 123.399C183.499 126.304 183.062 129.318 183.064 132.347C183.064 133.593 183.138 144.49 183.279 153.334C183.329 156.386 184.579 159.296 186.76 161.436C188.94 163.577 191.877 164.776 194.935 164.775H194.936C196.473 164.775 197.994 164.472 199.413 163.883C200.832 163.294 202.121 162.43 203.204 161.343C204.287 160.255 205.145 158.964 205.726 157.544C206.308 156.125 206.602 154.605 206.593 153.071C206.544 144.971 206.517 135.539 206.517 134.855C206.517 126.148 214.935 117.473 221.85 111.815C229.812 105.301 235.542 96.4228 237.843 86.4082C238.353 84.3464 238.633 82.235 238.681 80.112C238.681 74.2571 237.52 68.46 235.264 63.0548C233.009 57.6496 229.704 52.7431 225.54 48.618C221.376 44.4929 216.435 41.2308 211.002 39.0195C205.569 36.8083 199.751 35.6917 193.883 35.7339Z" fill="#2115FC"/>
<path d="M333.601 212H51.3989C51.2933 212 51.1922 211.958 51.1176 211.883C51.043 211.808 51.0012 211.707 51.0012 211.602C51.0012 211.497 51.043 211.396 51.1176 211.321C51.1922 211.246 51.2933 211.204 51.3989 211.204H333.601C333.707 211.204 333.808 211.246 333.883 211.321C333.958 211.395 334 211.496 334 211.602C334 211.708 333.958 211.809 333.883 211.884C333.808 211.958 333.707 212 333.601 212Z" fill="#3F3D56"/>
<path d="M261.555 104.264C267.107 104.264 271.607 99.7742 271.607 94.2353C271.607 88.6963 267.107 84.2061 261.555 84.2061C256.004 84.2061 251.504 88.6963 251.504 94.2353C251.504 99.7742 256.004 104.264 261.555 104.264Z" fill="#2F2E41"/>
<path d="M242.982 207.61H238.875L236.92 191.801H242.983L242.982 207.61Z" fill="#A0616A"/>
<path d="M235.941 206.439H243.862V211.415H230.953C230.953 210.762 231.082 210.115 231.333 209.511C231.583 208.907 231.951 208.358 232.414 207.896C232.877 207.434 233.427 207.068 234.032 206.817C234.637 206.567 235.286 206.439 235.941 206.439Z" fill="#2F2E41"/>
<path d="M274.811 207.61H270.703L268.749 191.801H274.812L274.811 207.61Z" fill="#A0616A"/>
<path d="M267.769 206.439H275.691V211.415H262.782C262.782 210.762 262.911 210.115 263.161 209.511C263.412 208.907 263.779 208.358 264.243 207.896C264.706 207.434 265.256 207.068 265.861 206.817C266.466 206.567 267.114 206.439 267.769 206.439Z" fill="#2F2E41"/>
<path d="M260.028 104.323C264.573 104.323 268.257 100.647 268.257 96.112C268.257 91.5773 264.573 87.9011 260.028 87.9011C255.483 87.9011 251.799 91.5773 251.799 96.112C251.799 100.647 255.483 104.323 260.028 104.323Z" fill="#A0616A"/>
<path d="M264.933 130.812L268.615 122.37C269.509 120.39 269.765 118.182 269.348 116.05C268.931 113.918 267.861 111.968 266.286 110.469C265.963 110.15 265.619 109.852 265.258 109.577C263.441 108.158 261.202 107.385 258.895 107.38C257.344 107.386 255.813 107.726 254.406 108.376C254.285 108.43 254.168 108.487 254.047 108.544C253.816 108.654 253.588 108.774 253.367 108.898C251.925 109.724 250.697 110.877 249.784 112.264C248.87 113.651 248.296 115.232 248.107 116.881L246.482 130.467C246.073 131.534 231.492 170.046 236.592 199.448C236.646 199.762 236.799 200.051 237.03 200.271C237.26 200.492 237.555 200.634 237.872 200.675L243.041 201.377C243.419 201.429 243.802 201.336 244.113 201.117C244.425 200.898 244.641 200.569 244.72 200.197L253.394 158.94C253.448 158.684 253.587 158.453 253.788 158.285C253.989 158.116 254.241 158.02 254.503 158.011C254.765 158.002 255.023 158.081 255.235 158.236C255.447 158.39 255.601 158.611 255.672 158.863L267.928 202.25C268.015 202.565 268.204 202.843 268.465 203.041C268.725 203.239 269.044 203.346 269.372 203.346C269.47 203.346 269.567 203.337 269.664 203.319L275.979 202.106C276.346 202.037 276.674 201.835 276.899 201.537C277.124 201.24 277.23 200.869 277.195 200.498C276.267 190.171 271.335 138.444 264.933 130.812Z" fill="#2F2E41"/>
<path d="M228.048 102.945C227.991 103.433 228.042 103.928 228.197 104.394C228.353 104.861 228.608 105.288 228.947 105.645C229.285 106.002 229.698 106.281 230.156 106.461C230.614 106.642 231.106 106.72 231.598 106.691L236.198 117.72L239.677 112.574L234.776 102.889C234.671 102.068 234.268 101.314 233.644 100.77C233.019 100.225 232.216 99.9286 231.387 99.9355C230.558 99.9425 229.76 100.253 229.144 100.807C228.529 101.362 228.139 102.123 228.048 102.945L228.048 102.945Z" fill="#A0616A"/>
<path d="M259.572 141.917C260.061 141.859 260.531 141.695 260.949 141.435C261.368 141.176 261.724 140.828 261.993 140.417C262.263 140.005 262.438 139.54 262.507 139.053C262.577 138.566 262.538 138.071 262.395 137.601L272.073 130.567L266.246 128.39L257.949 135.403C257.174 135.696 256.533 136.262 256.148 136.995C255.763 137.728 255.661 138.576 255.861 139.379C256.061 140.182 256.549 140.884 257.233 141.352C257.917 141.82 258.749 142.021 259.572 141.917Z" fill="#A0616A"/>
<path d="M243.795 125.073C243.424 125.073 243.054 125.037 242.69 124.965C241.81 124.797 240.984 124.417 240.286 123.856C239.588 123.296 239.039 122.572 238.687 121.75L232.243 113.909C232.107 113.744 232.008 113.551 231.952 113.344C231.897 113.136 231.886 112.92 231.922 112.708C231.957 112.497 232.037 112.295 232.157 112.117C232.276 111.939 232.433 111.789 232.615 111.676L237.2 108.844C237.369 108.74 237.558 108.669 237.754 108.638C237.951 108.606 238.152 108.614 238.345 108.66C238.539 108.707 238.721 108.791 238.882 108.908C239.043 109.025 239.179 109.172 239.282 109.342L243.824 116.809L252.523 110.395C253.215 110.032 254.015 109.931 254.777 110.108C255.538 110.286 256.21 110.731 256.67 111.362C257.129 111.993 257.346 112.768 257.281 113.546C257.215 114.323 256.871 115.051 256.312 115.597L247.63 123.499C246.61 124.508 245.232 125.074 243.795 125.073Z" fill="#2F2E41"/>
<path d="M267.298 136.865C267.287 136.865 267.275 136.865 267.263 136.865C267.052 136.86 266.844 136.81 266.652 136.72C266.461 136.629 266.291 136.5 266.154 136.34L262.078 131.595C261.939 131.433 261.836 131.244 261.776 131.04C261.715 130.836 261.699 130.621 261.729 130.41C261.758 130.199 261.831 129.997 261.945 129.817C262.058 129.636 262.208 129.482 262.386 129.364L270.019 124.287L263.104 115.992C262.702 115.323 262.554 114.532 262.688 113.763C262.822 112.994 263.229 112.299 263.834 111.805C264.439 111.311 265.203 111.051 265.984 111.071C266.766 111.092 267.514 111.393 268.092 111.919L276.496 120.114C277.157 120.717 277.662 121.471 277.967 122.311C278.272 123.152 278.368 124.054 278.247 124.939C278.126 125.825 277.791 126.668 277.272 127.396C276.752 128.125 276.063 128.716 275.264 129.12L268.396 136.393C268.255 136.542 268.084 136.661 267.896 136.742C267.707 136.823 267.504 136.865 267.298 136.865Z" fill="#2F2E41"/>
<path d="M257.936 119.381C257.87 119.381 257.805 119.377 257.74 119.369C257.456 119.334 257.188 119.219 256.968 119.038C256.747 118.856 256.584 118.615 256.497 118.343L253.434 108.972C253.357 108.736 253.369 108.479 253.467 108.25C253.565 108.021 253.743 107.835 253.968 107.727L254.067 107.68C254.157 107.638 254.247 107.595 254.338 107.555C255.766 106.894 257.321 106.549 258.895 106.544C260.939 106.548 262.938 107.147 264.645 108.268C264.874 108.42 265.034 108.656 265.09 108.924C265.147 109.193 265.095 109.473 264.947 109.704L259.201 118.686C259.066 118.899 258.88 119.075 258.658 119.196C258.437 119.318 258.188 119.382 257.936 119.381Z" fill="#E6E6E6"/>
<path d="M269.48 89.7578C271.296 89.7578 272.769 88.2885 272.769 86.476C272.769 84.6635 271.296 83.1942 269.48 83.1942C267.663 83.1942 266.191 84.6635 266.191 86.476C266.191 88.2885 267.663 89.7578 269.48 89.7578Z" fill="#2F2E41"/>
<path d="M258.205 82.8688C255.895 82.8688 253.679 83.7845 252.045 85.4146C250.412 87.0446 249.494 89.2555 249.494 91.5607V95.2381H254.027L256.195 91.5607L256.845 95.2381H270.602L266.916 91.5607C266.916 89.2555 265.998 87.0446 264.365 85.4146C262.731 83.7845 260.515 82.8688 258.205 82.8688Z" fill="#2F2E41"/>
<path d="M271.17 84.2281C271.534 83.0933 272.287 82.1228 273.297 81.4872C274.307 80.8516 275.509 80.5915 276.692 80.7528C278.788 81.1024 280.445 82.7836 281.433 84.6612C282.42 86.5389 282.876 88.6403 283.54 90.6546C284.204 92.669 285.145 94.6943 286.821 95.9982C288.497 97.3021 291.068 97.6558 292.714 96.3145C292.526 97.7124 291.902 99.016 290.931 100.041C289.96 101.066 288.69 101.76 287.302 102.025C285.914 102.291 284.477 102.114 283.195 101.52C281.913 100.926 280.85 99.9448 280.158 98.7152C279.289 97.1735 279.065 95.3665 278.808 93.6167C278.55 91.8669 278.216 90.0564 277.179 88.622C276.142 87.1876 274.201 86.2508 272.554 86.9041L271.17 84.2281Z" fill="#2F2E41"/>
<path d="M164.226 89.2349C161.227 89.2345 158.352 88.0458 156.231 85.9302C154.111 83.8145 152.92 80.9452 152.92 77.9533C152.92 75.9128 152.921 74.3527 152.924 74.1308C153.02 67.1416 154.784 60.2758 158.07 54.1029C152.671 61.4787 149.702 70.3466 149.574 79.4797C149.571 79.7016 149.569 81.2617 149.57 83.3023C149.57 86.2941 150.761 89.1634 152.881 91.2791C155.001 93.3947 157.877 94.5834 160.875 94.5838C163.339 94.5828 165.735 93.7795 167.7 92.2957C169.664 90.8119 171.09 88.7289 171.76 86.363C169.69 88.2153 167.006 89.2382 164.226 89.2349Z" fill="#3F3D56"/>
<path d="M194.649 59.5052C198.116 59.6704 201.49 60.6726 204.483 62.4257C207.476 64.1788 209.997 66.6305 211.831 69.5702C213.665 72.5099 214.757 75.8498 215.012 79.3032C215.267 82.7565 214.679 86.2201 213.297 89.3966C215.296 87.0547 216.765 84.3103 217.604 81.3505C218.443 78.3908 218.633 75.2853 218.16 72.2458C217.687 69.2063 216.563 66.3042 214.865 63.7374C213.166 61.1706 210.933 58.9994 208.317 57.3719C205.701 55.7444 202.765 54.6988 199.707 54.3065C196.65 53.9141 193.543 54.1842 190.6 55.0983C187.657 56.0124 184.945 57.549 182.651 59.6034C180.357 61.6578 178.533 64.1817 177.305 67.003C179.428 64.5115 182.096 62.5398 185.103 61.2398C188.11 59.9398 191.376 59.3464 194.649 59.5052Z" fill="#3F3D56"/>
<path d="M198.128 159.439C195.069 159.44 192.132 158.241 189.952 156.1C187.771 153.96 186.521 151.05 186.472 147.998C186.33 139.154 186.256 128.257 186.256 127.011C186.254 123.982 186.691 120.968 187.554 118.063L187.55 118.062C188.059 116.604 188.675 115.185 189.391 113.816C187.192 116.739 185.443 119.973 184.2 123.411L184.204 123.412C183.341 126.316 182.904 129.331 182.906 132.36C182.906 133.606 182.979 144.503 183.121 153.347C183.171 156.399 184.421 159.309 186.601 161.449C188.782 163.59 191.718 164.789 194.777 164.788C197.299 164.788 199.753 163.971 201.771 162.461C203.789 160.952 205.261 158.83 205.968 156.414C203.825 158.364 201.028 159.443 198.128 159.439Z" fill="#3F3D56"/>
<path d="M93.3963 207.762L97.5036 207.762L99.4579 191.953L93.3953 191.953L93.3963 207.762Z" fill="#FFB8B8"/>
<path d="M105.425 211.567L92.5161 211.568L92.5159 206.591L100.438 206.591C101.76 206.591 103.029 207.115 103.964 208.048C104.9 208.982 105.425 210.247 105.425 211.567L105.425 211.567Z" fill="#2F2E41"/>
<path d="M78.6545 207.762L82.7618 207.762L84.7161 191.953L78.6535 191.953L78.6545 207.762Z" fill="#FFB8B8"/>
<path d="M90.6837 211.567L77.7744 211.568L77.7742 206.591L85.6958 206.591C87.0186 206.591 88.2873 207.115 89.2227 208.048C90.1581 208.982 90.6837 210.247 90.6837 211.567L90.6837 211.567Z" fill="#2F2E41"/>
<path d="M82.2439 202.9L78.2318 202.69C78.025 202.679 77.8223 202.627 77.6356 202.537C77.4489 202.448 77.2818 202.322 77.1441 202.168C77.0064 202.013 76.9008 201.833 76.8334 201.638C76.766 201.442 76.7382 201.235 76.7515 201.029L81.5468 148.053L103.63 153.999L105.757 153.419L99.1038 200.318C99.0472 200.67 98.8716 200.993 98.6061 201.233C98.3406 201.473 98.0011 201.615 97.6437 201.636L93.3187 201.837C93.1024 201.849 92.886 201.816 92.6832 201.741C92.4803 201.665 92.2954 201.548 92.1401 201.397C91.9848 201.247 91.8626 201.066 91.781 200.865C91.6995 200.665 91.6605 200.45 91.6664 200.234L92.4501 172.087C92.4538 171.957 92.4084 171.83 92.3231 171.731C92.2377 171.633 92.1184 171.57 91.9888 171.555C91.8592 171.54 91.7286 171.574 91.6228 171.65C91.517 171.726 91.4436 171.839 91.4171 171.966L83.8596 201.657C83.7883 202.009 83.5967 202.326 83.3176 202.553C83.0384 202.78 82.689 202.904 82.3288 202.902C82.3007 202.902 82.2724 202.902 82.2439 202.9Z" fill="#2F2E41"/>
<path d="M94.1337 104.707C98.6784 104.707 102.363 101.031 102.363 96.4961C102.363 91.9613 98.6784 88.2852 94.1337 88.2852C89.589 88.2852 85.9048 91.9613 85.9048 96.4961C85.9048 101.031 89.589 104.707 94.1337 104.707Z" fill="#FFB8B8"/>
<path d="M80.4331 120.619L81.3379 140.098L81.665 147.185C81.678 147.494 81.783 147.791 81.9665 148.04C82.15 148.289 82.4036 148.477 82.695 148.581L103.915 156.251C104.087 156.315 104.268 156.347 104.451 156.345C104.66 156.346 104.867 156.305 105.06 156.224C105.253 156.144 105.427 156.025 105.573 155.876C105.719 155.726 105.833 155.549 105.909 155.355C105.984 155.16 106.02 154.953 106.014 154.744L105.144 119.72C105.086 116.846 104.026 114.083 102.146 111.905C100.266 109.728 97.683 108.274 94.8432 107.793C94.638 107.762 94.4291 107.73 94.2203 107.703C92.4594 107.484 90.6719 107.654 88.9838 108.199C87.2956 108.745 85.7476 109.652 84.4489 110.859C83.104 112.093 82.0473 113.607 81.3534 115.293C80.6595 116.98 80.3453 118.798 80.4331 120.619L80.4331 120.619Z" fill="#CCCCCC"/>
<path d="M114.052 152.364C113.55 152.209 113.091 151.939 112.713 151.575C112.334 151.211 112.046 150.764 111.871 150.27C111.697 149.775 111.64 149.247 111.706 148.727C111.773 148.207 111.96 147.709 112.253 147.274L105.057 137.726L111.267 137.343L117.148 146.468C117.778 146.954 118.216 147.645 118.386 148.421C118.556 149.197 118.446 150.008 118.077 150.711C117.707 151.415 117.102 151.966 116.366 152.268C115.63 152.57 114.811 152.605 114.052 152.364H114.052Z" fill="#FFB8B8"/>
<path d="M108.992 145.546C108.802 145.469 108.628 145.355 108.482 145.21C108.336 145.066 108.22 144.894 108.141 144.704L97.2997 118.931C97.087 118.427 96.976 117.885 96.9731 117.338C96.9702 116.79 97.0755 116.248 97.2829 115.741C97.4903 115.234 97.7957 114.773 98.1818 114.384C98.5678 113.995 99.0269 113.686 99.5328 113.474C100.039 113.262 100.581 113.152 101.13 113.149C101.679 113.147 102.222 113.252 102.73 113.459C103.238 113.667 103.7 113.972 104.089 114.357C104.479 114.743 104.788 115.201 105 115.706L115.842 141.48C116.002 141.862 116.004 142.292 115.847 142.675C115.69 143.059 115.387 143.364 115.004 143.525L110.191 145.541C110.001 145.621 109.798 145.662 109.592 145.663C109.387 145.664 109.183 145.624 108.992 145.546L108.992 145.546Z" fill="#CCCCCC"/>
<path d="M91.4881 144.637L101.901 124.743C102.102 124.36 102.446 124.073 102.859 123.944C103.272 123.814 103.72 123.854 104.104 124.053L119.218 131.93C119.601 132.13 119.889 132.474 120.019 132.886C120.149 133.298 120.109 133.745 119.909 134.128L109.496 154.022C109.296 154.404 108.951 154.692 108.538 154.821C108.125 154.951 107.677 154.911 107.294 154.712L92.1794 146.835C91.796 146.635 91.5078 146.291 91.3782 145.879C91.2486 145.467 91.2881 145.02 91.4881 144.637Z" fill="#F0FC15"/>
<path d="M98.4712 135.548C98.2861 135.057 97.9886 134.617 97.6025 134.261C97.2163 133.905 96.7522 133.645 96.2471 133.5C95.7421 133.355 95.2101 133.33 94.6936 133.427C94.1771 133.523 93.6905 133.739 93.2724 134.057L83.2955 127.453L83.2785 133.661L92.7554 138.98C93.2785 139.579 93.9961 139.974 94.7824 140.098C95.5686 140.221 96.3732 140.064 97.0552 139.655C97.7371 139.245 98.2527 138.609 98.5117 137.858C98.7706 137.107 98.7563 136.289 98.4712 135.548Z" fill="#FFB8B8"/>
<path d="M85.857 136.944L77.7032 130.499C76.8211 130.204 76.0241 129.699 75.3805 129.029C74.737 128.358 74.2661 127.542 74.0083 126.65C73.7506 125.757 73.7136 124.816 73.9006 123.907C74.0876 122.997 74.4931 122.147 75.0821 121.428L82.4855 111.747C83 111.119 83.7235 110.698 84.5239 110.559C85.3242 110.42 86.1479 110.573 86.8444 110.99C87.5409 111.408 88.0636 112.061 88.317 112.831C88.5704 113.601 88.5376 114.437 88.2246 115.185L82.3668 124.746L90.9753 128.82C91.1755 128.915 91.3533 129.051 91.4968 129.219C91.6404 129.387 91.7466 129.584 91.8083 129.797C91.87 130.009 91.8858 130.232 91.8547 130.451C91.8237 130.67 91.7464 130.88 91.628 131.066L88.1531 136.554C88.0356 136.739 87.8805 136.897 87.6977 137.019C87.5149 137.141 87.3086 137.223 87.0921 137.259C87.0835 137.261 87.0748 137.262 87.0662 137.264C86.8535 137.296 86.6364 137.284 86.4284 137.229C86.2204 137.174 86.026 137.077 85.857 136.944Z" fill="#CCCCCC"/>
<path d="M87.9157 101.994C87.8804 101.891 87.8692 101.781 87.883 101.673C87.8968 101.565 87.9351 101.462 87.9952 101.371C88.0552 101.28 88.1353 101.204 88.2293 101.149C88.3234 101.093 88.4288 101.06 88.5377 101.052C88.7606 101.064 88.9787 101.121 89.1788 101.219C89.379 101.318 89.5571 101.456 89.7023 101.625C90.0001 101.968 90.3468 102.265 90.7313 102.507C91.1293 102.707 91.6692 102.678 91.8962 102.297C92.1093 101.938 91.9632 101.458 91.8342 101.042C91.506 99.9826 91.3223 98.884 91.2881 97.7757C91.251 96.5387 91.4259 95.2477 92.1123 94.2828C92.9981 93.0376 94.582 92.5649 96.0809 92.5992C97.5799 92.6334 99.0546 93.0952 100.539 93.387C101.052 93.4878 101.654 93.5393 101.997 93.1429C102.362 92.7214 102.228 92.0392 102.073 91.4701C101.671 89.9933 101.244 88.4665 100.309 87.2738C99.298 86.0345 97.8541 85.2234 96.268 85.0038C94.7452 84.8156 93.1993 84.9907 91.7576 85.5147C89.4085 86.2535 87.3416 87.6903 85.8331 89.6329C84.2781 91.6989 83.6061 94.2951 83.9642 96.854C84.314 99.0827 85.4976 101.096 87.2763 102.489L87.9157 101.994Z" fill="#2F2E41"/>
<path d="M192.138 207.827C189.949 206.876 188.011 205.43 186.478 203.603C184.945 201.776 183.858 199.619 183.303 197.301C182.749 194.984 182.741 192.569 183.282 190.248C183.823 187.928 184.897 185.764 186.419 183.928C184.654 185.214 183.183 186.86 182.104 188.756C181.026 190.653 180.363 192.756 180.162 194.928C179.96 197.099 180.223 199.288 180.934 201.35C181.645 203.412 182.788 205.3 184.286 206.888C185.784 208.475 187.603 209.727 189.623 210.56C191.643 211.392 193.817 211.787 196.001 211.717C198.186 211.647 200.33 211.114 202.292 210.154C204.254 209.193 205.989 207.828 207.382 206.147C205.21 207.732 202.659 208.721 199.985 209.015C197.31 209.31 194.605 208.9 192.138 207.827Z" fill="#3F3D56"/>
</g>
<defs>
<clipPath id="clip0_37_496">
<rect width="334" height="228" fill="white"/>
</clipPath>
</defs>
</svg>
