<svg width="334" height="228" viewBox="0 0 334 228" fill="none" xmlns="http://www.w3.org/2000/svg">
<g clip-path="url(#clip0_37_542)">
<path d="M337.437 227.949H-46.0814C-46.2165 227.949 -46.346 227.887 -46.4415 227.777C-46.5369 227.666 -46.5905 227.517 -46.5905 227.362C-46.5905 227.206 -46.5369 227.057 -46.4415 226.947C-46.346 226.837 -46.2165 226.775 -46.0814 226.775H337.437C337.572 226.775 337.702 226.837 337.797 226.947C337.892 227.057 337.946 227.206 337.946 227.362C337.946 227.517 337.892 227.666 337.797 227.777C337.702 227.887 337.572 227.949 337.437 227.949Z" fill="#3F3D56"/>
<path d="M73.6375 28.3339C75.1691 28.3339 76.4108 26.9058 76.4108 25.1443C76.4108 23.3827 75.1691 21.9547 73.6375 21.9547C72.1058 21.9547 70.8641 23.3827 70.8641 25.1443C70.8641 26.9058 72.1058 28.3339 73.6375 28.3339Z" fill="#F2F2F2"/>
<path d="M62.5846 28.3339C64.1162 28.3339 65.3579 26.9058 65.3579 25.1443C65.3579 23.3827 64.1162 21.9547 62.5846 21.9547C61.0529 21.9547 59.8112 23.3827 59.8112 25.1443C59.8112 26.9058 61.0529 28.3339 62.5846 28.3339Z" fill="#F2F2F2"/>
<path d="M51.5317 28.3339C53.0633 28.3339 54.305 26.9058 54.305 25.1443C54.305 23.3827 53.0633 21.9547 51.5317 21.9547C50 21.9547 48.7583 23.3827 48.7583 25.1443C48.7583 26.9058 50 28.3339 51.5317 28.3339Z" fill="#F2F2F2"/>
<path d="M40.4788 28.3339C42.0105 28.3339 43.2521 26.9058 43.2521 25.1443C43.2521 23.3827 42.0105 21.9547 40.4788 21.9547C38.9471 21.9547 37.7055 23.3827 37.7055 25.1443C37.7055 26.9058 38.9471 28.3339 40.4788 28.3339Z" fill="#F2F2F2"/>
<path d="M73.6375 41.6508C75.1691 41.6508 76.4108 40.2227 76.4108 38.4612C76.4108 36.6996 75.1691 35.2716 73.6375 35.2716C72.1058 35.2716 70.8641 36.6996 70.8641 38.4612C70.8641 40.2227 72.1058 41.6508 73.6375 41.6508Z" fill="#F2F2F2"/>
<path d="M62.5846 41.6508C64.1162 41.6508 65.3579 40.2227 65.3579 38.4612C65.3579 36.6996 64.1162 35.2716 62.5846 35.2716C61.0529 35.2716 59.8112 36.6996 59.8112 38.4612C59.8112 40.2227 61.0529 41.6508 62.5846 41.6508Z" fill="#F2F2F2"/>
<path d="M51.5317 41.6508C53.0633 41.6508 54.305 40.2227 54.305 38.4612C54.305 36.6996 53.0633 35.2716 51.5317 35.2716C50 35.2716 48.7583 36.6996 48.7583 38.4612C48.7583 40.2227 50 41.6508 51.5317 41.6508Z" fill="#F2F2F2"/>
<path d="M40.4788 41.6508C42.0105 41.6508 43.2521 40.2227 43.2521 38.4612C43.2521 36.6996 42.0105 35.2716 40.4788 35.2716C38.9471 35.2716 37.7055 36.6996 37.7055 38.4612C37.7055 40.2227 38.9471 41.6508 40.4788 41.6508Z" fill="#F2F2F2"/>
<path d="M73.6375 54.9677C75.1691 54.9677 76.4108 53.5396 76.4108 51.7781C76.4108 50.0165 75.1691 48.5885 73.6375 48.5885C72.1058 48.5885 70.8641 50.0165 70.8641 51.7781C70.8641 53.5396 72.1058 54.9677 73.6375 54.9677Z" fill="#F2F2F2"/>
<path d="M62.5846 54.9677C64.1162 54.9677 65.3579 53.5396 65.3579 51.7781C65.3579 50.0165 64.1162 48.5885 62.5846 48.5885C61.0529 48.5885 59.8112 50.0165 59.8112 51.7781C59.8112 53.5396 61.0529 54.9677 62.5846 54.9677Z" fill="#F2F2F2"/>
<path d="M51.5317 54.9677C53.0633 54.9677 54.305 53.5396 54.305 51.7781C54.305 50.0165 53.0633 48.5885 51.5317 48.5885C50 48.5885 48.7583 50.0165 48.7583 51.7781C48.7583 53.5396 50 54.9677 51.5317 54.9677Z" fill="#F2F2F2"/>
<path d="M40.4788 54.9677C42.0105 54.9677 43.2521 53.5396 43.2521 51.7781C43.2521 50.0165 42.0105 48.5885 40.4788 48.5885C38.9471 48.5885 37.7055 50.0165 37.7055 51.7781C37.7055 53.5396 38.9471 54.9677 40.4788 54.9677Z" fill="#F2F2F2"/>
<path d="M73.6375 68.2844C75.1691 68.2844 76.4108 66.8564 76.4108 65.0948C76.4108 63.3333 75.1691 61.9053 73.6375 61.9053C72.1058 61.9053 70.8641 63.3333 70.8641 65.0948C70.8641 66.8564 72.1058 68.2844 73.6375 68.2844Z" fill="#F2F2F2"/>
<path d="M62.5846 68.2844C64.1162 68.2844 65.3579 66.8564 65.3579 65.0948C65.3579 63.3333 64.1162 61.9053 62.5846 61.9053C61.0529 61.9053 59.8112 63.3333 59.8112 65.0948C59.8112 66.8564 61.0529 68.2844 62.5846 68.2844Z" fill="#F2F2F2"/>
<path d="M51.5317 68.2844C53.0633 68.2844 54.305 66.8564 54.305 65.0948C54.305 63.3333 53.0633 61.9053 51.5317 61.9053C50 61.9053 48.7583 63.3333 48.7583 65.0948C48.7583 66.8564 50 68.2844 51.5317 68.2844Z" fill="#F2F2F2"/>
<path d="M40.4788 68.2844C42.0105 68.2844 43.2521 66.8564 43.2521 65.0948C43.2521 63.3333 42.0105 61.9053 40.4788 61.9053C38.9471 61.9053 37.7055 63.3333 37.7055 65.0948C37.7055 66.8564 38.9471 68.2844 40.4788 68.2844Z" fill="#F2F2F2"/>
<path d="M73.6375 81.6013C75.1691 81.6013 76.4108 80.1733 76.4108 78.4117C76.4108 76.6502 75.1691 75.2222 73.6375 75.2222C72.1058 75.2222 70.8641 76.6502 70.8641 78.4117C70.8641 80.1733 72.1058 81.6013 73.6375 81.6013Z" fill="#F2F2F2"/>
<path d="M62.5846 81.6013C64.1162 81.6013 65.3579 80.1733 65.3579 78.4117C65.3579 76.6502 64.1162 75.2222 62.5846 75.2222C61.0529 75.2222 59.8112 76.6502 59.8112 78.4117C59.8112 80.1733 61.0529 81.6013 62.5846 81.6013Z" fill="#F2F2F2"/>
<path d="M51.5317 81.6013C53.0633 81.6013 54.305 80.1733 54.305 78.4117C54.305 76.6502 53.0633 75.2222 51.5317 75.2222C50 75.2222 48.7583 76.6502 48.7583 78.4117C48.7583 80.1733 50 81.6013 51.5317 81.6013Z" fill="#F2F2F2"/>
<path d="M40.4788 81.6013C42.0105 81.6013 43.2521 80.1733 43.2521 78.4117C43.2521 76.6502 42.0105 75.2222 40.4788 75.2222C38.9471 75.2222 37.7055 76.6502 37.7055 78.4117C37.7055 80.1733 38.9471 81.6013 40.4788 81.6013Z" fill="#F2F2F2"/>
<path d="M73.6375 94.9181C75.1691 94.9181 76.4108 93.4901 76.4108 91.7285C76.4108 89.967 75.1691 88.5389 73.6375 88.5389C72.1058 88.5389 70.8641 89.967 70.8641 91.7285C70.8641 93.4901 72.1058 94.9181 73.6375 94.9181Z" fill="#F2F2F2"/>
<path d="M62.5846 94.9181C64.1162 94.9181 65.3579 93.4901 65.3579 91.7285C65.3579 89.967 64.1162 88.5389 62.5846 88.5389C61.0529 88.5389 59.8112 89.967 59.8112 91.7285C59.8112 93.4901 61.0529 94.9181 62.5846 94.9181Z" fill="#F2F2F2"/>
<path d="M51.5317 94.9181C53.0633 94.9181 54.305 93.4901 54.305 91.7285C54.305 89.967 53.0633 88.5389 51.5317 88.5389C50 88.5389 48.7583 89.967 48.7583 91.7285C48.7583 93.4901 50 94.9181 51.5317 94.9181Z" fill="#F2F2F2"/>
<path d="M40.4788 94.9181C42.0105 94.9181 43.2521 93.4901 43.2521 91.7285C43.2521 89.967 42.0105 88.5389 40.4788 88.5389C38.9471 88.5389 37.7055 89.967 37.7055 91.7285C37.7055 93.4901 38.9471 94.9181 40.4788 94.9181Z" fill="#F2F2F2"/>
<path d="M49.268 178.742V179.728C49.2692 181.363 49.8344 182.93 50.8395 184.086C51.8445 185.242 53.2073 185.892 54.6286 185.893H93.2251C94.6467 185.893 96.0099 185.243 97.0151 184.087C98.0203 182.931 98.5852 181.363 98.5858 179.728V178.742C98.5884 177.299 98.1479 175.901 97.3419 174.796C97.0737 174.429 96.7702 174.098 96.4371 173.809C96.4371 173.809 75.2176 173.257 75.2176 172.576H54.6286C53.2075 172.579 51.8451 173.229 50.8403 174.385C49.8354 175.54 49.27 177.107 49.268 178.742Z" fill="#CCCCCC"/>
<path d="M77.0247 185.648H71.4497V227.078H77.0247V185.648Z" fill="#CCCCCC"/>
<path d="M92.8922 226.853C92.8922 227.546 84.444 227.121 74.0228 227.121C63.6015 227.121 55.1533 227.546 55.1533 226.853C55.1533 226.16 63.6015 220.667 74.0228 220.667C84.444 220.667 92.8922 226.16 92.8922 226.853Z" fill="#CCCCCC"/>
<path d="M85.2273 177.905C85.6298 177.284 85.909 176.569 86.0451 175.81C86.1813 175.052 86.1712 174.268 86.0156 173.514C85.8599 172.761 85.5625 172.056 85.1442 171.448C84.7259 170.841 84.197 170.347 83.5947 170L71.7786 123.695L62.7809 128.763L77.225 172.686C76.7858 173.889 76.7454 175.234 77.1113 176.469C77.4773 177.703 78.2242 178.74 79.2106 179.384C80.197 180.027 81.3543 180.232 82.4633 179.959C83.5722 179.687 84.5557 178.956 85.2274 177.905L85.2273 177.905Z" fill="#A0616A"/>
<path d="M74.4555 131.428L64.385 134.563C64.0984 134.652 63.7985 134.669 63.5057 134.613C63.2129 134.557 62.934 134.429 62.6881 134.238C62.4422 134.047 62.235 133.797 62.0807 133.505C61.9263 133.213 61.8285 132.887 61.7937 132.548L60.5765 120.668C60.1881 118.979 60.3976 117.182 61.1593 115.671C61.921 114.16 63.1726 113.058 64.6398 112.606C66.1069 112.155 67.6698 112.391 68.9859 113.263C70.3019 114.134 71.2637 115.571 71.6604 117.257L75.8091 128.185C75.9278 128.497 75.9864 128.836 75.981 129.177C75.9757 129.519 75.9064 129.855 75.778 130.163C75.6495 130.47 75.4649 130.743 75.2367 130.961C75.0085 131.179 74.742 131.338 74.4555 131.428H74.4555Z" fill="#6C63FF"/>
<path d="M87.8593 221.997L93.117 221.997L95.6185 206.314H87.8585L87.8593 221.997Z" fill="#A0616A"/>
<path d="M86.5181 220.023L96.8722 220.022H96.8726C97.7392 220.022 98.5972 220.219 99.3978 220.6C100.198 220.981 100.926 221.54 101.538 222.245C102.151 222.95 102.637 223.786 102.969 224.707C103.3 225.628 103.471 226.615 103.471 227.611V227.858L86.5185 227.859L86.5181 220.023Z" fill="#2F2E41"/>
<path d="M93.962 213.587C93.9007 213.587 93.8393 213.584 93.7775 213.577L86.5014 212.968C86.2071 212.937 85.9231 212.828 85.6711 212.65C85.4192 212.473 85.2061 212.231 85.0482 211.944C84.8904 211.656 84.792 211.331 84.7607 210.993C84.7295 210.655 84.7661 210.313 84.8678 209.994L94.6055 184.833C94.675 184.609 94.7035 184.37 94.689 184.133C94.6745 183.895 94.6174 183.664 94.5213 183.453C94.4254 183.239 94.2914 183.051 94.128 182.902C93.9645 182.752 93.7754 182.644 93.573 182.585C88.9941 181.208 77.2458 177.543 67.0759 173.254C62.7188 171.416 59.9747 168.761 58.9197 165.362C57.5289 160.88 59.5864 156.792 59.6747 156.621L59.7437 156.487L69.3134 157.487L79.6877 158.502L102.423 172.523C104.328 173.708 105.775 175.674 106.475 178.031C107.176 180.388 107.08 182.962 106.204 185.24L95.7229 212.272C95.5713 212.664 95.3243 212.996 95.0118 213.23C94.6993 213.463 94.3346 213.587 93.962 213.587Z" fill="#2F2E41"/>
<path d="M70.9773 107.707C76.7946 107.707 81.5103 102.283 81.5103 95.5932C81.5103 88.9028 76.7946 83.4792 70.9773 83.4792C65.1601 83.4792 60.4443 88.9028 60.4443 95.5932C60.4443 102.283 65.1601 107.707 70.9773 107.707Z" fill="#A0616A"/>
<path d="M84.8574 221.504L90.1151 221.503L92.6166 205.821H84.8565L84.8574 221.504Z" fill="#A0616A"/>
<path d="M83.5162 219.53L93.8703 219.529H93.8707C94.7372 219.529 95.5953 219.726 96.3958 220.107C97.1964 220.488 97.9238 221.047 98.5365 221.752C99.1493 222.457 99.6353 223.293 99.9669 224.214C100.299 225.135 100.469 226.121 100.469 227.118V227.365L83.5165 227.365L83.5162 219.53Z" fill="#2F2E41"/>
<path d="M90.96 215.067C90.8988 215.067 90.8373 215.064 90.7756 215.057L83.4995 214.448C83.2052 214.416 82.9212 214.308 82.6692 214.13C82.4173 213.952 82.2041 213.711 82.0463 213.423C81.8884 213.136 81.7901 212.811 81.7588 212.473C81.7275 212.135 81.7641 211.793 81.8658 211.474L91.6035 186.313C91.6731 186.088 91.7015 185.85 91.6871 185.612C91.6726 185.375 91.6155 185.143 91.5194 184.932C91.4235 184.719 91.2895 184.531 91.126 184.382C90.9626 184.232 90.7735 184.124 90.5711 184.064C85.9921 182.688 74.2439 179.022 64.074 174.734C59.7169 172.896 56.9727 170.241 55.9178 166.841C54.5269 162.359 56.5845 158.272 56.6728 158.101L56.7418 157.966L66.3114 158.967L76.6858 159.981L99.4206 174.002C101.326 175.187 102.773 177.154 103.474 179.511C104.174 181.867 104.078 184.441 103.202 186.72L92.721 213.752C92.5694 214.143 92.3223 214.476 92.0098 214.709C91.6973 214.943 91.3327 215.067 90.96 215.067Z" fill="#2F2E41"/>
<path d="M74.2258 114.576L63.0757 110.137C63.0757 110.137 56.076 116.322 59.4386 131.665C61.1941 139.583 60.6827 147.941 57.9805 155.498C57.6551 156.433 57.28 157.344 56.8574 158.226C56.8574 158.226 69.294 175.488 80.873 162.665L76.37 137.757C76.37 137.757 83.446 121.235 74.2258 114.576Z" fill="#F0FC15"/>
<path d="M72.2851 108.119C70.786 105.538 69.6029 101.96 71.2534 99.5046C72.8826 97.0809 76.096 97.438 78.5913 96.3655C82.0667 94.8717 84.0823 90.1759 83.4537 85.9706C82.8251 81.7653 79.8898 78.2792 76.3931 76.8528C72.8964 75.4264 68.9532 75.8903 65.529 77.5329C61.3137 79.5549 57.6977 83.4664 56.1814 88.4212C54.6651 93.3761 55.4757 99.3253 58.6212 103.134C61.9936 107.217 67.2864 108.305 72.1826 108.239" fill="#2F2E41"/>
<path d="M62.4872 86.1056C60.5982 87.8742 57.7161 87.0887 55.6884 85.5365C53.6606 83.9843 52.0152 81.7741 49.8213 80.5571C45.9534 78.4116 41.2769 79.8379 37.5125 82.2144C33.7481 84.5909 30.4111 87.8741 26.4348 89.739C22.4584 91.6039 17.3844 91.6961 14.3734 88.1747C13.6325 90.6437 13.5719 93.3154 14.2 95.8254C14.8281 98.3354 16.1142 100.561 17.8829 102.2C19.6516 103.838 21.8168 104.809 24.0829 104.98C26.3491 105.151 28.6059 104.513 30.5454 103.154C34.9023 100.102 37.3088 93.7025 42.1955 92.0179C44.8997 91.0857 47.8033 91.8365 50.5363 92.6497C53.2693 93.463 56.119 94.3417 58.8771 93.6494C61.6352 92.9571 64.215 90.1065 63.8641 86.885L62.4872 86.1056Z" fill="#2F2E41"/>
<path d="M96.7753 200.249C95.6601 191.918 95.6601 183.439 96.7753 175.107C96.8461 174.611 97.0676 174.16 97.4003 173.835C97.7331 173.509 98.1555 173.33 98.5924 173.329H115.692C115.969 173.328 116.242 173.4 116.492 173.539C116.741 173.678 116.96 173.88 117.131 174.131C117.305 174.385 117.427 174.682 117.487 174.999C117.547 175.315 117.544 175.643 117.477 175.958C115.877 183.663 115.877 191.693 117.477 199.398C117.544 199.713 117.547 200.041 117.487 200.358C117.427 200.675 117.305 200.971 117.131 201.225C116.96 201.476 116.741 201.679 116.492 201.818C116.242 201.957 115.969 202.029 115.692 202.028H98.5924C98.1555 202.027 97.7331 201.847 97.4003 201.522C97.0676 201.196 96.8461 200.745 96.7753 200.249Z" fill="#F0FC15"/>
<path d="M110.43 185.5H101.457C101.116 185.499 100.789 185.343 100.547 185.066C100.306 184.789 100.17 184.412 100.17 184.02V183.442C100.17 183.05 100.306 182.674 100.547 182.396C100.789 182.119 101.116 181.963 101.457 181.963H110.43C110.771 181.963 111.098 182.119 111.339 182.396C111.58 182.674 111.716 183.05 111.716 183.442V184.02C111.716 184.412 111.58 184.789 111.339 185.066C111.098 185.343 110.771 185.499 110.43 185.5Z" fill="white"/>
<path d="M110.43 191.588H101.457C101.116 191.588 100.789 191.432 100.547 191.155C100.306 190.877 100.17 190.501 100.17 190.109V189.531C100.17 189.138 100.306 188.762 100.547 188.485C100.789 188.207 101.116 188.051 101.457 188.051H110.43C110.771 188.051 111.098 188.207 111.339 188.485C111.58 188.762 111.716 189.138 111.716 189.531V190.109C111.716 190.501 111.58 190.877 111.339 191.155C111.098 191.432 110.771 191.588 110.43 191.588Z" fill="white"/>
<path d="M101.272 175.686C101.527 174.969 101.642 174.196 101.609 173.423C101.576 172.649 101.396 171.893 101.081 171.208C100.767 170.523 100.326 169.926 99.7888 169.458C99.2519 168.99 98.6324 168.664 97.9739 168.501L76.4733 127.059L68.862 134.552L92.3897 172.932C92.2256 174.222 92.4788 175.537 93.1013 176.627C93.7238 177.717 94.6724 178.507 95.7672 178.846C96.8621 179.186 98.0272 179.051 99.0417 178.469C100.056 177.887 100.85 176.896 101.272 175.686L101.272 175.686Z" fill="#A0616A"/>
<path d="M80.7452 133.778L71.6751 139.707C71.4171 139.876 71.1304 139.979 70.8347 140.008C70.539 140.038 70.2412 139.994 69.9615 139.88C69.6819 139.765 69.4269 139.583 69.2141 139.345C69.0013 139.107 68.8356 138.819 68.7283 138.5L64.9689 127.347C64.226 125.823 64.0387 124.023 64.4479 122.341C64.8572 120.659 65.8297 119.232 67.1522 118.374C68.4747 117.515 70.0393 117.294 71.503 117.76C72.9667 118.226 74.21 119.341 74.9603 120.859L81.3513 130.248C81.5342 130.517 81.6646 130.828 81.7336 131.16C81.8025 131.492 81.8085 131.838 81.7509 132.173C81.6934 132.507 81.5738 132.824 81.4002 133.101C81.2267 133.378 81.0033 133.609 80.7452 133.778Z" fill="#2F2E41"/>
<path d="M177.254 148.335H3.14048C2.40119 148.335 1.69217 148.672 1.16941 149.274C0.646645 149.875 0.352959 150.69 0.352959 151.541C0.352959 152.391 0.646645 153.206 1.16941 153.808C1.69217 154.409 2.40119 154.747 3.14048 154.747H8.07226V224.537C8.07226 225.387 8.36595 226.202 8.88871 226.804C9.41147 227.405 10.1205 227.743 10.8598 227.743C11.5991 227.743 12.3081 227.405 12.8309 226.804C13.3536 226.202 13.6473 225.387 13.6473 224.537V160.907L44.8981 226.05C45.2686 226.784 45.8772 227.32 46.5906 227.539C47.304 227.758 48.0637 227.642 48.7031 227.218C49.3425 226.793 49.8094 226.094 50.0012 225.274C50.193 224.454 50.0941 223.58 49.7262 222.844L17.0582 154.747H166.318V154.788L133.67 222.844C133.3 223.58 133.2 224.455 133.392 225.277C133.583 226.098 134.05 226.798 134.69 227.223C135.331 227.648 136.091 227.763 136.805 227.543C137.52 227.323 138.128 226.786 138.498 226.05L166.318 168.058V224.537C166.318 225.387 166.612 226.202 167.134 226.804C167.657 227.405 168.366 227.743 169.106 227.743C169.845 227.743 170.554 227.405 171.077 226.804C171.599 226.202 171.893 225.387 171.893 224.537V156.437L172.704 154.747H177.254C177.993 154.747 178.702 154.409 179.225 153.808C179.748 153.206 180.041 152.391 180.041 151.541C180.041 150.69 179.748 149.875 179.225 149.274C178.702 148.672 177.993 148.335 177.254 148.335Z" fill="#3F3D56"/>
<path d="M105.207 146.362H71.3277C70.4987 146.362 69.8267 147.135 69.8267 148.088C69.8267 149.041 70.4987 149.814 71.3277 149.814H105.207C106.036 149.814 106.708 149.041 106.708 148.088C106.708 147.135 106.036 146.362 105.207 146.362Z" fill="#CCCCCC"/>
<path d="M127.936 149.814H89.7682C89.0292 149.813 88.3207 149.475 87.7981 148.874C87.2755 148.273 86.9815 147.458 86.9807 146.608V122.441C86.9815 121.591 87.2755 120.776 87.7981 120.175C88.3207 119.574 89.0292 119.236 89.7682 119.235H127.936C128.675 119.236 129.383 119.574 129.906 120.175C130.429 120.776 130.723 121.591 130.723 122.441V146.608C130.723 147.458 130.429 148.273 129.906 148.874C129.383 149.475 128.675 149.813 127.936 149.814Z" fill="#CCCCCC"/>
<path d="M108.852 137.484C110.273 137.484 111.425 136.159 111.425 134.525C111.425 132.89 110.273 131.565 108.852 131.565C107.431 131.565 106.279 132.89 106.279 134.525C106.279 136.159 107.431 137.484 108.852 137.484Z" fill="white"/>
<path d="M157.064 90.2692V3.70969C157.065 2.72616 157.405 1.78324 158.01 1.08778C158.614 0.392316 159.434 0.00111873 160.289 0H219.783C220.638 0.00111873 221.458 0.392316 222.063 1.08778C222.667 1.78324 223.008 2.72616 223.009 3.70969V90.2692C223.008 91.2527 222.667 92.1956 222.063 92.8911C221.458 93.5866 220.638 93.9778 219.783 93.9789H160.289C159.434 93.9778 158.614 93.5866 158.01 92.8911C157.405 92.1956 157.065 91.2527 157.064 90.2692ZM160.289 0.824378C159.624 0.825237 158.986 1.1295 158.516 1.67042C158.046 2.21133 157.781 2.94472 157.78 3.70969V90.2692C157.781 91.0341 158.046 91.7675 158.516 92.3085C158.986 92.8494 159.624 93.1536 160.289 93.1545H219.783C220.448 93.1536 221.086 92.8494 221.556 92.3085C222.027 91.7675 222.291 91.0341 222.292 90.2692V3.70969C222.291 2.94472 222.027 2.21133 221.556 1.67042C221.086 1.1295 220.448 0.825237 219.783 0.824378H160.289Z" fill="#E6E6E6"/>
<path d="M193.372 39.7521V21.9787C193.373 21.487 193.543 21.0155 193.845 20.6678C194.148 20.32 194.558 20.1244 194.985 20.1239H208.081C208.509 20.1244 208.919 20.32 209.221 20.6678C209.523 21.0155 209.693 21.487 209.694 21.9787V39.7521C209.693 40.2439 209.523 40.7154 209.221 41.0631C208.919 41.4108 208.509 41.6064 208.081 41.607H194.985C194.558 41.6064 194.148 41.4108 193.845 41.0631C193.543 40.7154 193.373 40.2439 193.372 39.7521Z" fill="#2115FC"/>
<path d="M167.926 47.9958V30.2224C167.927 29.7306 168.097 29.2592 168.399 28.9114C168.702 28.5637 169.111 28.3681 169.539 28.3676H182.635C183.062 28.3681 183.472 28.5637 183.775 28.9114C184.077 29.2592 184.247 29.7306 184.248 30.2224V47.9958C184.247 48.4876 184.077 48.959 183.775 49.3068C183.472 49.6545 183.062 49.8501 182.635 49.8506H169.539C169.111 49.8501 168.702 49.6545 168.399 49.3068C168.097 48.959 167.927 48.4876 167.926 47.9958Z" fill="#CCCCCC"/>
<path d="M188.355 73.1394V55.366C188.355 54.8742 188.525 54.4027 188.828 54.055C189.13 53.7073 189.54 53.5117 189.968 53.5111H203.063C203.491 53.5117 203.901 53.7073 204.203 54.055C204.506 54.4027 204.676 54.8742 204.676 55.366V73.1394C204.676 73.6311 204.506 74.1026 204.203 74.4503C203.901 74.7981 203.491 74.9937 203.063 74.9942H189.968C189.54 74.9937 189.13 74.7981 188.828 74.4503C188.525 74.1026 188.355 73.6311 188.355 73.1394Z" fill="#F0FC15"/>
<path d="M288.229 9.01953C289.761 9.01953 291.002 7.59151 291.002 5.82996C291.002 4.0684 289.761 2.64038 288.229 2.64038C286.697 2.64038 285.456 4.0684 285.456 5.82996C285.456 7.59151 286.697 9.01953 288.229 9.01953Z" fill="#F2F2F2"/>
<path d="M288.229 21.7313C289.761 21.7313 291.002 20.3033 291.002 18.5417C291.002 16.7802 289.761 15.3522 288.229 15.3522C286.697 15.3522 285.456 16.7802 285.456 18.5417C285.456 20.3033 286.697 21.7313 288.229 21.7313Z" fill="#F2F2F2"/>
<path d="M288.229 34.4431C289.761 34.4431 291.002 33.0151 291.002 31.2535C291.002 29.492 289.761 28.064 288.229 28.064C286.697 28.064 285.456 29.492 285.456 31.2535C285.456 33.0151 286.697 34.4431 288.229 34.4431Z" fill="#F2F2F2"/>
<path d="M288.229 47.1549C289.761 47.1549 291.002 45.7269 291.002 43.9653C291.002 42.2038 289.761 40.7758 288.229 40.7758C286.697 40.7758 285.456 42.2038 285.456 43.9653C285.456 45.7269 286.697 47.1549 288.229 47.1549Z" fill="#F2F2F2"/>
<path d="M276.65 9.01953C278.182 9.01953 279.423 7.59151 279.423 5.82996C279.423 4.0684 278.182 2.64038 276.65 2.64038C275.118 2.64038 273.877 4.0684 273.877 5.82996C273.877 7.59151 275.118 9.01953 276.65 9.01953Z" fill="#F2F2F2"/>
<path d="M276.65 21.7313C278.182 21.7313 279.423 20.3033 279.423 18.5417C279.423 16.7802 278.182 15.3522 276.65 15.3522C275.118 15.3522 273.877 16.7802 273.877 18.5417C273.877 20.3033 275.118 21.7313 276.65 21.7313Z" fill="#F2F2F2"/>
<path d="M276.65 34.4431C278.182 34.4431 279.423 33.0151 279.423 31.2535C279.423 29.492 278.182 28.064 276.65 28.064C275.118 28.064 273.877 29.492 273.877 31.2535C273.877 33.0151 275.118 34.4431 276.65 34.4431Z" fill="#F2F2F2"/>
<path d="M276.65 47.1549C278.182 47.1549 279.423 45.7269 279.423 43.9653C279.423 42.2038 278.182 40.7758 276.65 40.7758C275.118 40.7758 273.877 42.2038 273.877 43.9653C273.877 45.7269 275.118 47.1549 276.65 47.1549Z" fill="#F2F2F2"/>
<path d="M265.071 9.01953C266.603 9.01953 267.844 7.59151 267.844 5.82996C267.844 4.0684 266.603 2.64038 265.071 2.64038C263.539 2.64038 262.298 4.0684 262.298 5.82996C262.298 7.59151 263.539 9.01953 265.071 9.01953Z" fill="#F2F2F2"/>
<path d="M265.071 21.7313C266.603 21.7313 267.844 20.3033 267.844 18.5417C267.844 16.7802 266.603 15.3522 265.071 15.3522C263.539 15.3522 262.298 16.7802 262.298 18.5417C262.298 20.3033 263.539 21.7313 265.071 21.7313Z" fill="#F2F2F2"/>
<path d="M265.071 34.4431C266.603 34.4431 267.844 33.0151 267.844 31.2535C267.844 29.492 266.603 28.064 265.071 28.064C263.539 28.064 262.298 29.492 262.298 31.2535C262.298 33.0151 263.539 34.4431 265.071 34.4431Z" fill="#F2F2F2"/>
<path d="M265.071 47.1549C266.603 47.1549 267.844 45.7269 267.844 43.9653C267.844 42.2038 266.603 40.7758 265.071 40.7758C263.539 40.7758 262.298 42.2038 262.298 43.9653C262.298 45.7269 263.539 47.1549 265.071 47.1549Z" fill="#F2F2F2"/>
<path d="M253.492 9.01953C255.024 9.01953 256.265 7.59151 256.265 5.82996C256.265 4.0684 255.024 2.64038 253.492 2.64038C251.96 2.64038 250.719 4.0684 250.719 5.82996C250.719 7.59151 251.96 9.01953 253.492 9.01953Z" fill="#F2F2F2"/>
<path d="M253.492 21.7313C255.024 21.7313 256.265 20.3033 256.265 18.5417C256.265 16.7802 255.024 15.3522 253.492 15.3522C251.96 15.3522 250.719 16.7802 250.719 18.5417C250.719 20.3033 251.96 21.7313 253.492 21.7313Z" fill="#F2F2F2"/>
<path d="M253.492 34.4431C255.024 34.4431 256.265 33.0151 256.265 31.2535C256.265 29.492 255.024 28.064 253.492 28.064C251.96 28.064 250.719 29.492 250.719 31.2535C250.719 33.0151 251.96 34.4431 253.492 34.4431Z" fill="#F2F2F2"/>
<path d="M253.492 47.1549C255.024 47.1549 256.265 45.7269 256.265 43.9653C256.265 42.2038 255.024 40.7758 253.492 40.7758C251.96 40.7758 250.719 42.2038 250.719 43.9653C250.719 45.7269 251.96 47.1549 253.492 47.1549Z" fill="#F2F2F2"/>
<path d="M241.913 9.01953C243.445 9.01953 244.686 7.59151 244.686 5.82996C244.686 4.0684 243.445 2.64038 241.913 2.64038C240.381 2.64038 239.14 4.0684 239.14 5.82996C239.14 7.59151 240.381 9.01953 241.913 9.01953Z" fill="#F2F2F2"/>
<path d="M241.913 21.7313C243.445 21.7313 244.686 20.3033 244.686 18.5417C244.686 16.7802 243.445 15.3522 241.913 15.3522C240.381 15.3522 239.14 16.7802 239.14 18.5417C239.14 20.3033 240.381 21.7313 241.913 21.7313Z" fill="#F2F2F2"/>
<path d="M241.913 34.4431C243.445 34.4431 244.686 33.0151 244.686 31.2535C244.686 29.492 243.445 28.064 241.913 28.064C240.381 28.064 239.14 29.492 239.14 31.2535C239.14 33.0151 240.381 34.4431 241.913 34.4431Z" fill="#F2F2F2"/>
<path d="M241.913 47.1549C243.445 47.1549 244.686 45.7269 244.686 43.9653C244.686 42.2038 243.445 40.7758 241.913 40.7758C240.381 40.7758 239.14 42.2038 239.14 43.9653C239.14 45.7269 240.381 47.1549 241.913 47.1549Z" fill="#F2F2F2"/>
<path d="M230.334 9.01953C231.866 9.01953 233.108 7.59151 233.108 5.82996C233.108 4.0684 231.866 2.64038 230.334 2.64038C228.803 2.64038 227.561 4.0684 227.561 5.82996C227.561 7.59151 228.803 9.01953 230.334 9.01953Z" fill="#F2F2F2"/>
<path d="M230.334 21.7313C231.866 21.7313 233.108 20.3033 233.108 18.5417C233.108 16.7802 231.866 15.3522 230.334 15.3522C228.803 15.3522 227.561 16.7802 227.561 18.5417C227.561 20.3033 228.803 21.7313 230.334 21.7313Z" fill="#F2F2F2"/>
<path d="M230.334 34.4431C231.866 34.4431 233.108 33.0151 233.108 31.2535C233.108 29.492 231.866 28.064 230.334 28.064C228.803 28.064 227.561 29.492 227.561 31.2535C227.561 33.0151 228.803 34.4431 230.334 34.4431Z" fill="#F2F2F2"/>
<path d="M230.334 47.1549C231.866 47.1549 233.108 45.7269 233.108 43.9653C233.108 42.2038 231.866 40.7758 230.334 40.7758C228.803 40.7758 227.561 42.2038 227.561 43.9653C227.561 45.7269 228.803 47.1549 230.334 47.1549Z" fill="#F2F2F2"/>
<path d="M241.507 118.99C241.28 118.271 241.187 117.506 241.235 116.743C241.282 115.981 241.469 115.238 241.784 114.565C242.098 113.891 242.533 113.302 243.059 112.835C243.586 112.368 244.192 112.034 244.838 111.856C245.043 111.8 245.251 111.761 245.461 111.739L255.883 90.7289L253.251 85.5292L259.802 79.7168L264.814 87.7227C265.412 88.6851 265.724 89.8435 265.704 91.0259C265.683 92.2084 265.332 93.3519 264.702 94.2867L250.394 115.354C250.446 115.521 250.49 115.692 250.527 115.864C250.682 116.608 250.699 117.38 250.577 118.132C250.454 118.883 250.195 119.596 249.816 120.225C249.437 120.853 248.947 121.382 248.378 121.777C247.808 122.172 247.173 122.424 246.513 122.518C246.322 122.545 246.129 122.559 245.936 122.559C244.969 122.556 244.026 122.212 243.235 121.573C242.443 120.935 241.84 120.034 241.507 118.99Z" fill="#FFB8B8"/>
<path d="M221.173 222.385L215.916 222.385L213.415 199.062L221.174 199.062L221.173 222.385Z" fill="#FFB8B8"/>
<path d="M212.16 220.657H222.3V228H205.776C205.776 227.035 205.941 226.081 206.262 225.19C206.583 224.299 207.053 223.489 207.646 222.808C208.239 222.126 208.943 221.585 209.717 221.216C210.492 220.847 211.322 220.657 212.16 220.657Z" fill="#2F2E41"/>
<path d="M264.487 222.385L259.23 222.385L256.729 199.062L264.488 199.062L264.487 222.385Z" fill="#FFB8B8"/>
<path d="M255.474 220.657H265.614V228H249.09C249.09 227.035 249.255 226.081 249.576 225.19C249.897 224.299 250.367 223.489 250.96 222.808C251.553 222.126 252.257 221.585 253.031 221.216C253.806 220.847 254.636 220.657 255.474 220.657Z" fill="#2F2E41"/>
<path d="M261.26 80.8527L249.456 86.0114L246.575 76.8047C246.192 75.5822 246.197 74.2434 246.59 73.025C246.982 71.8067 247.737 70.7871 248.72 70.1465C249.714 69.4985 250.877 69.2808 251.999 69.5326C253.12 69.7845 254.127 70.4893 254.836 71.5199L261.26 80.8527Z" fill="#6C63FF"/>
<path d="M221.627 203.495L211.728 200.898C211.201 200.759 210.74 200.396 210.437 199.882C210.133 199.368 210.01 198.741 210.093 198.127C214.065 169.171 217.887 152.213 227.736 130.678C227.873 130.277 229.411 122.127 230.415 116.728C230.403 116.133 230.58 115.554 230.913 115.098C231.245 114.642 231.711 114.34 232.222 114.25L250.681 110.983C250.96 110.871 251.254 110.821 251.548 110.833L251.733 110.873L251.731 111.082C251.728 111.297 251.541 111.33 251.471 111.343L251.226 111.386C251.506 111.536 251.763 111.737 251.987 111.981C260.075 123.169 264.281 159.843 269.623 200.358C269.652 200.687 269.618 201.019 269.521 201.331C269.424 201.642 269.268 201.924 269.064 202.157C268.87 202.4 268.636 202.595 268.375 202.731C268.115 202.866 267.833 202.94 267.546 202.946L255.753 203.277C255.234 203.29 254.73 203.087 254.333 202.704C253.935 202.321 253.672 201.786 253.593 201.197L245.649 148.398C245.594 147.986 245.427 147.604 245.17 147.309C244.914 147.014 244.583 146.82 244.224 146.757C243.866 146.693 243.499 146.763 243.177 146.956C242.855 147.148 242.595 147.454 242.435 147.828C236.026 162.839 230.05 175.821 224.163 201.72C224.047 202.245 223.781 202.711 223.409 203.044C223.037 203.376 222.579 203.557 222.108 203.558C221.946 203.558 221.785 203.537 221.627 203.495Z" fill="#2F2E41"/>
<path d="M231.237 117.331C230.988 117.129 230.78 116.868 230.626 116.566C230.472 116.265 230.376 115.928 230.343 115.58C228.831 99.3489 229.884 86.6464 233.562 76.7471C234.21 75.0398 235.186 73.5234 236.416 72.3121C237.647 71.1008 239.1 70.226 240.667 69.7535L250.209 69.1996L250.258 69.227C252.411 70.4399 254.167 72.4186 255.265 74.8696C256.364 77.3206 256.746 80.1135 256.356 82.8341C253.287 92.1378 250.717 101.824 252.677 109.639C252.759 109.965 252.783 110.308 252.747 110.645C252.712 110.983 252.617 111.309 252.469 111.603C252.326 111.888 252.134 112.136 251.904 112.332C251.674 112.528 251.412 112.667 251.133 112.742L232.959 117.714C232.665 117.795 232.359 117.802 232.062 117.736C231.765 117.67 231.484 117.532 231.237 117.331Z" fill="#2115FC"/>
<path d="M227.129 94.0374L208.828 77.4327C208.683 77.4917 208.534 77.542 208.384 77.5835C207.738 77.7573 207.068 77.7728 206.416 77.6291C205.765 77.4854 205.147 77.1856 204.602 76.7493C204.055 76.3127 203.594 75.7465 203.252 75.0887C202.91 74.4309 202.694 73.6966 202.618 72.935C202.496 71.7175 202.734 70.488 203.295 69.4461C203.857 68.4041 204.708 67.6108 205.71 67.1949C206.336 66.9368 207.002 66.8336 207.665 66.8922C208.327 66.9507 208.972 67.1696 209.556 67.5345C210.14 67.8995 210.65 68.4022 211.054 69.0099C211.457 69.6175 211.745 70.3163 211.897 71.0604C211.944 71.2963 211.977 71.5356 211.995 71.7767L230.213 83.8641L234.747 80.8621L239.769 88.4241L232.73 94.1944C231.906 94.8643 230.916 95.2109 229.907 95.1826C228.898 95.1543 227.924 94.7527 227.129 94.0374H227.129Z" fill="#FFB8B8"/>
<path d="M242.002 90.7792L231.56 82.6128L236.468 74.6193C237.119 73.5579 238.076 72.7956 239.169 72.4671C240.262 72.1385 241.421 72.265 242.441 72.824C243.473 73.3896 244.294 74.3607 244.758 75.5621C245.221 76.7635 245.296 78.116 244.969 79.3752L242.002 90.7792Z" fill="#6C63FF"/>
<path d="M247.024 65.1007C252.841 65.1007 257.557 59.6771 257.557 52.9868C257.557 46.2965 252.841 40.8729 247.024 40.8729C241.207 40.8729 236.491 46.2965 236.491 52.9868C236.491 59.6771 241.207 65.1007 247.024 65.1007Z" fill="#FFB8B8"/>
<path d="M243.162 51.1826C240.455 53.3136 236.901 55.504 234.136 53.2348C232.32 51.7447 231.748 48.9855 232.484 46.5641C233.808 42.2097 237.446 40.2927 240.924 38.8232C245.446 36.913 250.37 35.3933 255.038 36.7613C259.706 38.1294 263.832 43.3275 262.989 48.7825C262.312 53.1692 258.714 56.8194 259.224 61.236C259.738 65.6809 264.085 68.0206 267.922 68.815C271.759 69.6094 276.053 69.8647 278.811 73.0346C282.329 77.0784 281.45 84.3062 278.14 88.5756C274.83 92.8451 269.835 94.7803 264.994 96.096C258.581 97.8391 251.645 98.7552 245.554 95.8623C239.463 92.9694 234.723 85.182 236.487 77.8797C237.232 74.7953 238.988 72.1885 240.685 69.6507C242.382 67.1129 244.1 64.4591 244.747 61.3455C245.287 58.7508 244.887 55.7382 243.391 53.7919C243.119 53.4513 242.948 53.0202 242.902 52.5606C242.856 52.101 242.938 51.6365 243.136 51.2339L243.162 51.1826Z" fill="#2F2E41"/>
</g>
<defs>
<clipPath id="clip0_37_542">
<rect width="334" height="228" fill="white"/>
</clipPath>
</defs>
</svg>
