<svg width="334" height="228" viewBox="0 0 334 228" fill="none" xmlns="http://www.w3.org/2000/svg">
<path d="M80.3786 224.129L72.1511 206.942L80.3824 226.001L80.3868 227.959C80.9738 227.95 81.5549 227.921 82.13 227.87L81.4589 202.714L81.4677 202.52L81.4526 202.482L81.3887 200.105L89.9913 181.269L81.3798 198.325L81.3541 198.829L80.8471 179.822L88.2427 160.333L80.7893 176.482L80.4426 137.087L80.441 136.956L80.4399 137.085L80.271 168.145L73.2042 155.717L80.2773 170.821L80.3101 187.833L73.7531 171.402L80.3137 190.334L80.3319 199.793L70.8073 176.916L80.3394 203.093L80.3786 224.129Z" fill="#E2E2E2"/>
<path d="M150.982 224.129L142.754 206.942L150.986 226.001L150.99 227.959C151.577 227.95 152.158 227.921 152.733 227.87L152.062 202.714L152.071 202.52L152.056 202.482L151.992 200.105L160.595 181.269L151.983 198.325L151.957 198.829L151.45 179.822L158.846 160.333L151.393 176.482L151.046 137.087L151.044 136.956L151.043 137.085L150.874 168.145L143.808 155.717L150.881 170.821L150.913 187.833L144.356 171.402L150.917 190.334L150.935 199.793L141.411 176.916L150.943 203.093L150.982 224.129Z" fill="#E2E2E2"/>
<path d="M9.70831 225.234L3.76724 212.824L9.71106 226.586L9.71425 228C10.1381 227.993 10.5577 227.972 10.9729 227.936L10.4884 209.77L10.4947 209.63L10.4838 209.603L10.4377 207.887L16.6496 194.285L10.4313 206.601L10.4127 206.965L10.0466 193.24L15.3869 179.168L10.0049 190.829L9.75454 162.381L9.7534 162.287L9.75253 162.38L9.63064 184.809L4.52774 175.834L9.63516 186.74L9.65885 199.025L4.9241 187.16L9.66146 200.831L9.67457 207.662L2.79688 191.142L9.67996 210.044L9.70831 225.234Z" fill="#E2E2E2"/>
<path d="M322.696 224.129L314.468 206.942L322.699 226.001L322.704 227.959C323.291 227.95 323.872 227.921 324.447 227.87L323.776 202.714L323.785 202.52L323.77 202.482L323.706 200.105L332.308 181.269L323.697 198.325L323.671 198.829L323.164 179.822L330.56 160.333L323.106 176.482L322.76 137.087L322.758 136.956L322.757 137.085L322.588 168.145L315.521 155.717L322.594 170.821L322.627 187.833L316.07 171.402L322.631 190.334L322.649 199.793L313.124 176.916L322.656 203.093L322.696 224.129Z" fill="#E2E2E2"/>
<path d="M99.5658 198.181H143.949V195.705H99.5658V198.181Z" fill="#F0FC15"/>
<path d="M97.3091 195.705H141.692V193.23H97.3091V195.705Z" fill="#F0FC15"/>
<path d="M99.9419 193.23H144.325V190.755H99.9419V193.23Z" fill="#F0FC15"/>
<path d="M104.455 190.755H148.838V188.279H104.455V190.755Z" fill="#F0FC15"/>
<path d="M66.692 191.741H68.233V177.34H66.692V191.741Z" fill="#3F3D56"/>
<path d="M66.6889 177.157L67.2684 179.037L124.292 148.571L123.713 146.692L66.6889 177.157Z" fill="#3F3D56"/>
<path d="M38.1839 213.242H51.5905V206.346H38.1839V213.242Z" fill="#3F3D56"/>
<path d="M39.4167 220.138H105.525V212.43H39.4167V220.138Z" fill="#3F3D56"/>
<path d="M50.2805 216.285H66.1527V190.017H54.287L50.2805 203.265V216.285Z" fill="#2115FC"/>
<path d="M56.9068 200.565H63.6871V191.64H56.9068V200.565Z" fill="white"/>
<path d="M51.8215 200.666H56.1364V191.741H54.287L51.8215 200.666Z" fill="white"/>
<path d="M61.838 209.489H63.379V205.635H61.838V209.489Z" fill="#3F3D56"/>
<path d="M54.8265 201.275H54.7495C54.3612 201.275 53.9889 201.072 53.7143 200.71C53.4398 200.349 53.2856 199.859 53.2856 199.348C53.2856 198.837 53.4398 198.347 53.7143 197.985C53.9889 197.624 54.3612 197.421 54.7495 197.421H54.8265V201.275Z" fill="#3F3D56"/>
<path d="M112.151 216.284H112.074C111.686 216.284 111.313 216.081 111.039 215.72C110.764 215.359 110.61 214.869 110.61 214.357C110.61 213.846 110.764 213.356 111.039 212.995C111.313 212.634 111.686 212.431 112.074 212.431H112.151V216.284V216.284Z" fill="#3F3D56"/>
<path d="M44.1167 212.401C42.9707 212.421 41.8428 212.78 40.8168 213.452C39.7908 214.124 38.8932 215.093 38.1906 216.284H35.179L38.1069 205.549L51.7446 202.009L51.3593 216.284H50.0428C49.3403 215.093 48.4426 214.124 47.4166 213.452C46.3906 212.78 45.2627 212.421 44.1167 212.401Z" fill="#2115FC"/>
<path d="M43.9626 227.643C47.6647 227.643 50.6659 223.693 50.6659 218.82C50.6659 213.947 47.6647 209.997 43.9626 209.997C40.2605 209.997 37.2594 213.947 37.2594 218.82C37.2594 223.693 40.2605 227.643 43.9626 227.643Z" fill="#3F3D56"/>
<path d="M43.9626 223.464C45.9111 223.464 47.4907 221.385 47.4907 218.82C47.4907 216.255 45.9111 214.176 43.9626 214.176C42.0142 214.176 40.4346 216.255 40.4346 218.82C40.4346 221.385 42.0142 223.464 43.9626 223.464Z" fill="#E2E2E2"/>
<path d="M104.523 227.542C107.757 227.542 110.379 224.091 110.379 219.834C110.379 215.577 107.757 212.126 104.523 212.126C101.289 212.126 98.6674 215.577 98.6674 219.834C98.6674 224.091 101.289 227.542 104.523 227.542Z" fill="#3F3D56"/>
<path d="M104.523 223.891C106.225 223.891 107.605 222.075 107.605 219.834C107.605 217.594 106.225 215.777 104.523 215.777C102.821 215.777 101.441 217.594 101.441 219.834C101.441 222.075 102.821 223.891 104.523 223.891Z" fill="#E2E2E2"/>
<path d="M65.6904 217.096H68.9265V186.366H65.6904V217.096Z" fill="#3F3D56"/>
<path d="M65.6904 213.343H112.228V211.518H65.6904V213.343Z" fill="#3F3D56"/>
<path d="M53.902 201.883H55.4429V201.072H53.902V201.883Z" fill="#3F3D56"/>
<path d="M122.013 198.166C121.999 198.144 121.988 198.119 121.981 198.092C121.974 198.065 121.972 198.036 121.974 198.008L124.099 171.554C124.103 171.505 124.121 171.459 124.149 171.425C124.177 171.392 124.214 171.373 124.252 171.373H124.253C124.29 171.373 124.327 171.391 124.355 171.424C124.383 171.457 124.401 171.503 124.406 171.553L126.704 197.951C126.707 197.979 126.705 198.008 126.698 198.035C126.692 198.062 126.681 198.087 126.667 198.109C126.652 198.13 126.635 198.147 126.615 198.159C126.595 198.171 126.574 198.177 126.552 198.177L122.129 198.232H122.127C122.106 198.232 122.085 198.226 122.065 198.215C122.045 198.203 122.028 198.186 122.013 198.166ZM124.259 173.428L122.299 197.824L126.378 197.774L124.259 173.428Z" fill="#3F3D56"/>
<path d="M38.1353 205.706L38.2073 205.741C38.5705 205.922 38.8642 206.286 39.0238 206.751C39.1835 207.217 39.1961 207.747 39.0587 208.225C38.9214 208.703 38.6454 209.09 38.2915 209.3C37.9376 209.51 37.5347 209.527 37.1716 209.346L37.0995 209.31L38.1353 205.706Z" fill="#3F3D56"/>
<path d="M123.554 176.326H125.095V146.712H123.554V176.326Z" fill="#3F3D56"/>
<path d="M67.4626 180.586C68.654 180.586 69.6199 179.314 69.6199 177.746C69.6199 176.178 68.654 174.906 67.4626 174.906C66.2711 174.906 65.3052 176.178 65.3052 177.746C65.3052 179.314 66.2711 180.586 67.4626 180.586Z" fill="#3F3D56"/>
<path d="M70.6041 211.548H114.987V209.073H70.6041V211.548Z" fill="#F0FC15"/>
<path d="M73.237 209.073H117.62V206.597H73.237V209.073Z" fill="#F0FC15"/>
<path d="M71.3564 207.092H115.739V204.617H71.3564V207.092Z" fill="#F0FC15"/>
<path d="M73.9892 204.617H118.372V202.142H73.9892V204.617Z" fill="#F0FC15"/>
<path d="M143.807 60.5204C145.221 60.5182 146.589 61.1888 147.657 62.4087C148.501 62.1052 149.387 62.054 150.248 62.2589C150.961 60.897 151.986 59.871 153.173 59.3306C154.361 58.7902 155.648 58.7638 156.848 59.2553C158.048 59.7467 159.097 60.7303 159.842 62.0623C160.586 63.3943 160.988 65.0048 160.988 66.6587H138.045C138.327 64.9219 139.052 63.3648 140.101 62.2476C141.15 61.1303 142.458 60.5206 143.807 60.5204Z" fill="#E2E2E2"/>
<path d="M109.292 84.952C110.629 84.9499 111.921 85.5839 112.932 86.7372C113.73 86.4503 114.566 86.4019 115.381 86.5955C116.055 85.308 117.024 84.338 118.146 83.8271C119.269 83.3162 120.486 83.2913 121.621 83.7559C122.755 84.2206 123.746 85.1504 124.451 86.4097C125.155 87.6689 125.534 89.1915 125.534 90.7551H103.844C104.11 89.1131 104.796 87.641 105.788 86.5848C106.779 85.5286 108.016 84.9522 109.292 84.952Z" fill="#E2E2E2"/>
<path d="M74.7829 44.6561C76.1742 44.654 77.5192 45.3136 78.5703 46.5135C79.4007 46.215 80.2713 46.1647 81.1184 46.3662C81.8197 45.0266 82.828 44.0173 83.9961 43.4857C85.1642 42.9542 86.4308 42.9282 87.6109 43.4116C88.791 43.8951 89.8228 44.8626 90.5554 46.1728C91.288 47.483 91.6831 49.0672 91.683 50.6941H69.1155C69.3922 48.9857 70.106 47.454 71.1375 46.355C72.169 45.256 73.4559 44.6563 74.7829 44.6561Z" fill="#E2E2E2"/>
<path d="M223.795 121.388V183.227H242.065V120.529L237.823 120.728V108.075H234.747L234.24 80.0516C235.482 78.9869 236.355 76.4582 236.355 73.5056C236.357 72.6579 236.282 71.813 236.132 70.9885C236.719 70.1518 237.08 69.0823 237.156 67.9474C237.232 66.8125 237.02 65.6763 236.553 64.7169C236.944 65.1659 237.398 65.5084 237.89 65.7245C238.381 65.9405 238.901 66.0259 239.418 65.9756C239.935 65.9253 240.439 65.7403 240.901 65.4314C241.364 65.1225 241.775 64.6958 242.11 64.1761C242.446 63.6564 242.701 63.054 242.858 62.404C243.016 61.7539 243.074 61.0691 243.029 60.3893C242.984 59.7096 242.837 59.0483 242.596 58.444C242.355 57.8397 242.025 57.3044 241.626 56.8691C242.298 56.543 242.888 55.981 243.334 55.2442C243.779 54.5074 244.063 53.624 244.154 52.6898C244.245 51.7556 244.14 50.8065 243.85 49.9455C243.56 49.0845 243.096 48.3445 242.509 47.806C241.922 47.2675 241.235 46.951 240.52 46.8909C239.806 46.8308 239.094 47.0294 238.459 47.4652C237.825 47.9009 237.293 48.5572 236.922 49.3626C236.552 50.168 236.355 51.0917 236.355 52.0336C236.355 52.1091 236.357 52.1839 236.36 52.2585C235.822 52.0424 235.255 51.981 234.698 52.0786C234.141 52.1763 233.606 52.4305 233.131 52.8242C232.655 53.2179 232.249 53.7418 231.94 54.3602C231.632 54.9787 231.428 55.6773 231.343 56.4086C230.855 56.0263 230.309 55.7883 229.744 55.7114C229.179 55.6344 228.608 55.7203 228.07 55.963C227.533 56.2057 227.042 56.5994 226.632 57.1168C226.222 57.6342 225.902 58.263 225.695 58.9593C225.488 59.6557 225.399 60.403 225.433 61.1495C225.468 61.8959 225.625 62.6235 225.894 63.2818C226.164 63.9402 226.539 64.5134 226.994 64.9617C227.448 65.4101 227.972 65.7228 228.527 65.8782C228.527 65.9156 228.525 65.9527 228.525 65.9904C228.889 67.4347 229.352 68.8325 229.908 70.1662C229.636 71.2429 229.5 72.3709 229.504 73.5055C229.504 76.4582 230.378 78.9869 231.619 80.0516L231.112 108.075H228.036V121.189L223.795 121.388ZM235.203 62.3398L235.213 62.3401C235.27 62.3401 235.326 62.3377 235.382 62.3345C235.417 62.4868 235.457 62.636 235.503 62.7819C235.409 62.6271 235.309 62.4795 235.203 62.3398Z" fill="#E2E2E2"/>
<path d="M213.735 227.245H269.198V142.788H213.735V227.245Z" fill="#3F3D56"/>
<path d="M233.99 227.245H248.943V210.067H233.99V227.245Z" fill="#E2E2E2"/>
<path d="M195.251 31.6631C195.25 31.7255 195.247 31.7874 195.247 31.85C195.247 32.9986 195.421 34.1357 195.761 35.1936C196.101 36.2514 196.599 37.2085 197.226 38.0077C197.324 38.2825 197.433 38.5502 197.552 38.8099C197.099 40.6043 196.871 42.4843 196.879 44.3753C196.879 50.8976 199.435 56.1849 202.588 56.1849C205.741 56.1849 208.298 50.8976 208.298 44.3753C208.3 42.9625 208.175 41.5543 207.925 40.1802C208.904 38.7857 209.505 37.0031 209.632 35.1117C209.759 33.2202 209.406 31.3267 208.628 29.7277C209.278 30.4759 210.035 31.0467 210.855 31.4067C211.674 31.7668 212.54 31.909 213.402 31.8251C214.263 31.7412 215.104 31.4329 215.874 30.918C216.644 30.4031 217.329 29.692 217.889 28.8259C218.449 27.9597 218.873 26.9559 219.135 25.8725C219.398 24.7891 219.495 23.6479 219.42 22.5149C219.345 21.382 219.099 20.28 218.698 19.2728C218.297 18.2657 217.748 17.3734 217.082 16.6479C218.201 16.1045 219.185 15.1679 219.928 13.9398C220.671 12.7118 221.144 11.2394 221.296 9.6824C221.448 8.12544 221.272 6.54353 220.789 5.1085C220.306 3.67346 219.533 2.44019 218.554 1.54265C217.576 0.645112 216.43 0.117629 215.239 0.0174967C214.049 -0.0826354 212.861 0.248415 211.804 0.974687C210.747 1.70096 209.861 2.79468 209.243 4.13703C208.625 5.47939 208.298 7.01906 208.298 8.58878C208.298 8.71453 208.301 8.83929 208.305 8.9637C207.409 8.60347 206.464 8.50122 205.536 8.66389C204.607 8.82657 203.716 9.25036 202.923 9.90649C202.13 10.5626 201.453 11.4357 200.939 12.4665C200.425 13.4973 200.085 14.6617 199.943 15.8805C199.13 15.2432 198.22 14.8467 197.279 14.7184C196.337 14.5901 195.385 14.7332 194.489 15.1377C193.594 15.5422 192.776 16.1984 192.092 17.0607C191.408 17.9231 190.876 18.971 190.531 20.1316C190.185 21.2922 190.036 22.5378 190.094 23.7819C190.151 25.0259 190.413 26.2387 190.863 27.3359C191.312 28.4331 191.937 29.3885 192.695 30.1357C193.453 30.883 194.325 31.4042 195.251 31.6631ZM206.394 25.7663C206.488 25.7663 206.582 25.7622 206.675 25.757C206.734 26.0108 206.801 26.2594 206.877 26.5026C206.721 26.2446 206.554 25.9986 206.378 25.7658L206.394 25.7663Z" fill="#E2E2E2"/>
<path d="M199.325 114.875H205.851L205.617 101.993V101.988L204.763 54.7515C204.108 55.2784 203.355 55.5572 202.588 55.5572C201.82 55.5572 201.067 55.2784 200.412 54.7515L199.558 101.988V101.993L199.325 114.875Z" fill="#6C63FF"/>
<path d="M187.364 124.177V227.245H217.812V122.747L210.744 123.078V101.993H194.431V123.846L187.364 124.177Z" fill="#2115FC"/>
<path d="M273.008 31.6631C273.007 31.7255 273.004 31.7874 273.004 31.85C273.003 32.9986 273.178 34.1357 273.518 35.1936C273.858 36.2514 274.356 37.2085 274.983 38.0077C275.081 38.2825 275.189 38.5502 275.309 38.8099C274.855 40.6043 274.628 42.4843 274.636 44.3753C274.636 50.8976 277.192 56.1849 280.345 56.1849C283.498 56.1849 286.054 50.8976 286.054 44.3753C286.057 42.9625 285.932 41.5543 285.682 40.1802C286.661 38.7857 287.261 37.0031 287.388 35.1117C287.516 33.2202 287.162 31.3267 286.384 29.7277C287.035 30.476 287.792 31.0467 288.612 31.4068C289.431 31.7668 290.297 31.909 291.158 31.8252C292.02 31.7413 292.86 31.4329 293.631 30.9181C294.401 30.4032 295.086 29.6921 295.646 28.826C296.206 27.9598 296.63 26.9559 296.892 25.8725C297.155 24.7892 297.252 23.6479 297.177 22.5149C297.102 21.382 296.856 20.28 296.455 19.2728C296.054 18.2657 295.505 17.3734 294.839 16.6479C295.958 16.1045 296.942 15.1679 297.685 13.9398C298.428 12.7118 298.901 11.2394 299.053 9.68241C299.204 8.12545 299.029 6.54353 298.546 5.1085C298.062 3.67346 297.29 2.44019 296.311 1.54265C295.333 0.645111 294.186 0.117629 292.996 0.0174968C291.806 -0.0826355 290.618 0.248415 289.561 0.974687C288.504 1.70096 287.618 2.79468 287 4.13704C286.381 5.47939 286.054 7.01906 286.054 8.58878C286.054 8.71453 286.058 8.83929 286.062 8.9637C285.166 8.60347 284.221 8.50122 283.293 8.66389C282.364 8.82657 281.473 9.25036 280.68 9.90649C279.887 10.5626 279.21 11.4357 278.696 12.4665C278.182 13.4973 277.842 14.6617 277.7 15.8805C276.887 15.2432 275.977 14.8467 275.035 14.7184C274.094 14.5901 273.142 14.7332 272.246 15.1377C271.351 15.5422 270.532 16.1984 269.849 17.0607C269.165 17.9231 268.632 18.971 268.287 20.1316C267.942 21.2922 267.793 22.5378 267.851 23.7819C267.908 25.0259 268.17 26.2387 268.619 27.3359C269.069 28.4331 269.694 29.3885 270.452 30.1357C271.209 30.883 272.082 31.4042 273.008 31.6631ZM284.151 25.7663C284.245 25.7663 284.339 25.7622 284.432 25.757C284.491 26.0108 284.558 26.2594 284.634 26.5026C284.478 26.2446 284.311 25.9986 284.134 25.7658L284.151 25.7663Z" fill="#E2E2E2"/>
<path d="M277.082 114.875H283.607L282.52 54.7534C281.114 55.4184 279.576 55.4184 278.17 54.7534L277.082 114.875Z" fill="#6C63FF"/>
<path d="M265.12 124.177V227.245H295.572V122.747L293.07 122.866L288.5 123.078V101.993H272.188V123.846L265.12 124.177Z" fill="#2115FC"/>
<path d="M249.741 162.883H257.264V152.982H249.741V162.883Z" fill="white"/>
<path d="M237.705 162.883H245.228V152.982H237.705V162.883Z" fill="white"/>
<path d="M225.669 162.883H233.192V152.982H225.669V162.883Z" fill="white"/>
<path d="M249.741 178.726H257.264V168.825H249.741V178.726Z" fill="white"/>
<path d="M237.705 178.726H245.228V168.825H237.705V178.726Z" fill="white"/>
<path d="M225.669 178.726H233.192V168.825H225.669V178.726Z" fill="white"/>
<path d="M249.741 194.569H257.264V184.667H249.741V194.569Z" fill="white"/>
<path d="M237.705 194.569H245.228V184.667H237.705V194.569Z" fill="white"/>
<path d="M225.669 194.569H233.192V184.667H225.669V194.569Z" fill="white"/>
<path d="M198.827 158.923H206.349V149.021H198.827V158.923Z" fill="white"/>
<path d="M198.827 174.766H206.349V164.864H198.827V174.766Z" fill="white"/>
<path d="M198.827 190.608H206.349V180.707H198.827V190.608Z" fill="white"/>
<path d="M198.827 206.451H206.349V196.549H198.827V206.451Z" fill="white"/>
<path d="M276.521 158.923H284.043V149.021H276.521V158.923Z" fill="white"/>
<path d="M276.521 174.766H284.043V164.864H276.521V174.766Z" fill="white"/>
<path d="M276.521 190.608H284.043V180.707H276.521V190.608Z" fill="white"/>
<path d="M276.521 206.451H284.043V196.549H276.521V206.451Z" fill="white"/>
<path d="M334 226.896H0V227.886H334V226.896Z" fill="#3F3D56"/>
</svg>
