<svg width="363" height="293" viewBox="0 0 363 293" fill="none" xmlns="http://www.w3.org/2000/svg">
<rect width="363" height="293" fill="white"/>
<path d="M51.8521 173.01C64.5557 173.01 74.8541 162.114 74.8541 148.674C74.8541 135.234 64.5557 124.339 51.8521 124.339C39.1484 124.339 28.8501 135.234 28.8501 148.674C28.8501 162.114 39.1484 173.01 51.8521 173.01Z" fill="#F0FC15"/>
<path d="M98.9576 286.132H98.9343C98.1243 286.131 97.3478 285.79 96.7751 285.184C96.2024 284.578 95.8802 283.756 95.8793 282.899V93.1591C95.8802 92.3022 96.2024 91.4807 96.7751 90.8748C97.3478 90.2689 98.1243 89.928 98.9343 89.9271H249.885C250.695 89.928 251.471 90.2688 252.044 90.8748C252.617 91.4807 252.939 92.3022 252.94 93.1591V240.693C252.939 241.545 252.62 242.363 252.052 242.968C251.485 243.573 250.714 243.917 249.908 243.925L98.9576 286.132Z" fill="#F2F2F2"/>
<path d="M210.53 63.12H140.446V20.1528C140.447 19.2455 140.788 18.3756 141.394 17.7341C142.001 17.0925 142.823 16.7316 143.68 16.7306H207.295C208.153 16.7316 208.975 17.0925 209.581 17.7341C210.188 18.3756 210.529 19.2455 210.53 20.1528V63.12ZM141.164 62.3595H209.811V20.1528C209.81 19.4471 209.545 18.7705 209.073 18.2715C208.602 17.7725 207.962 17.4919 207.295 17.4911H143.68C143.013 17.4919 142.374 17.7725 141.902 18.2715C141.431 18.7705 141.165 19.4471 141.164 20.1528V62.3595Z" fill="#3F3D56"/>
<path d="M160.393 33.081H190.583C191.345 33.081 192.077 33.4015 192.616 33.972C193.155 34.5424 193.458 35.3162 193.458 36.1229V81.7519H157.517V36.1229C157.517 35.3162 157.82 34.5424 158.36 33.972C158.899 33.4015 159.63 33.081 160.393 33.081Z" fill="#E6E6E6"/>
<path d="M166.323 17.4911H151.587V1.90121C151.588 1.39715 151.777 0.913908 152.114 0.557487C152.451 0.201067 152.908 0.000576655 153.384 0H164.526C165.002 0.000576655 165.459 0.201067 165.796 0.557487C166.133 0.913908 166.322 1.39715 166.323 1.90121V17.4911ZM152.306 16.7306H165.604V1.90121C165.604 1.59877 165.49 1.30881 165.288 1.09496C165.086 0.881102 164.812 0.760813 164.526 0.760482H153.384C153.098 0.760813 152.824 0.881102 152.622 1.09496C152.42 1.30881 152.306 1.59877 152.306 1.90121V16.7306Z" fill="#3F3D56"/>
<path d="M287.41 246.716C287.267 246.716 287.128 246.716 286.984 246.712C278.093 246.608 269.543 243.072 262.942 236.77C262.698 236.535 262.456 236.296 262.216 236.055L262.105 235.943V163.069L262.139 162.992C262.377 162.458 262.618 161.932 262.859 161.406C270.335 145.349 279.054 136.507 287.41 136.507C299.461 136.507 308.807 153.995 313.305 164.42C319.561 178.916 323.93 196.879 323.93 208.102C323.927 218.27 320.135 228.026 313.376 235.254C306.617 242.482 297.437 246.599 287.828 246.712C287.693 246.716 287.55 246.716 287.41 246.716ZM262.823 235.617C263.023 235.816 263.224 236.012 263.425 236.206C269.897 242.385 278.28 245.851 286.997 245.951C287.143 245.955 287.281 245.951 287.42 245.955C287.55 245.955 287.684 245.955 287.814 245.952C307.334 245.723 323.211 228.743 323.211 208.102C323.211 196.976 318.869 179.144 312.652 164.736C308.225 154.477 299.059 137.267 287.41 137.267C279.342 137.267 270.853 145.958 263.505 161.74C263.278 162.236 263.049 162.734 262.823 163.239L262.823 235.617Z" fill="#3F3D56"/>
<path d="M287.409 292.819C287.299 292.819 287.194 292.773 287.116 292.691C287.039 292.609 286.995 292.498 286.995 292.382V203.075C286.995 203.017 287.005 202.96 287.026 202.907C287.047 202.854 287.077 202.805 287.115 202.764C287.154 202.723 287.199 202.691 287.25 202.669C287.3 202.646 287.354 202.635 287.409 202.635C287.463 202.635 287.517 202.646 287.567 202.669C287.618 202.691 287.663 202.723 287.702 202.764C287.74 202.805 287.771 202.854 287.791 202.907C287.812 202.96 287.822 203.017 287.822 203.075V292.382C287.822 292.498 287.779 292.609 287.701 292.691C287.623 292.773 287.518 292.819 287.409 292.819Z" fill="#CCCCCC"/>
<path d="M72.8433 292.819C72.7337 292.819 72.6285 292.773 72.5509 292.691C72.4734 292.609 72.4298 292.498 72.4298 292.382V203.075C72.4295 203.017 72.4399 202.96 72.4606 202.907C72.4812 202.854 72.5116 202.805 72.5501 202.764C72.5885 202.723 72.6342 202.691 72.6845 202.669C72.7348 202.646 72.7888 202.635 72.8433 202.635C72.8978 202.635 72.9518 202.646 73.0021 202.669C73.0524 202.691 73.0981 202.723 73.1366 202.764C73.175 202.805 73.2054 202.854 73.226 202.907C73.2467 202.96 73.2571 203.017 73.2568 203.075V292.382C73.2568 292.498 73.2132 292.609 73.1357 292.691C73.0582 292.773 72.953 292.819 72.8433 292.819Z" fill="#CCCCCC"/>
<path d="M287.409 219.761C287.35 219.761 287.291 219.747 287.237 219.721C287.183 219.695 287.135 219.657 287.096 219.61L266.3 194.236C266.228 194.149 266.192 194.034 266.2 193.919C266.208 193.803 266.259 193.696 266.342 193.62C266.424 193.544 266.532 193.506 266.642 193.514C266.751 193.522 266.853 193.576 266.925 193.663L287.721 219.037C287.773 219.1 287.807 219.178 287.818 219.261C287.829 219.344 287.818 219.428 287.785 219.505C287.752 219.581 287.699 219.646 287.632 219.691C287.566 219.736 287.488 219.761 287.409 219.761V219.761Z" fill="#CCCCCC"/>
<path d="M287.409 234.404C287.327 234.404 287.247 234.378 287.179 234.33C287.111 234.282 287.058 234.214 287.027 234.134C286.995 234.054 286.987 233.966 287.003 233.881C287.019 233.797 287.059 233.719 287.116 233.657L298.933 221.155C299.011 221.074 299.116 221.028 299.225 221.028C299.335 221.028 299.44 221.074 299.517 221.156C299.595 221.238 299.638 221.349 299.638 221.465C299.638 221.581 299.595 221.692 299.518 221.774L287.701 234.276C287.663 234.317 287.617 234.349 287.567 234.371C287.517 234.393 287.463 234.404 287.409 234.404Z" fill="#CCCCCC"/>
<path d="M325.666 293H294.756V292.62C294.755 290.472 295.154 288.345 295.93 286.36C296.706 284.375 297.844 282.572 299.28 281.052C300.715 279.533 302.419 278.328 304.295 277.506C306.17 276.684 308.181 276.26 310.211 276.26C312.241 276.26 314.252 276.684 316.127 277.506C318.003 278.328 319.707 279.533 321.142 281.052C322.577 282.572 323.716 284.375 324.492 286.36C325.268 288.345 325.667 290.472 325.666 292.62L325.666 293ZM295.479 292.239H324.943C324.849 288.172 323.256 284.304 320.503 281.462C317.751 278.62 314.057 277.029 310.211 277.029C306.365 277.029 302.671 278.62 299.918 281.462C297.166 284.304 295.573 288.172 295.479 292.239H295.479Z" fill="#3F3D56"/>
<path d="M310.211 283.339C310.103 283.339 309.999 283.385 309.922 283.466C309.846 283.546 309.803 283.656 309.803 283.771V288.356L305.581 284.522C305.54 284.485 305.493 284.457 305.442 284.439C305.391 284.421 305.337 284.414 305.284 284.419C305.23 284.423 305.178 284.438 305.13 284.464C305.082 284.49 305.04 284.525 305.005 284.568C304.97 284.611 304.943 284.661 304.926 284.715C304.91 284.769 304.903 284.826 304.907 284.882C304.911 284.939 304.926 284.994 304.95 285.045C304.975 285.096 305.008 285.141 305.049 285.177L309.803 289.494V292.188C309.803 292.245 309.813 292.301 309.834 292.354C309.854 292.406 309.884 292.454 309.922 292.494C309.96 292.534 310.005 292.566 310.054 292.588C310.104 292.61 310.157 292.621 310.211 292.621C310.265 292.621 310.318 292.61 310.367 292.588C310.417 292.566 310.462 292.534 310.5 292.494C310.538 292.454 310.568 292.406 310.588 292.354C310.609 292.301 310.619 292.245 310.619 292.188V283.771C310.619 283.656 310.576 283.546 310.499 283.466C310.423 283.385 310.319 283.339 310.211 283.339Z" fill="#3F3D56"/>
<path d="M66.5347 293H35.6239V292.62C35.6229 290.472 36.022 288.345 36.7982 286.36C37.5745 284.375 38.7128 282.572 40.148 281.052C41.5833 279.533 43.2874 278.328 45.163 277.506C47.0387 276.684 49.049 276.26 51.0793 276.26C53.1095 276.26 55.1199 276.684 56.9955 277.506C58.8711 278.328 60.5753 279.533 62.0105 281.052C63.4458 282.572 64.5841 284.375 65.3603 286.36C66.1366 288.345 66.5356 290.472 66.5346 292.62L66.5347 293ZM36.347 292.239H65.8115C65.7177 288.172 64.1244 284.304 61.3718 281.462C58.6192 278.62 54.9254 277.029 51.0793 277.029C47.2331 277.029 43.5394 278.62 40.7867 281.462C38.0341 284.304 36.4408 288.172 36.347 292.239H36.347Z" fill="#3F3D56"/>
<path d="M51.0792 283.339C50.971 283.339 50.8672 283.385 50.7907 283.466C50.7142 283.546 50.6712 283.656 50.6712 283.771V288.356L46.4491 284.522C46.4084 284.485 46.3613 284.457 46.3103 284.439C46.2593 284.421 46.2056 284.414 46.1521 284.419C46.0985 284.423 46.0463 284.438 45.9984 284.464C45.9505 284.49 45.9079 284.525 45.8729 284.568C45.838 284.611 45.8114 284.661 45.7947 284.715C45.778 284.769 45.7716 284.826 45.7757 284.882C45.7799 284.939 45.7945 284.994 45.8188 285.045C45.8432 285.096 45.8767 285.141 45.9175 285.177L50.6712 289.494V292.188C50.6711 292.245 50.6815 292.301 50.7019 292.354C50.7224 292.406 50.7524 292.454 50.7903 292.494C50.8282 292.534 50.8732 292.566 50.9228 292.588C50.9724 292.61 51.0255 292.621 51.0792 292.621C51.1329 292.621 51.1861 292.61 51.2357 292.588C51.2852 292.566 51.3303 292.534 51.3682 292.494C51.4061 292.454 51.4361 292.406 51.4565 292.354C51.477 292.301 51.4874 292.245 51.4872 292.188V283.771C51.4872 283.656 51.4443 283.546 51.3677 283.466C51.2912 283.385 51.1874 283.339 51.0792 283.339Z" fill="#3F3D56"/>
<path d="M73.2044 246.716C73.0612 246.716 72.9217 246.716 72.7785 246.712C63.1699 246.597 53.9914 242.479 47.234 235.251C40.4765 228.023 36.6849 218.268 36.6815 208.102C36.6815 196.879 41.0505 178.916 47.3061 164.42C51.8049 153.995 61.1516 136.507 73.2044 136.507C78.1689 136.507 83.168 139.5 88.0629 145.405C88.3056 145.696 88.5488 145.996 88.7887 146.303L88.8709 146.408V242.984L88.6682 243.088C88.4263 243.212 88.1809 243.329 87.9354 243.441C83.425 245.553 78.5538 246.666 73.6216 246.712C73.4873 246.716 73.344 246.716 73.2044 246.716ZM73.2044 137.267C61.5536 137.267 52.3871 154.477 47.96 164.736C41.7427 179.143 37.4004 196.976 37.4004 208.102C37.4004 228.74 53.2768 245.719 72.7915 245.951C72.9369 245.955 73.0726 245.956 73.2139 245.955C73.3444 245.955 73.4782 245.955 73.6085 245.952C78.4459 245.907 83.2235 244.815 87.6474 242.744C87.817 242.666 87.9853 242.588 88.1521 242.506V146.682C87.944 146.418 87.7335 146.159 87.5231 145.907C82.7701 140.174 77.9528 137.267 73.2044 137.267Z" fill="#3F3D56"/>
<path d="M73.2029 219.761C73.1436 219.761 73.085 219.747 73.031 219.721C72.9771 219.695 72.9291 219.657 72.8903 219.61L52.0937 194.236C52.0221 194.149 51.9864 194.034 51.9942 193.919C52.0021 193.803 52.053 193.696 52.1358 193.62C52.2185 193.544 52.3264 193.506 52.4357 193.514C52.5449 193.522 52.6467 193.576 52.7186 193.663L73.5152 219.037C73.5671 219.1 73.6007 219.178 73.612 219.261C73.6233 219.344 73.6118 219.428 73.5789 219.505C73.546 219.581 73.4931 219.646 73.4264 219.691C73.3598 219.736 73.2822 219.761 73.2029 219.761V219.761Z" fill="#CCCCCC"/>
<path d="M73.2027 234.404C73.1209 234.404 73.041 234.378 72.973 234.33C72.905 234.282 72.852 234.214 72.8207 234.134C72.7895 234.054 72.7813 233.966 72.7972 233.881C72.8132 233.797 72.8525 233.719 72.9104 233.657L84.7273 221.155C84.805 221.074 84.91 221.028 85.0195 221.028C85.1289 221.028 85.2339 221.074 85.3113 221.156C85.3887 221.238 85.4322 221.349 85.4323 221.465C85.4325 221.581 85.3892 221.692 85.3121 221.774L73.4951 234.276C73.4568 234.317 73.4112 234.349 73.361 234.371C73.3108 234.393 73.257 234.404 73.2027 234.404Z" fill="#CCCCCC"/>
<path d="M105.677 66.162L105.943 66.7171C106.061 66.9567 106.122 67.2227 106.122 67.4928V82.5123H118.702V67.4928C118.702 67.2227 118.763 66.9567 118.881 66.7171L119.147 66.162H105.677ZM117.983 67.4928V81.7519H106.841V67.4928C106.841 67.3006 106.82 67.1091 106.776 66.9225H118.048C118.004 67.1091 117.983 67.3006 117.983 67.4928ZM121.491 66.162L121.757 66.7171C121.874 66.9567 121.936 67.2227 121.936 67.4928V82.5123H134.515V67.4928C134.516 67.2227 134.577 66.9567 134.695 66.7171L134.961 66.162H121.491ZM133.797 67.4928V81.7519H122.655V67.4928C122.655 67.3006 122.634 67.1091 122.59 66.9225H133.861C133.818 67.1091 133.796 67.3006 133.797 67.4928ZM137.304 66.162L137.57 66.7171C137.688 66.9567 137.75 67.2227 137.75 67.4928V82.5123H150.329V67.4928C150.329 67.2227 150.391 66.9567 150.509 66.7171L150.775 66.162H137.304ZM149.611 67.4928V81.7519H138.469V67.4928C138.469 67.3006 138.447 67.1091 138.404 66.9225H149.675C149.632 67.1091 149.61 67.3006 149.611 67.4928ZM153.118 66.162L153.384 66.7171C153.502 66.9567 153.564 67.2227 153.564 67.4928V82.5123H166.143V67.4928C166.143 67.2227 166.205 66.9567 166.323 66.7171L166.589 66.162H153.118ZM165.424 67.4928V81.7519H154.283V67.4928C154.283 67.3006 154.261 67.1091 154.218 66.9225H165.489C165.446 67.1091 165.424 67.3006 165.424 67.4928ZM168.932 66.162L169.198 66.7171C169.316 66.9567 169.378 67.2227 169.378 67.4928V82.5123H181.957V67.4928C181.957 67.2227 182.019 66.9567 182.137 66.7171L182.403 66.162H168.932ZM181.238 67.4928V81.7519H170.097V67.4928C170.097 67.3006 170.075 67.1091 170.032 66.9225H181.303C181.26 67.1091 181.238 67.3006 181.238 67.4928ZM184.746 66.162L185.012 66.7171C185.13 66.9567 185.192 67.2227 185.192 67.4928V82.5123H197.771V67.4928C197.771 67.2227 197.833 66.9567 197.951 66.7171L198.217 66.162H184.746ZM197.052 67.4928V81.7519H185.911V67.4928C185.911 67.3006 185.889 67.1091 185.846 66.9225H197.117C197.074 67.1091 197.052 67.3006 197.052 67.4928ZM200.56 66.162L200.826 66.7171C200.944 66.9567 201.005 67.2227 201.006 67.4928V82.5123H213.585V67.4928C213.585 67.2227 213.647 66.9567 213.764 66.7171L214.031 66.162H200.56ZM212.866 67.4928V81.7519H201.724V67.4928C201.725 67.3006 201.703 67.1091 201.66 66.9225H212.931C212.887 67.1091 212.866 67.3006 212.866 67.4928ZM216.374 66.162L216.64 66.7171C216.758 66.9567 216.819 67.2227 216.819 67.4928V82.5123H229.399V67.4928C229.399 67.2227 229.46 66.9567 229.578 66.7171L229.844 66.162H216.374ZM228.68 67.4928V81.7519H217.538V67.4928C217.538 67.3006 217.517 67.1091 217.473 66.9225H228.745C228.701 67.1091 228.68 67.3006 228.68 67.4928ZM232.188 66.162L232.454 66.7171C232.571 66.9567 232.633 67.2227 232.633 67.4928V82.5123H245.212V67.4928C245.213 67.2227 245.274 66.9567 245.392 66.7171L245.658 66.162H232.188ZM244.494 67.4928V81.7519H233.352V67.4928C233.352 67.3006 233.331 67.1091 233.287 66.9225H244.558C244.515 67.1091 244.493 67.3006 244.494 67.4928ZM232.188 66.162L232.454 66.7171C232.571 66.9567 232.633 67.2227 232.633 67.4928V82.5123H245.212V67.4928C245.213 67.2227 245.274 66.9567 245.392 66.7171L245.658 66.162H232.188ZM244.494 67.4928V81.7519H233.352V67.4928C233.352 67.3006 233.331 67.1091 233.287 66.9225H244.558C244.515 67.1091 244.493 67.3006 244.494 67.4928ZM216.374 66.162L216.64 66.7171C216.758 66.9567 216.819 67.2227 216.819 67.4928V82.5123H229.399V67.4928C229.399 67.2227 229.46 66.9567 229.578 66.7171L229.844 66.162H216.374ZM228.68 67.4928V81.7519H217.538V67.4928C217.538 67.3006 217.517 67.1091 217.473 66.9225H228.745C228.701 67.1091 228.68 67.3006 228.68 67.4928ZM200.56 66.162L200.826 66.7171C200.944 66.9567 201.005 67.2227 201.006 67.4928V82.5123H213.585V67.4928C213.585 67.2227 213.647 66.9567 213.764 66.7171L214.031 66.162H200.56ZM212.866 67.4928V81.7519H201.724V67.4928C201.725 67.3006 201.703 67.1091 201.66 66.9225H212.931C212.887 67.1091 212.866 67.3006 212.866 67.4928ZM184.746 66.162L185.012 66.7171C185.13 66.9567 185.192 67.2227 185.192 67.4928V82.5123H197.771V67.4928C197.771 67.2227 197.833 66.9567 197.951 66.7171L198.217 66.162H184.746ZM197.052 67.4928V81.7519H185.911V67.4928C185.911 67.3006 185.889 67.1091 185.846 66.9225H197.117C197.074 67.1091 197.052 67.3006 197.052 67.4928ZM168.932 66.162L169.198 66.7171C169.316 66.9567 169.378 67.2227 169.378 67.4928V82.5123H181.957V67.4928C181.957 67.2227 182.019 66.9567 182.137 66.7171L182.403 66.162H168.932ZM181.238 67.4928V81.7519H170.097V67.4928C170.097 67.3006 170.075 67.1091 170.032 66.9225H181.303C181.26 67.1091 181.238 67.3006 181.238 67.4928ZM153.118 66.162L153.384 66.7171C153.502 66.9567 153.564 67.2227 153.564 67.4928V82.5123H166.143V67.4928C166.143 67.2227 166.205 66.9567 166.323 66.7171L166.589 66.162H153.118ZM165.424 67.4928V81.7519H154.283V67.4928C154.283 67.3006 154.261 67.1091 154.218 66.9225H165.489C165.446 67.1091 165.424 67.3006 165.424 67.4928ZM137.304 66.162L137.57 66.7171C137.688 66.9567 137.75 67.2227 137.75 67.4928V82.5123H150.329V67.4928C150.329 67.2227 150.391 66.9567 150.509 66.7171L150.775 66.162H137.304ZM149.611 67.4928V81.7519H138.469V67.4928C138.469 67.3006 138.447 67.1091 138.404 66.9225H149.675C149.632 67.1091 149.61 67.3006 149.611 67.4928ZM121.491 66.162L121.757 66.7171C121.874 66.9567 121.936 67.2227 121.936 67.4928V82.5123H134.515V67.4928C134.516 67.2227 134.577 66.9567 134.695 66.7171L134.961 66.162H121.491ZM133.797 67.4928V81.7519H122.655V67.4928C122.655 67.3006 122.634 67.1091 122.59 66.9225H133.861C133.818 67.1091 133.796 67.3006 133.797 67.4928ZM105.677 66.162L105.943 66.7171C106.061 66.9567 106.122 67.2227 106.122 67.4928V82.5123H118.702V67.4928C118.702 67.2227 118.763 66.9567 118.881 66.7171L119.147 66.162H105.677ZM117.983 67.4928V81.7519H106.841V67.4928C106.841 67.3006 106.82 67.1091 106.776 66.9225H118.048C118.004 67.1091 117.983 67.3006 117.983 67.4928ZM232.188 66.162L232.454 66.7171C232.571 66.9567 232.633 67.2227 232.633 67.4928V82.5123H245.212V67.4928C245.213 67.2227 245.274 66.9567 245.392 66.7171L245.658 66.162H232.188ZM244.494 67.4928V81.7519H233.352V67.4928C233.352 67.3006 233.331 67.1091 233.287 66.9225H244.558C244.515 67.1091 244.493 67.3006 244.494 67.4928ZM216.374 66.162L216.64 66.7171C216.758 66.9567 216.819 67.2227 216.819 67.4928V82.5123H229.399V67.4928C229.399 67.2227 229.46 66.9567 229.578 66.7171L229.844 66.162H216.374ZM228.68 67.4928V81.7519H217.538V67.4928C217.538 67.3006 217.517 67.1091 217.473 66.9225H228.745C228.701 67.1091 228.68 67.3006 228.68 67.4928ZM200.56 66.162L200.826 66.7171C200.944 66.9567 201.005 67.2227 201.006 67.4928V82.5123H213.585V67.4928C213.585 67.2227 213.647 66.9567 213.764 66.7171L214.031 66.162H200.56ZM212.866 67.4928V81.7519H201.724V67.4928C201.725 67.3006 201.703 67.1091 201.66 66.9225H212.931C212.887 67.1091 212.866 67.3006 212.866 67.4928ZM184.746 66.162L185.012 66.7171C185.13 66.9567 185.192 67.2227 185.192 67.4928V82.5123H197.771V67.4928C197.771 67.2227 197.833 66.9567 197.951 66.7171L198.217 66.162H184.746ZM197.052 67.4928V81.7519H185.911V67.4928C185.911 67.3006 185.889 67.1091 185.846 66.9225H197.117C197.074 67.1091 197.052 67.3006 197.052 67.4928ZM168.932 66.162L169.198 66.7171C169.316 66.9567 169.378 67.2227 169.378 67.4928V82.5123H181.957V67.4928C181.957 67.2227 182.019 66.9567 182.137 66.7171L182.403 66.162H168.932ZM181.238 67.4928V81.7519H170.097V67.4928C170.097 67.3006 170.075 67.1091 170.032 66.9225H181.303C181.26 67.1091 181.238 67.3006 181.238 67.4928ZM153.118 66.162L153.384 66.7171C153.502 66.9567 153.564 67.2227 153.564 67.4928V82.5123H166.143V67.4928C166.143 67.2227 166.205 66.9567 166.323 66.7171L166.589 66.162H153.118ZM165.424 67.4928V81.7519H154.283V67.4928C154.283 67.3006 154.261 67.1091 154.218 66.9225H165.489C165.446 67.1091 165.424 67.3006 165.424 67.4928ZM137.304 66.162L137.57 66.7171C137.688 66.9567 137.75 67.2227 137.75 67.4928V82.5123H150.329V67.4928C150.329 67.2227 150.391 66.9567 150.509 66.7171L150.775 66.162H137.304ZM149.611 67.4928V81.7519H138.469V67.4928C138.469 67.3006 138.447 67.1091 138.404 66.9225H149.675C149.632 67.1091 149.61 67.3006 149.611 67.4928ZM121.491 66.162L121.757 66.7171C121.874 66.9567 121.936 67.2227 121.936 67.4928V82.5123H134.515V67.4928C134.516 67.2227 134.577 66.9567 134.695 66.7171L134.961 66.162H121.491ZM133.797 67.4928V81.7519H122.655V67.4928C122.655 67.3006 122.634 67.1091 122.59 66.9225H133.861C133.818 67.1091 133.796 67.3006 133.797 67.4928ZM105.677 66.162L105.943 66.7171C106.061 66.9567 106.122 67.2227 106.122 67.4928V82.5123H118.702V67.4928C118.702 67.2227 118.763 66.9567 118.881 66.7171L119.147 66.162H105.677ZM117.983 67.4928V81.7519H106.841V67.4928C106.841 67.3006 106.82 67.1091 106.776 66.9225H118.048C118.004 67.1091 117.983 67.3006 117.983 67.4928ZM232.188 66.162L232.454 66.7171C232.571 66.9567 232.633 67.2227 232.633 67.4928V82.5123H245.212V67.4928C245.213 67.2227 245.274 66.9567 245.392 66.7171L245.658 66.162H232.188ZM244.494 67.4928V81.7519H233.352V67.4928C233.352 67.3006 233.331 67.1091 233.287 66.9225H244.558C244.515 67.1091 244.493 67.3006 244.494 67.4928ZM216.374 66.162L216.64 66.7171C216.758 66.9567 216.819 67.2227 216.819 67.4928V82.5123H229.399V67.4928C229.399 67.2227 229.46 66.9567 229.578 66.7171L229.844 66.162H216.374ZM228.68 67.4928V81.7519H217.538V67.4928C217.538 67.3006 217.517 67.1091 217.473 66.9225H228.745C228.701 67.1091 228.68 67.3006 228.68 67.4928ZM200.56 66.162L200.826 66.7171C200.944 66.9567 201.005 67.2227 201.006 67.4928V82.5123H213.585V67.4928C213.585 67.2227 213.647 66.9567 213.764 66.7171L214.031 66.162H200.56ZM212.866 67.4928V81.7519H201.724V67.4928C201.725 67.3006 201.703 67.1091 201.66 66.9225H212.931C212.887 67.1091 212.866 67.3006 212.866 67.4928ZM184.746 66.162L185.012 66.7171C185.13 66.9567 185.192 67.2227 185.192 67.4928V82.5123H197.771V67.4928C197.771 67.2227 197.833 66.9567 197.951 66.7171L198.217 66.162H184.746ZM197.052 67.4928V81.7519H185.911V67.4928C185.911 67.3006 185.889 67.1091 185.846 66.9225H197.117C197.074 67.1091 197.052 67.3006 197.052 67.4928ZM168.932 66.162L169.198 66.7171C169.316 66.9567 169.378 67.2227 169.378 67.4928V82.5123H181.957V67.4928C181.957 67.2227 182.019 66.9567 182.137 66.7171L182.403 66.162H168.932ZM181.238 67.4928V81.7519H170.097V67.4928C170.097 67.3006 170.075 67.1091 170.032 66.9225H181.303C181.26 67.1091 181.238 67.3006 181.238 67.4928ZM153.118 66.162L153.384 66.7171C153.502 66.9567 153.564 67.2227 153.564 67.4928V82.5123H166.143V67.4928C166.143 67.2227 166.205 66.9567 166.323 66.7171L166.589 66.162H153.118ZM165.424 67.4928V81.7519H154.283V67.4928C154.283 67.3006 154.261 67.1091 154.218 66.9225H165.489C165.446 67.1091 165.424 67.3006 165.424 67.4928ZM137.304 66.162L137.57 66.7171C137.688 66.9567 137.75 67.2227 137.75 67.4928V82.5123H150.329V67.4928C150.329 67.2227 150.391 66.9567 150.509 66.7171L150.775 66.162H137.304ZM149.611 67.4928V81.7519H138.469V67.4928C138.469 67.3006 138.447 67.1091 138.404 66.9225H149.675C149.632 67.1091 149.61 67.3006 149.611 67.4928ZM121.491 66.162L121.757 66.7171C121.874 66.9567 121.936 67.2227 121.936 67.4928V82.5123H134.515V67.4928C134.516 67.2227 134.577 66.9567 134.695 66.7171L134.961 66.162H121.491ZM133.797 67.4928V81.7519H122.655V67.4928C122.655 67.3006 122.634 67.1091 122.59 66.9225H133.861C133.818 67.1091 133.796 67.3006 133.797 67.4928ZM105.677 66.162L105.943 66.7171C106.061 66.9567 106.122 67.2227 106.122 67.4928V82.5123H118.702V67.4928C118.702 67.2227 118.763 66.9567 118.881 66.7171L119.147 66.162H105.677ZM117.983 67.4928V81.7519H106.841V67.4928C106.841 67.3006 106.82 67.1091 106.776 66.9225H118.048C118.004 67.1091 117.983 67.3006 117.983 67.4928ZM232.188 66.162L232.454 66.7171C232.571 66.9567 232.633 67.2227 232.633 67.4928V82.5123H245.212V67.4928C245.213 67.2227 245.274 66.9567 245.392 66.7171L245.658 66.162H232.188ZM244.494 67.4928V81.7519H233.352V67.4928C233.352 67.3006 233.331 67.1091 233.287 66.9225H244.558C244.515 67.1091 244.493 67.3006 244.494 67.4928ZM216.374 66.162L216.64 66.7171C216.758 66.9567 216.819 67.2227 216.819 67.4928V82.5123H229.399V67.4928C229.399 67.2227 229.46 66.9567 229.578 66.7171L229.844 66.162H216.374ZM228.68 67.4928V81.7519H217.538V67.4928C217.538 67.3006 217.517 67.1091 217.473 66.9225H228.745C228.701 67.1091 228.68 67.3006 228.68 67.4928ZM200.56 66.162L200.826 66.7171C200.944 66.9567 201.005 67.2227 201.006 67.4928V82.5123H213.585V67.4928C213.585 67.2227 213.647 66.9567 213.764 66.7171L214.031 66.162H200.56ZM212.866 67.4928V81.7519H201.724V67.4928C201.725 67.3006 201.703 67.1091 201.66 66.9225H212.931C212.887 67.1091 212.866 67.3006 212.866 67.4928ZM184.746 66.162L185.012 66.7171C185.13 66.9567 185.192 67.2227 185.192 67.4928V82.5123H197.771V67.4928C197.771 67.2227 197.833 66.9567 197.951 66.7171L198.217 66.162H184.746ZM197.052 67.4928V81.7519H185.911V67.4928C185.911 67.3006 185.889 67.1091 185.846 66.9225H197.117C197.074 67.1091 197.052 67.3006 197.052 67.4928ZM168.932 66.162L169.198 66.7171C169.316 66.9567 169.378 67.2227 169.378 67.4928V82.5123H181.957V67.4928C181.957 67.2227 182.019 66.9567 182.137 66.7171L182.403 66.162H168.932ZM181.238 67.4928V81.7519H170.097V67.4928C170.097 67.3006 170.075 67.1091 170.032 66.9225H181.303C181.26 67.1091 181.238 67.3006 181.238 67.4928ZM153.118 66.162L153.384 66.7171C153.502 66.9567 153.564 67.2227 153.564 67.4928V82.5123H166.143V67.4928C166.143 67.2227 166.205 66.9567 166.323 66.7171L166.589 66.162H153.118ZM165.424 67.4928V81.7519H154.283V67.4928C154.283 67.3006 154.261 67.1091 154.218 66.9225H165.489C165.446 67.1091 165.424 67.3006 165.424 67.4928ZM137.304 66.162L137.57 66.7171C137.688 66.9567 137.75 67.2227 137.75 67.4928V82.5123H150.329V67.4928C150.329 67.2227 150.391 66.9567 150.509 66.7171L150.775 66.162H137.304ZM149.611 67.4928V81.7519H138.469V67.4928C138.469 67.3006 138.447 67.1091 138.404 66.9225H149.675C149.632 67.1091 149.61 67.3006 149.611 67.4928ZM121.491 66.162L121.757 66.7171C121.874 66.9567 121.936 67.2227 121.936 67.4928V82.5123H134.515V67.4928C134.516 67.2227 134.577 66.9567 134.695 66.7171L134.961 66.162H121.491ZM133.797 67.4928V81.7519H122.655V67.4928C122.655 67.3006 122.634 67.1091 122.59 66.9225H133.861C133.818 67.1091 133.796 67.3006 133.797 67.4928ZM105.677 66.162L105.943 66.7171C106.061 66.9567 106.122 67.2227 106.122 67.4928V82.5123H118.702V67.4928C118.702 67.2227 118.763 66.9567 118.881 66.7171L119.147 66.162H105.677ZM117.983 67.4928V81.7519H106.841V67.4928C106.841 67.3006 106.82 67.1091 106.776 66.9225H118.048C118.004 67.1091 117.983 67.3006 117.983 67.4928ZM232.188 66.162L232.454 66.7171C232.571 66.9567 232.633 67.2227 232.633 67.4928V82.5123H245.212V67.4928C245.213 67.2227 245.274 66.9567 245.392 66.7171L245.658 66.162H232.188ZM244.494 67.4928V81.7519H233.352V67.4928C233.352 67.3006 233.331 67.1091 233.287 66.9225H244.558C244.515 67.1091 244.493 67.3006 244.494 67.4928ZM216.64 66.7171C216.758 66.9567 216.819 67.2227 216.819 67.4928V82.5123H229.399V67.4928C229.399 67.2227 229.46 66.9567 229.578 66.7171L229.844 66.162H216.374L216.64 66.7171ZM228.745 66.9225C228.701 67.1091 228.68 67.3006 228.68 67.4928V81.7519H217.538V67.4928C217.538 67.3006 217.517 67.1091 217.473 66.9225H228.745ZM200.826 66.7171C200.944 66.9567 201.005 67.2227 201.006 67.4928V82.5123H213.585V67.4928C213.585 67.2227 213.647 66.9567 213.764 66.7171L214.031 66.162H200.56L200.826 66.7171ZM212.931 66.9225C212.887 67.1091 212.866 67.3006 212.866 67.4928V81.7519H201.724V67.4928C201.725 67.3006 201.703 67.1091 201.66 66.9225H212.931ZM185.012 66.7171C185.13 66.9567 185.192 67.2227 185.192 67.4928V82.5123H197.771V67.4928C197.771 67.2227 197.833 66.9567 197.951 66.7171L198.217 66.162H184.746L185.012 66.7171ZM197.117 66.9225C197.074 67.1091 197.052 67.3006 197.052 67.4928V81.7519H185.911V67.4928C185.911 67.3006 185.889 67.1091 185.846 66.9225H197.117ZM169.198 66.7171C169.316 66.9567 169.378 67.2227 169.378 67.4928V82.5123H181.957V67.4928C181.957 67.2227 182.019 66.9567 182.137 66.7171L182.403 66.162H168.932L169.198 66.7171ZM181.303 66.9225C181.26 67.1091 181.238 67.3006 181.238 67.4928V81.7519H170.097V67.4928C170.097 67.3006 170.075 67.1091 170.032 66.9225H181.303ZM153.384 66.7171C153.502 66.9567 153.564 67.2227 153.564 67.4928V82.5123H166.143V67.4928C166.143 67.2227 166.205 66.9567 166.323 66.7171L166.589 66.162H153.118L153.384 66.7171ZM165.489 66.9225C165.446 67.1091 165.424 67.3006 165.424 67.4928V81.7519H154.283V67.4928C154.283 67.3006 154.261 67.1091 154.218 66.9225H165.489ZM137.57 66.7171C137.688 66.9567 137.75 67.2227 137.75 67.4928V82.5123H150.329V67.4928C150.329 67.2227 150.391 66.9567 150.509 66.7171L150.775 66.162H137.304L137.57 66.7171ZM149.675 66.9225C149.632 67.1091 149.61 67.3006 149.611 67.4928V81.7519H138.469V67.4928C138.469 67.3006 138.447 67.1091 138.404 66.9225H149.675ZM121.757 66.7171C121.874 66.9567 121.936 67.2227 121.936 67.4928V82.5123H134.515V67.4928C134.516 67.2227 134.577 66.9567 134.695 66.7171L134.961 66.162H121.491L121.757 66.7171ZM133.861 66.9225C133.818 67.1091 133.796 67.3006 133.797 67.4928V81.7519H122.655V67.4928C122.655 67.3006 122.634 67.1091 122.59 66.9225H133.861ZM105.943 66.7171C106.061 66.9567 106.122 67.2227 106.122 67.4928V82.5123H118.702V67.4928C118.702 67.2227 118.763 66.9567 118.881 66.7171L119.147 66.162H105.677L105.943 66.7171ZM118.048 66.9225C118.004 67.1091 117.983 67.3006 117.983 67.4928V81.7519H106.841V67.4928C106.841 67.3006 106.82 67.1091 106.776 66.9225H118.048ZM232.454 66.7171C232.571 66.9567 232.633 67.2227 232.633 67.4928V82.5123H245.212V67.4928C245.213 67.2227 245.274 66.9567 245.392 66.7171L245.658 66.162H232.188L232.454 66.7171ZM244.558 66.9225C244.515 67.1091 244.493 67.3006 244.494 67.4928V81.7519H233.352V67.4928C233.352 67.3006 233.331 67.1091 233.287 66.9225H244.558ZM216.64 66.7171C216.758 66.9567 216.819 67.2227 216.819 67.4928V82.5123H229.399V67.4928C229.399 67.2227 229.46 66.9567 229.578 66.7171L229.844 66.162H216.374L216.64 66.7171ZM228.745 66.9225C228.701 67.1091 228.68 67.3006 228.68 67.4928V81.7519H217.538V67.4928C217.538 67.3006 217.517 67.1091 217.473 66.9225H228.745ZM200.826 66.7171C200.944 66.9567 201.005 67.2227 201.006 67.4928V82.5123H213.585V67.4928C213.585 67.2227 213.647 66.9567 213.764 66.7171L214.031 66.162H200.56L200.826 66.7171ZM212.931 66.9225C212.887 67.1091 212.866 67.3006 212.866 67.4928V81.7519H201.724V67.4928C201.725 67.3006 201.703 67.1091 201.66 66.9225H212.931ZM185.012 66.7171C185.13 66.9567 185.192 67.2227 185.192 67.4928V82.5123H197.771V67.4928C197.771 67.2227 197.833 66.9567 197.951 66.7171L198.217 66.162H184.746L185.012 66.7171ZM197.117 66.9225C197.074 67.1091 197.052 67.3006 197.052 67.4928V81.7519H185.911V67.4928C185.911 67.3006 185.889 67.1091 185.846 66.9225H197.117ZM169.198 66.7171C169.316 66.9567 169.378 67.2227 169.378 67.4928V82.5123H181.957V67.4928C181.957 67.2227 182.019 66.9567 182.137 66.7171L182.403 66.162H168.932L169.198 66.7171ZM181.303 66.9225C181.26 67.1091 181.238 67.3006 181.238 67.4928V81.7519H170.097V67.4928C170.097 67.3006 170.075 67.1091 170.032 66.9225H181.303ZM153.384 66.7171C153.502 66.9567 153.564 67.2227 153.564 67.4928V82.5123H166.143V67.4928C166.143 67.2227 166.205 66.9567 166.323 66.7171L166.589 66.162H153.118L153.384 66.7171ZM165.489 66.9225C165.446 67.1091 165.424 67.3006 165.424 67.4928V81.7519H154.283V67.4928C154.283 67.3006 154.261 67.1091 154.218 66.9225H165.489ZM137.57 66.7171C137.688 66.9567 137.75 67.2227 137.75 67.4928V82.5123H150.329V67.4928C150.329 67.2227 150.391 66.9567 150.509 66.7171L150.775 66.162H137.304L137.57 66.7171ZM149.675 66.9225C149.632 67.1091 149.61 67.3006 149.611 67.4928V81.7519H138.469V67.4928C138.469 67.3006 138.447 67.1091 138.404 66.9225H149.675ZM121.757 66.7171C121.874 66.9567 121.936 67.2227 121.936 67.4928V82.5123H134.515V67.4928C134.516 67.2227 134.577 66.9567 134.695 66.7171L134.961 66.162H121.491L121.757 66.7171ZM133.861 66.9225C133.818 67.1091 133.796 67.3006 133.797 67.4928V81.7519H122.655V67.4928C122.655 67.3006 122.634 67.1091 122.59 66.9225H133.861ZM105.943 66.7171C106.061 66.9567 106.122 67.2227 106.122 67.4928V82.5123H118.702V67.4928C118.702 67.2227 118.763 66.9567 118.881 66.7171L119.147 66.162H105.677L105.943 66.7171ZM118.048 66.9225C118.004 67.1091 117.983 67.3006 117.983 67.4928V81.7519H106.841V67.4928C106.841 67.3006 106.82 67.1091 106.776 66.9225H118.048ZM259.589 84.7938H255.305C255.068 83.9191 254.57 83.1493 253.884 82.6006C253.198 82.0519 252.362 81.754 251.502 81.7519H249.166V67.4928C249.167 67.1867 249.112 66.8833 249.004 66.5992C249.411 66.3455 249.728 65.9571 249.906 65.4939C250.084 65.0306 250.113 64.5183 249.988 64.036C249.863 63.5538 249.592 63.1283 249.216 62.8253C248.84 62.5223 248.381 62.3587 247.908 62.3596H103.427C102.954 62.3587 102.495 62.5223 102.119 62.8253C101.743 63.1283 101.471 63.5538 101.347 64.036C101.222 64.5183 101.251 65.0306 101.429 65.4939C101.606 65.9571 101.924 66.3455 102.331 66.5992C102.223 66.8833 102.168 67.1867 102.169 67.4928V81.7519H99.8328C98.9729 81.754 98.137 82.0519 97.4511 82.6006C96.7652 83.1493 96.2665 83.9191 96.0303 84.7938H91.3868C90.5293 84.7952 89.7073 85.1561 89.1009 85.7976C88.4946 86.4391 88.1534 87.3088 88.1521 88.216V288.983C88.154 289.89 88.4953 290.76 89.1016 291.401C89.7078 292.042 90.5294 292.404 91.3868 292.405H259.589C260.446 292.404 261.268 292.043 261.875 291.402C262.481 290.76 262.822 289.891 262.823 288.983V88.216C262.822 87.3088 262.481 86.4391 261.875 85.7976C261.268 85.1561 260.446 84.7952 259.589 84.7938ZM262.105 288.983C262.104 289.527 261.946 290.057 261.653 290.503C261.359 290.949 260.944 291.289 260.462 291.478C260.183 291.59 259.887 291.647 259.589 291.645H91.3868C91.0883 291.647 90.7922 291.59 90.5133 291.478C90.0318 291.289 89.6163 290.949 89.3227 290.503C89.0292 290.057 88.8715 289.527 88.8709 288.983V88.216C88.8717 87.5103 89.137 86.8337 89.6086 86.3347C90.0803 85.8357 90.7197 85.5551 91.3868 85.5543H96.6053L96.6629 85.2501C96.814 84.4782 97.2115 83.7847 97.7887 83.2862C98.3659 82.7877 99.0877 82.5145 99.8328 82.5123H102.888V67.4928C102.888 67.1834 102.967 66.8798 103.118 66.6145L103.341 66.2228L102.934 66.0631C102.617 65.9414 102.35 65.7051 102.182 65.3959C102.013 65.0866 101.952 64.7242 102.011 64.3726C102.07 64.0209 102.244 63.7024 102.503 63.4733C102.762 63.2442 103.089 63.1191 103.427 63.12H247.908C248.246 63.1191 248.573 63.2442 248.832 63.4733C249.091 63.7024 249.265 64.0209 249.324 64.3726C249.383 64.7242 249.322 65.0866 249.153 65.3959C248.984 65.7051 248.718 65.9414 248.4 66.0631L247.994 66.2228L248.217 66.6145C248.368 66.8798 248.447 67.1834 248.447 67.4928V82.5123H251.502C252.247 82.5144 252.969 82.7877 253.546 83.2862C254.123 83.7847 254.521 84.4782 254.672 85.2501L254.73 85.5543H259.589C260.256 85.5551 260.895 85.8357 261.367 86.3347C261.838 86.8337 262.104 87.5103 262.105 88.216L262.105 288.983ZM105.677 66.162L105.943 66.7171C106.061 66.9567 106.122 67.2227 106.122 67.4928V82.5123H118.702V67.4928C118.702 67.2227 118.763 66.9567 118.881 66.7171L119.147 66.162H105.677ZM117.983 67.4928V81.7519H106.841V67.4928C106.841 67.3006 106.82 67.1091 106.776 66.9225H118.048C118.004 67.1091 117.983 67.3006 117.983 67.4928ZM121.491 66.162L121.757 66.7171C121.874 66.9567 121.936 67.2227 121.936 67.4928V82.5123H134.515V67.4928C134.516 67.2227 134.577 66.9567 134.695 66.7171L134.961 66.162H121.491ZM133.797 67.4928V81.7519H122.655V67.4928C122.655 67.3006 122.634 67.1091 122.59 66.9225H133.861C133.818 67.1091 133.796 67.3006 133.797 67.4928ZM137.304 66.162L137.57 66.7171C137.688 66.9567 137.75 67.2227 137.75 67.4928V82.5123H150.329V67.4928C150.329 67.2227 150.391 66.9567 150.509 66.7171L150.775 66.162H137.304ZM149.611 67.4928V81.7519H138.469V67.4928C138.469 67.3006 138.447 67.1091 138.404 66.9225H149.675C149.632 67.1091 149.61 67.3006 149.611 67.4928ZM153.118 66.162L153.384 66.7171C153.502 66.9567 153.564 67.2227 153.564 67.4928V82.5123H166.143V67.4928C166.143 67.2227 166.205 66.9567 166.323 66.7171L166.589 66.162H153.118ZM165.424 67.4928V81.7519H154.283V67.4928C154.283 67.3006 154.261 67.1091 154.218 66.9225H165.489C165.446 67.1091 165.424 67.3006 165.424 67.4928ZM168.932 66.162L169.198 66.7171C169.316 66.9567 169.378 67.2227 169.378 67.4928V82.5123H181.957V67.4928C181.957 67.2227 182.019 66.9567 182.137 66.7171L182.403 66.162H168.932ZM181.238 67.4928V81.7519H170.097V67.4928C170.097 67.3006 170.075 67.1091 170.032 66.9225H181.303C181.26 67.1091 181.238 67.3006 181.238 67.4928ZM184.746 66.162L185.012 66.7171C185.13 66.9567 185.192 67.2227 185.192 67.4928V82.5123H197.771V67.4928C197.771 67.2227 197.833 66.9567 197.951 66.7171L198.217 66.162H184.746ZM197.052 67.4928V81.7519H185.911V67.4928C185.911 67.3006 185.889 67.1091 185.846 66.9225H197.117C197.074 67.1091 197.052 67.3006 197.052 67.4928ZM200.56 66.162L200.826 66.7171C200.944 66.9567 201.005 67.2227 201.006 67.4928V82.5123H213.585V67.4928C213.585 67.2227 213.647 66.9567 213.764 66.7171L214.031 66.162H200.56ZM212.866 67.4928V81.7519H201.724V67.4928C201.725 67.3006 201.703 67.1091 201.66 66.9225H212.931C212.887 67.1091 212.866 67.3006 212.866 67.4928ZM216.374 66.162L216.64 66.7171C216.758 66.9567 216.819 67.2227 216.819 67.4928V82.5123H229.399V67.4928C229.399 67.2227 229.46 66.9567 229.578 66.7171L229.844 66.162H216.374ZM228.68 67.4928V81.7519H217.538V67.4928C217.538 67.3006 217.517 67.1091 217.473 66.9225H228.745C228.701 67.1091 228.68 67.3006 228.68 67.4928ZM232.188 66.162L232.454 66.7171C232.571 66.9567 232.633 67.2227 232.633 67.4928V82.5123H245.212V67.4928C245.213 67.2227 245.274 66.9567 245.392 66.7171L245.658 66.162H232.188ZM244.494 67.4928V81.7519H233.352V67.4928C233.352 67.3006 233.331 67.1091 233.287 66.9225H244.558C244.515 67.1091 244.493 67.3006 244.494 67.4928ZM105.677 66.162L105.943 66.7171C106.061 66.9567 106.122 67.2227 106.122 67.4928V82.5123H118.702V67.4928C118.702 67.2227 118.763 66.9567 118.881 66.7171L119.147 66.162H105.677ZM117.983 67.4928V81.7519H106.841V67.4928C106.841 67.3006 106.82 67.1091 106.776 66.9225H118.048C118.004 67.1091 117.983 67.3006 117.983 67.4928ZM121.491 66.162L121.757 66.7171C121.874 66.9567 121.936 67.2227 121.936 67.4928V82.5123H134.515V67.4928C134.516 67.2227 134.577 66.9567 134.695 66.7171L134.961 66.162H121.491ZM133.797 67.4928V81.7519H122.655V67.4928C122.655 67.3006 122.634 67.1091 122.59 66.9225H133.861C133.818 67.1091 133.796 67.3006 133.797 67.4928ZM137.304 66.162L137.57 66.7171C137.688 66.9567 137.75 67.2227 137.75 67.4928V82.5123H150.329V67.4928C150.329 67.2227 150.391 66.9567 150.509 66.7171L150.775 66.162H137.304ZM149.611 67.4928V81.7519H138.469V67.4928C138.469 67.3006 138.447 67.1091 138.404 66.9225H149.675C149.632 67.1091 149.61 67.3006 149.611 67.4928ZM153.118 66.162L153.384 66.7171C153.502 66.9567 153.564 67.2227 153.564 67.4928V82.5123H166.143V67.4928C166.143 67.2227 166.205 66.9567 166.323 66.7171L166.589 66.162H153.118ZM165.424 67.4928V81.7519H154.283V67.4928C154.283 67.3006 154.261 67.1091 154.218 66.9225H165.489C165.446 67.1091 165.424 67.3006 165.424 67.4928ZM168.932 66.162L169.198 66.7171C169.316 66.9567 169.378 67.2227 169.378 67.4928V82.5123H181.957V67.4928C181.957 67.2227 182.019 66.9567 182.137 66.7171L182.403 66.162H168.932ZM181.238 67.4928V81.7519H170.097V67.4928C170.097 67.3006 170.075 67.1091 170.032 66.9225H181.303C181.26 67.1091 181.238 67.3006 181.238 67.4928ZM184.746 66.162L185.012 66.7171C185.13 66.9567 185.192 67.2227 185.192 67.4928V82.5123H197.771V67.4928C197.771 67.2227 197.833 66.9567 197.951 66.7171L198.217 66.162H184.746ZM197.052 67.4928V81.7519H185.911V67.4928C185.911 67.3006 185.889 67.1091 185.846 66.9225H197.117C197.074 67.1091 197.052 67.3006 197.052 67.4928ZM200.56 66.162L200.826 66.7171C200.944 66.9567 201.005 67.2227 201.006 67.4928V82.5123H213.585V67.4928C213.585 67.2227 213.647 66.9567 213.764 66.7171L214.031 66.162H200.56ZM212.866 67.4928V81.7519H201.724V67.4928C201.725 67.3006 201.703 67.1091 201.66 66.9225H212.931C212.887 67.1091 212.866 67.3006 212.866 67.4928ZM216.374 66.162L216.64 66.7171C216.758 66.9567 216.819 67.2227 216.819 67.4928V82.5123H229.399V67.4928C229.399 67.2227 229.46 66.9567 229.578 66.7171L229.844 66.162H216.374ZM228.68 67.4928V81.7519H217.538V67.4928C217.538 67.3006 217.517 67.1091 217.473 66.9225H228.745C228.701 67.1091 228.68 67.3006 228.68 67.4928ZM232.188 66.162L232.454 66.7171C232.571 66.9567 232.633 67.2227 232.633 67.4928V82.5123H245.212V67.4928C245.213 67.2227 245.274 66.9567 245.392 66.7171L245.658 66.162H232.188ZM244.494 67.4928V81.7519H233.352V67.4928C233.352 67.3006 233.331 67.1091 233.287 66.9225H244.558C244.515 67.1091 244.493 67.3006 244.494 67.4928ZM105.677 66.162L105.943 66.7171C106.061 66.9567 106.122 67.2227 106.122 67.4928V82.5123H118.702V67.4928C118.702 67.2227 118.763 66.9567 118.881 66.7171L119.147 66.162H105.677ZM117.983 67.4928V81.7519H106.841V67.4928C106.841 67.3006 106.82 67.1091 106.776 66.9225H118.048C118.004 67.1091 117.983 67.3006 117.983 67.4928ZM121.491 66.162L121.757 66.7171C121.874 66.9567 121.936 67.2227 121.936 67.4928V82.5123H134.515V67.4928C134.516 67.2227 134.577 66.9567 134.695 66.7171L134.961 66.162H121.491ZM133.797 67.4928V81.7519H122.655V67.4928C122.655 67.3006 122.634 67.1091 122.59 66.9225H133.861C133.818 67.1091 133.796 67.3006 133.797 67.4928ZM137.304 66.162L137.57 66.7171C137.688 66.9567 137.75 67.2227 137.75 67.4928V82.5123H150.329V67.4928C150.329 67.2227 150.391 66.9567 150.509 66.7171L150.775 66.162H137.304ZM149.611 67.4928V81.7519H138.469V67.4928C138.469 67.3006 138.447 67.1091 138.404 66.9225H149.675C149.632 67.1091 149.61 67.3006 149.611 67.4928ZM153.118 66.162L153.384 66.7171C153.502 66.9567 153.564 67.2227 153.564 67.4928V82.5123H166.143V67.4928C166.143 67.2227 166.205 66.9567 166.323 66.7171L166.589 66.162H153.118ZM165.424 67.4928V81.7519H154.283V67.4928C154.283 67.3006 154.261 67.1091 154.218 66.9225H165.489C165.446 67.1091 165.424 67.3006 165.424 67.4928ZM168.932 66.162L169.198 66.7171C169.316 66.9567 169.378 67.2227 169.378 67.4928V82.5123H181.957V67.4928C181.957 67.2227 182.019 66.9567 182.137 66.7171L182.403 66.162H168.932ZM181.238 67.4928V81.7519H170.097V67.4928C170.097 67.3006 170.075 67.1091 170.032 66.9225H181.303C181.26 67.1091 181.238 67.3006 181.238 67.4928ZM184.746 66.162L185.012 66.7171C185.13 66.9567 185.192 67.2227 185.192 67.4928V82.5123H197.771V67.4928C197.771 67.2227 197.833 66.9567 197.951 66.7171L198.217 66.162H184.746ZM197.052 67.4928V81.7519H185.911V67.4928C185.911 67.3006 185.889 67.1091 185.846 66.9225H197.117C197.074 67.1091 197.052 67.3006 197.052 67.4928ZM200.56 66.162L200.826 66.7171C200.944 66.9567 201.005 67.2227 201.006 67.4928V82.5123H213.585V67.4928C213.585 67.2227 213.647 66.9567 213.764 66.7171L214.031 66.162H200.56ZM212.866 67.4928V81.7519H201.724V67.4928C201.725 67.3006 201.703 67.1091 201.66 66.9225H212.931C212.887 67.1091 212.866 67.3006 212.866 67.4928ZM216.374 66.162L216.64 66.7171C216.758 66.9567 216.819 67.2227 216.819 67.4928V82.5123H229.399V67.4928C229.399 67.2227 229.46 66.9567 229.578 66.7171L229.844 66.162H216.374ZM228.68 67.4928V81.7519H217.538V67.4928C217.538 67.3006 217.517 67.1091 217.473 66.9225H228.745C228.701 67.1091 228.68 67.3006 228.68 67.4928ZM232.188 66.162L232.454 66.7171C232.571 66.9567 232.633 67.2227 232.633 67.4928V82.5123H245.212V67.4928C245.213 67.2227 245.274 66.9567 245.392 66.7171L245.658 66.162H232.188ZM244.494 67.4928V81.7519H233.352V67.4928C233.352 67.3006 233.331 67.1091 233.287 66.9225H244.558C244.515 67.1091 244.493 67.3006 244.494 67.4928ZM105.677 66.162L105.943 66.7171C106.061 66.9567 106.122 67.2227 106.122 67.4928V82.5123H118.702V67.4928C118.702 67.2227 118.763 66.9567 118.881 66.7171L119.147 66.162H105.677ZM117.983 67.4928V81.7519H106.841V67.4928C106.841 67.3006 106.82 67.1091 106.776 66.9225H118.048C118.004 67.1091 117.983 67.3006 117.983 67.4928ZM121.491 66.162L121.757 66.7171C121.874 66.9567 121.936 67.2227 121.936 67.4928V82.5123H134.515V67.4928C134.516 67.2227 134.577 66.9567 134.695 66.7171L134.961 66.162H121.491ZM133.797 67.4928V81.7519H122.655V67.4928C122.655 67.3006 122.634 67.1091 122.59 66.9225H133.861C133.818 67.1091 133.796 67.3006 133.797 67.4928ZM137.304 66.162L137.57 66.7171C137.688 66.9567 137.75 67.2227 137.75 67.4928V82.5123H150.329V67.4928C150.329 67.2227 150.391 66.9567 150.509 66.7171L150.775 66.162H137.304ZM149.611 67.4928V81.7519H138.469V67.4928C138.469 67.3006 138.447 67.1091 138.404 66.9225H149.675C149.632 67.1091 149.61 67.3006 149.611 67.4928ZM153.118 66.162L153.384 66.7171C153.502 66.9567 153.564 67.2227 153.564 67.4928V82.5123H166.143V67.4928C166.143 67.2227 166.205 66.9567 166.323 66.7171L166.589 66.162H153.118ZM165.424 67.4928V81.7519H154.283V67.4928C154.283 67.3006 154.261 67.1091 154.218 66.9225H165.489C165.446 67.1091 165.424 67.3006 165.424 67.4928ZM168.932 66.162L169.198 66.7171C169.316 66.9567 169.378 67.2227 169.378 67.4928V82.5123H181.957V67.4928C181.957 67.2227 182.019 66.9567 182.137 66.7171L182.403 66.162H168.932ZM181.238 67.4928V81.7519H170.097V67.4928C170.097 67.3006 170.075 67.1091 170.032 66.9225H181.303C181.26 67.1091 181.238 67.3006 181.238 67.4928ZM184.746 66.162L185.012 66.7171C185.13 66.9567 185.192 67.2227 185.192 67.4928V82.5123H197.771V67.4928C197.771 67.2227 197.833 66.9567 197.951 66.7171L198.217 66.162H184.746ZM197.052 67.4928V81.7519H185.911V67.4928C185.911 67.3006 185.889 67.1091 185.846 66.9225H197.117C197.074 67.1091 197.052 67.3006 197.052 67.4928ZM200.56 66.162L200.826 66.7171C200.944 66.9567 201.005 67.2227 201.006 67.4928V82.5123H213.585V67.4928C213.585 67.2227 213.647 66.9567 213.764 66.7171L214.031 66.162H200.56ZM212.866 67.4928V81.7519H201.724V67.4928C201.725 67.3006 201.703 67.1091 201.66 66.9225H212.931C212.887 67.1091 212.866 67.3006 212.866 67.4928ZM216.374 66.162L216.64 66.7171C216.758 66.9567 216.819 67.2227 216.819 67.4928V82.5123H229.399V67.4928C229.399 67.2227 229.46 66.9567 229.578 66.7171L229.844 66.162H216.374ZM228.68 67.4928V81.7519H217.538V67.4928C217.538 67.3006 217.517 67.1091 217.473 66.9225H228.745C228.701 67.1091 228.68 67.3006 228.68 67.4928ZM232.188 66.162L232.454 66.7171C232.571 66.9567 232.633 67.2227 232.633 67.4928V82.5123H245.212V67.4928C245.213 67.2227 245.274 66.9567 245.392 66.7171L245.658 66.162H232.188ZM244.494 67.4928V81.7519H233.352V67.4928C233.352 67.3006 233.331 67.1091 233.287 66.9225H244.558C244.515 67.1091 244.493 67.3006 244.494 67.4928Z" fill="#3F3D56"/>
<path d="M148.407 132.704H121.903C121.345 132.704 120.81 132.469 120.415 132.051C120.021 131.633 119.799 131.067 119.798 130.477V115.539C119.799 114.949 120.021 114.383 120.415 113.965C120.81 113.547 121.345 113.313 121.903 113.312H148.407C148.965 113.313 149.501 113.547 149.895 113.965C150.29 114.383 150.512 114.949 150.513 115.539V130.477C150.512 131.067 150.29 131.633 149.895 132.051C149.501 132.469 148.965 132.704 148.407 132.704Z" fill="#2115FC"/>
<path d="M188.74 132.704H162.236C161.678 132.704 161.142 132.469 160.748 132.051C160.353 131.633 160.131 131.067 160.13 130.477V115.539C160.131 114.949 160.353 114.383 160.748 113.965C161.142 113.547 161.678 113.313 162.236 113.312H188.74C189.298 113.313 189.833 113.547 190.228 113.965C190.622 114.383 190.844 114.949 190.845 115.539V130.477C190.844 131.067 190.622 131.633 190.228 132.051C189.833 132.469 189.298 132.704 188.74 132.704Z" fill="#2115FC"/>
<path d="M229.072 132.704H202.568C202.01 132.704 201.475 132.469 201.08 132.051C200.685 131.633 200.463 131.067 200.463 130.477V115.539C200.463 114.949 200.685 114.383 201.08 113.965C201.475 113.547 202.01 113.313 202.568 113.312H229.072C229.63 113.313 230.165 113.547 230.56 113.965C230.955 114.383 231.177 114.949 231.177 115.539V130.477C231.177 131.067 230.955 131.633 230.56 132.051C230.165 132.469 229.63 132.704 229.072 132.704Z" fill="#2115FC"/>
<path d="M148.407 182.516H121.903C121.345 182.515 120.81 182.28 120.415 181.863C120.021 181.445 119.799 180.879 119.798 180.288V165.351C119.799 164.76 120.021 164.194 120.415 163.777C120.81 163.359 121.345 163.124 121.903 163.123H148.407C148.965 163.124 149.501 163.359 149.895 163.777C150.29 164.194 150.512 164.76 150.513 165.351V180.288C150.512 180.879 150.29 181.445 149.895 181.863C149.501 182.28 148.965 182.515 148.407 182.516Z" fill="#2115FC"/>
<path d="M188.74 182.516H162.236C161.678 182.515 161.142 182.28 160.748 181.863C160.353 181.445 160.131 180.879 160.13 180.288V165.351C160.131 164.76 160.353 164.194 160.748 163.777C161.142 163.359 161.678 163.124 162.236 163.123H188.74C189.298 163.124 189.833 163.359 190.228 163.777C190.622 164.194 190.844 164.76 190.845 165.351V180.288C190.844 180.879 190.622 181.445 190.228 181.863C189.833 182.28 189.298 182.515 188.74 182.516Z" fill="#2115FC"/>
<path d="M229.072 182.516H202.568C202.01 182.515 201.475 182.28 201.08 181.863C200.685 181.445 200.463 180.879 200.463 180.288V165.351C200.463 164.76 200.685 164.194 201.08 163.777C201.475 163.359 202.01 163.124 202.568 163.123H229.072C229.63 163.124 230.165 163.359 230.56 163.777C230.955 164.194 231.177 164.76 231.177 165.351V180.288C231.177 180.879 230.955 181.445 230.56 181.863C230.165 182.28 229.63 182.515 229.072 182.516Z" fill="#2115FC"/>
<path d="M148.407 232.327H121.903C121.345 232.327 120.81 232.092 120.415 231.674C120.021 231.257 119.799 230.69 119.798 230.1V215.163C119.799 214.572 120.021 214.006 120.415 213.588C120.81 213.171 121.345 212.936 121.903 212.935H148.407C148.965 212.936 149.501 213.171 149.895 213.588C150.29 214.006 150.512 214.572 150.513 215.163V230.1C150.512 230.69 150.29 231.257 149.895 231.674C149.501 232.092 148.965 232.327 148.407 232.327Z" fill="#2115FC"/>
<path d="M188.74 232.327H162.236C161.678 232.327 161.142 232.092 160.748 231.674C160.353 231.257 160.131 230.69 160.13 230.1V215.163C160.131 214.572 160.353 214.006 160.748 213.588C161.142 213.171 161.678 212.936 162.236 212.935H188.74C189.298 212.936 189.833 213.171 190.228 213.588C190.622 214.006 190.844 214.572 190.845 215.163V230.1C190.844 230.69 190.622 231.257 190.228 231.674C189.833 232.092 189.298 232.327 188.74 232.327Z" fill="#2115FC"/>
<path d="M229.072 232.327H202.568C202.01 232.327 201.475 232.092 201.08 231.674C200.685 231.257 200.463 230.69 200.463 230.1V215.163C200.463 214.572 200.685 214.006 201.08 213.588C201.475 213.171 202.01 212.936 202.568 212.935H229.072C229.63 212.936 230.165 213.171 230.56 213.588C230.955 214.006 231.177 214.572 231.177 215.163V230.1C231.177 230.69 230.955 231.257 230.56 231.674C230.165 232.092 229.63 232.327 229.072 232.327Z" fill="#2115FC"/>
<path d="M144.116 134.621H113.413C112.671 134.62 111.96 134.308 111.435 133.753C110.911 133.198 110.616 132.445 110.615 131.66V114.356C110.616 113.571 110.911 112.819 111.435 112.263C111.96 111.708 112.671 111.396 113.413 111.395H144.116C144.858 111.396 145.57 111.708 146.094 112.263C146.619 112.819 146.914 113.571 146.915 114.356V131.66C146.914 132.445 146.619 133.198 146.094 133.753C145.57 134.308 144.858 134.62 144.116 134.621ZM113.413 112.156C112.862 112.156 112.333 112.388 111.944 112.801C111.554 113.213 111.334 113.773 111.334 114.356V131.66C111.334 132.243 111.554 132.803 111.944 133.215C112.333 133.628 112.862 133.86 113.413 133.86H144.116C144.668 133.86 145.196 133.628 145.586 133.215C145.976 132.803 146.196 132.243 146.196 131.66V114.356C146.196 113.773 145.976 113.213 145.586 112.801C145.196 112.388 144.668 112.156 144.116 112.156H113.413Z" fill="#3F3D56"/>
<path d="M190.839 134.621H160.136C159.394 134.62 158.683 134.308 158.158 133.753C157.634 133.198 157.339 132.445 157.338 131.66V114.356C157.339 113.571 157.634 112.819 158.158 112.263C158.683 111.708 159.394 111.396 160.136 111.395H190.839C191.581 111.396 192.293 111.708 192.817 112.263C193.342 112.819 193.637 113.571 193.638 114.356V131.66C193.637 132.445 193.342 133.198 192.817 133.753C192.293 134.308 191.581 134.62 190.839 134.621ZM160.136 112.156C159.585 112.156 159.056 112.388 158.666 112.801C158.276 113.213 158.057 113.773 158.057 114.356V131.66C158.057 132.243 158.276 132.803 158.666 133.215C159.056 133.628 159.585 133.86 160.136 133.86H190.839C191.391 133.86 191.919 133.628 192.309 133.215C192.699 132.803 192.918 132.243 192.919 131.66V114.356C192.918 113.773 192.699 113.213 192.309 112.801C191.919 112.388 191.391 112.156 190.839 112.156H160.136Z" fill="#3F3D56"/>
<path d="M237.562 134.621H206.859C206.117 134.62 205.406 134.308 204.881 133.753C204.356 133.198 204.061 132.445 204.06 131.66V114.356C204.061 113.571 204.356 112.819 204.881 112.263C205.406 111.708 206.117 111.396 206.859 111.395H237.562C238.304 111.396 239.015 111.708 239.54 112.263C240.065 112.819 240.36 113.571 240.36 114.356V131.66C240.36 132.445 240.065 133.198 239.54 133.753C239.015 134.308 238.304 134.62 237.562 134.621ZM206.859 112.156C206.308 112.156 205.779 112.388 205.389 112.801C204.999 113.213 204.78 113.773 204.779 114.356V131.66C204.78 132.243 204.999 132.803 205.389 133.215C205.779 133.628 206.308 133.86 206.859 133.86H237.562C238.113 133.86 238.642 133.628 239.032 133.215C239.422 132.803 239.641 132.243 239.642 131.66V114.356C239.641 113.773 239.422 113.213 239.032 112.801C238.642 112.388 238.113 112.156 237.562 112.156H206.859Z" fill="#3F3D56"/>
<path d="M144.116 184.432H113.413C112.671 184.431 111.96 184.119 111.435 183.564C110.911 183.009 110.616 182.257 110.615 181.472V164.168C110.616 163.383 110.911 162.63 111.435 162.075C111.96 161.52 112.671 161.208 113.413 161.207H144.116C144.858 161.208 145.57 161.52 146.094 162.075C146.619 162.63 146.914 163.383 146.915 164.168V181.472C146.914 182.257 146.619 183.009 146.094 183.564C145.57 184.119 144.858 184.431 144.116 184.432ZM113.413 161.967C112.862 161.968 112.333 162.2 111.944 162.613C111.554 163.025 111.334 163.584 111.334 164.168V181.472C111.334 182.055 111.554 182.614 111.944 183.027C112.333 183.439 112.862 183.671 113.413 183.672H144.116C144.668 183.671 145.196 183.439 145.586 183.027C145.976 182.614 146.196 182.055 146.196 181.472V164.168C146.196 163.584 145.976 163.025 145.586 162.613C145.196 162.2 144.668 161.968 144.116 161.967H113.413Z" fill="#3F3D56"/>
<path d="M190.839 184.432H160.136C159.394 184.431 158.683 184.119 158.158 183.564C157.634 183.009 157.339 182.257 157.338 181.472V164.168C157.339 163.383 157.634 162.63 158.158 162.075C158.683 161.52 159.394 161.208 160.136 161.207H190.839C191.581 161.208 192.293 161.52 192.817 162.075C193.342 162.63 193.637 163.383 193.638 164.168V181.472C193.637 182.257 193.342 183.009 192.817 183.564C192.293 184.119 191.581 184.431 190.839 184.432ZM160.136 161.967C159.585 161.968 159.056 162.2 158.666 162.613C158.276 163.025 158.057 163.584 158.057 164.168V181.472C158.057 182.055 158.276 182.614 158.666 183.027C159.056 183.439 159.585 183.671 160.136 183.672H190.839C191.391 183.671 191.919 183.439 192.309 183.027C192.699 182.614 192.918 182.055 192.919 181.472V164.168C192.918 163.584 192.699 163.025 192.309 162.613C191.919 162.2 191.391 161.968 190.839 161.967H160.136Z" fill="#3F3D56"/>
<path d="M237.562 184.432H206.859C206.117 184.431 205.406 184.119 204.881 183.564C204.356 183.009 204.061 182.257 204.06 181.472V164.168C204.061 163.383 204.356 162.63 204.881 162.075C205.406 161.52 206.117 161.208 206.859 161.207H237.562C238.304 161.208 239.015 161.52 239.54 162.075C240.065 162.63 240.36 163.383 240.36 164.168V181.472C240.36 182.257 240.065 183.009 239.54 183.564C239.015 184.119 238.304 184.431 237.562 184.432ZM206.859 161.967C206.308 161.968 205.779 162.2 205.389 162.613C204.999 163.025 204.78 163.584 204.779 164.168V181.472C204.78 182.055 204.999 182.614 205.389 183.027C205.779 183.439 206.308 183.671 206.859 183.672H237.562C238.113 183.671 238.642 183.439 239.032 183.027C239.422 182.614 239.641 182.055 239.642 181.472V164.168C239.641 163.584 239.422 163.025 239.032 162.613C238.642 162.2 238.113 161.968 237.562 161.967H206.859Z" fill="#3F3D56"/>
<path d="M144.116 234.244H113.413C112.671 234.243 111.96 233.931 111.435 233.376C110.911 232.821 110.616 232.068 110.615 231.283V213.979C110.616 213.194 110.911 212.442 111.435 211.887C111.96 211.332 112.671 211.019 113.413 211.018H144.116C144.858 211.019 145.57 211.332 146.094 211.887C146.619 212.442 146.914 213.194 146.915 213.979V231.283C146.914 232.068 146.619 232.821 146.094 233.376C145.57 233.931 144.858 234.243 144.116 234.244ZM113.413 211.779C112.862 211.78 112.333 212.012 111.944 212.424C111.554 212.837 111.334 213.396 111.334 213.979V231.283C111.334 231.867 111.554 232.426 111.944 232.838C112.333 233.251 112.862 233.483 113.413 233.483H144.116C144.668 233.483 145.196 233.251 145.586 232.838C145.976 232.426 146.196 231.867 146.196 231.283V213.979C146.196 213.396 145.976 212.837 145.586 212.424C145.196 212.012 144.668 211.78 144.116 211.779H113.413Z" fill="#3F3D56"/>
<path d="M190.839 234.244H160.136C159.394 234.243 158.683 233.931 158.158 233.376C157.634 232.821 157.339 232.068 157.338 231.283V213.979C157.339 213.194 157.634 212.442 158.158 211.887C158.683 211.332 159.394 211.019 160.136 211.018H190.839C191.581 211.019 192.293 211.332 192.817 211.887C193.342 212.442 193.637 213.194 193.638 213.979V231.283C193.637 232.068 193.342 232.821 192.817 233.376C192.293 233.931 191.581 234.243 190.839 234.244ZM160.136 211.779C159.585 211.78 159.056 212.012 158.666 212.424C158.276 212.837 158.057 213.396 158.057 213.979V231.283C158.057 231.867 158.276 232.426 158.666 232.838C159.056 233.251 159.585 233.483 160.136 233.483H190.839C191.391 233.483 191.919 233.251 192.309 232.838C192.699 232.426 192.918 231.867 192.919 231.283V213.979C192.918 213.396 192.699 212.837 192.309 212.424C191.919 212.012 191.391 211.78 190.839 211.779H160.136Z" fill="#3F3D56"/>
<path d="M237.562 234.244H206.859C206.117 234.243 205.406 233.931 204.881 233.376C204.356 232.821 204.061 232.068 204.06 231.283V213.979C204.061 213.194 204.356 212.442 204.881 211.887C205.406 211.332 206.117 211.019 206.859 211.018H237.562C238.304 211.019 239.015 211.332 239.54 211.887C240.065 212.442 240.36 213.194 240.36 213.979V231.283C240.36 232.068 240.065 232.821 239.54 233.376C239.015 233.931 238.304 234.243 237.562 234.244ZM206.859 211.779C206.308 211.78 205.779 212.012 205.389 212.424C204.999 212.837 204.78 213.396 204.779 213.979V231.283C204.78 231.867 204.999 232.426 205.389 232.838C205.779 233.251 206.308 233.483 206.859 233.483H237.562C238.113 233.483 238.642 233.251 239.032 232.838C239.422 232.426 239.641 231.867 239.642 231.283V213.979C239.641 213.396 239.422 212.837 239.032 212.424C238.642 212.012 238.113 211.78 237.562 211.779H206.859Z" fill="#3F3D56"/>
<path d="M362.641 292.976H0.359406C0.264086 292.976 0.172669 292.936 0.105267 292.864C0.0378656 292.793 0 292.696 0 292.596C0 292.495 0.0378656 292.398 0.105267 292.327C0.172669 292.255 0.264086 292.215 0.359406 292.215H362.641C362.736 292.215 362.827 292.255 362.895 292.327C362.962 292.398 363 292.495 363 292.596C363 292.696 362.962 292.793 362.895 292.864C362.827 292.936 362.736 292.976 362.641 292.976Z" fill="#3F3D56"/>
<path d="M193.638 256.173C193.648 255.305 193.331 254.468 192.759 253.847C192.186 253.226 191.403 252.871 190.583 252.86H175.488V292.215H193.638V256.173Z" fill="#3F3D56"/>
<path d="M175.847 291.835H156.978V256.283C156.979 255.325 157.339 254.407 157.98 253.73C158.62 253.052 159.487 252.671 160.393 252.67H175.847V291.835ZM157.697 291.075H175.128V253.431H160.393C159.678 253.432 158.993 253.732 158.488 254.267C157.982 254.802 157.698 255.526 157.697 256.283V291.075Z" fill="#3F3D56"/>
<path d="M159.314 274.914C159.91 274.914 160.393 274.404 160.393 273.774C160.393 273.144 159.91 272.633 159.314 272.633C158.719 272.633 158.236 273.144 158.236 273.774C158.236 274.404 158.719 274.914 159.314 274.914Z" fill="#3F3D56"/>
</svg>
