<svg width="54" height="54" viewBox="0 0 54 54" fill="none" xmlns="http://www.w3.org/2000/svg">
<path d="M30.1153 22.0563H31.673C32.0862 22.0563 32.4824 21.876 32.7745 21.5551C33.0666 21.2342 33.2307 20.7989 33.2307 20.345C33.2307 19.8912 33.0666 19.4559 32.7745 19.135C32.4824 18.8141 32.0862 18.6338 31.673 18.6338H30.1153C29.7022 18.6338 29.306 18.8141 29.0139 19.135C28.7218 19.4559 28.5577 19.8912 28.5577 20.345C28.5577 20.7989 28.7218 21.2342 29.0139 21.5551C29.306 21.876 29.7022 22.0563 30.1153 22.0563V22.0563ZM30.1153 28.9014H31.673C32.0862 28.9014 32.4824 28.7211 32.7745 28.4002C33.0666 28.0792 33.2307 27.644 33.2307 27.1901C33.2307 26.7362 33.0666 26.301 32.7745 25.9801C32.4824 25.6591 32.0862 25.4788 31.673 25.4788H30.1153C29.7022 25.4788 29.306 25.6591 29.0139 25.9801C28.7218 26.301 28.5577 26.7362 28.5577 27.1901C28.5577 27.644 28.7218 28.0792 29.0139 28.4002C29.306 28.7211 29.7022 28.9014 30.1153 28.9014V28.9014ZM22.3269 22.0563H23.8846C24.2977 22.0563 24.6939 21.876 24.986 21.5551C25.2782 21.2342 25.4423 20.7989 25.4423 20.345C25.4423 19.8912 25.2782 19.4559 24.986 19.135C24.6939 18.8141 24.2977 18.6338 23.8846 18.6338H22.3269C21.9138 18.6338 21.5176 18.8141 21.2254 19.135C20.9333 19.4559 20.7692 19.8912 20.7692 20.345C20.7692 20.7989 20.9333 21.2342 21.2254 21.5551C21.5176 21.876 21.9138 22.0563 22.3269 22.0563V22.0563ZM22.3269 28.9014H23.8846C24.2977 28.9014 24.6939 28.7211 24.986 28.4002C25.2782 28.0792 25.4423 27.644 25.4423 27.1901C25.4423 26.7362 25.2782 26.301 24.986 25.9801C24.6939 25.6591 24.2977 25.4788 23.8846 25.4788H22.3269C21.9138 25.4788 21.5176 25.6591 21.2254 25.9801C20.9333 26.301 20.7692 26.7362 20.7692 27.1901C20.7692 27.644 20.9333 28.0792 21.2254 28.4002C21.5176 28.7211 21.9138 28.9014 22.3269 28.9014V28.9014ZM41.0192 42.5915H39.4615V13.5C39.4615 13.0461 39.2974 12.6108 39.0053 12.2899C38.7131 11.969 38.3169 11.7887 37.9038 11.7887H16.0961C15.683 11.7887 15.2868 11.969 14.9947 12.2899C14.7025 12.6108 14.5384 13.0461 14.5384 13.5V42.5915H12.9807C12.5676 42.5915 12.1714 42.7718 11.8793 43.0927C11.5871 43.4137 11.423 43.8489 11.423 44.3028C11.423 44.7566 11.5871 45.1919 11.8793 45.5128C12.1714 45.8338 12.5676 46.0141 12.9807 46.0141H41.0192C41.4323 46.0141 41.8285 45.8338 42.1206 45.5128C42.4128 45.1919 42.5769 44.7566 42.5769 44.3028C42.5769 43.8489 42.4128 43.4137 42.1206 43.0927C41.8285 42.7718 41.4323 42.5915 41.0192 42.5915ZM28.5577 42.5915H25.4423V35.7464H28.5577V42.5915ZM36.3461 42.5915H31.673V34.0352C31.673 33.5813 31.5089 33.1461 31.2168 32.8251C30.9247 32.5042 30.5285 32.3239 30.1153 32.3239H23.8846C23.4714 32.3239 23.0752 32.5042 22.7831 32.8251C22.491 33.1461 22.3269 33.5813 22.3269 34.0352V42.5915H17.6538V15.2112H36.3461V42.5915Z" fill="#2115FC"/>
<path d="M4.33846 4.05632H7.84615C8.12307 4.05632 8.30769 3.8535 8.30769 3.54928C8.30769 3.24505 8.12307 3.04224 7.84615 3.04224H3.23076C2.95384 3.04224 2.76923 3.24505 2.76923 3.54928V8.6197C2.76923 8.92393 2.95384 9.12674 3.23076 9.12674C3.50769 9.12674 3.6923 8.92393 3.6923 8.6197V4.76618L7.52307 8.97463C7.70769 9.17745 7.98461 9.17745 8.16923 8.97463C8.35384 8.77181 8.35384 8.46759 8.16923 8.26477L4.33846 4.05632Z" fill="#3F3D56"/>
<path d="M50.7692 44.8732C50.4923 44.8732 50.3077 45.076 50.3077 45.3802V49.2337L46.4769 45.0253C46.2923 44.8225 46.0154 44.8225 45.8308 45.0253C45.6462 45.2281 45.6462 45.5323 45.8308 45.7351L49.6616 49.9436H46.1539C45.8769 49.9436 45.6923 50.1464 45.6923 50.4506C45.6923 50.7549 45.8769 50.9577 46.1539 50.9577H50.7692C51.0462 50.9577 51.2308 50.7549 51.2308 50.4506V45.3802C51.2308 45.076 51.0462 44.8732 50.7692 44.8732Z" fill="#3F3D56"/>
<path d="M7.84615 49.9436H4.33846L8.16923 45.7351C8.35384 45.5323 8.35384 45.2281 8.16923 45.0253C7.98461 44.8225 7.70769 44.8225 7.52307 45.0253L3.6923 49.2337V45.3802C3.6923 45.076 3.50769 44.8732 3.23076 44.8732C2.95384 44.8732 2.76923 45.076 2.76923 45.3802V50.4506C2.76923 50.5013 2.76923 50.6027 2.81538 50.6535C2.86153 50.7549 2.95384 50.8563 3.04615 50.907C3.0923 50.9577 3.18461 50.9577 3.23076 50.9577H7.84615C8.12307 50.9577 8.30769 50.7549 8.30769 50.4506C8.30769 50.1464 8.12307 49.9436 7.84615 49.9436Z" fill="#3F3D56"/>
<path d="M49.875 3.04224H44.9712C44.6769 3.04224 44.4808 3.24505 44.4808 3.54928C44.4808 3.8535 44.6769 4.05632 44.9712 4.05632H48.6981L44.6279 8.26477C44.4317 8.46759 44.4317 8.77181 44.6279 8.97463C44.824 9.17745 45.1183 9.17745 45.3144 8.97463L49.3846 4.76618V8.6197C49.3846 8.92393 49.5808 9.12674 49.875 9.12674C50.1692 9.12674 50.3654 8.92393 50.3654 8.6197V3.54928C50.3654 3.24505 50.1692 3.04224 49.875 3.04224Z" fill="#3F3D56"/>
</svg>
