<svg width="54" height="54" viewBox="0 0 54 54" fill="none" xmlns="http://www.w3.org/2000/svg">
<path d="M27.1391 24.9721C26.9554 24.9721 26.7759 25.0145 26.6232 25.0938C26.4704 25.1732 26.3514 25.286 26.2811 25.418C26.2108 25.55 26.1924 25.6952 26.2283 25.8353C26.2641 25.9755 26.3525 26.1042 26.4824 26.2052C26.6123 26.3062 26.7778 26.375 26.9579 26.4029C27.1381 26.4307 27.3248 26.4164 27.4945 26.3618C27.6642 26.3071 27.8092 26.2145 27.9113 26.0957C28.0133 25.9769 28.0678 25.8373 28.0678 25.6944C28.0678 25.5029 27.97 25.3191 27.7958 25.1837C27.6216 25.0482 27.3854 24.9721 27.1391 24.9721ZM33.64 19.9159H20.6383C19.8993 19.9159 19.1907 20.1442 18.6682 20.5506C18.1457 20.957 17.8522 21.5081 17.8522 22.0828V29.306C17.8522 29.8807 18.1457 30.4319 18.6682 30.8383C19.1907 31.2447 19.8993 31.473 20.6383 31.473H31.4018L34.838 34.1528C34.9248 34.2197 35.0277 34.2727 35.1408 34.3086C35.254 34.3446 35.3751 34.3628 35.4974 34.3622C35.6192 34.3647 35.74 34.3449 35.8503 34.3045C36.0199 34.2503 36.165 34.1582 36.2675 34.04C36.37 33.9217 36.4251 33.7825 36.426 33.6399V22.0828C36.426 21.5081 36.1325 20.957 35.61 20.5506C35.0875 20.1442 34.3789 19.9159 33.64 19.9159ZM34.5687 31.8991L32.4419 30.2378C32.3552 30.1709 32.2523 30.1179 32.1391 30.082C32.026 30.046 31.9048 30.0278 31.7826 30.0283H20.6383C20.3919 30.0283 20.1557 29.9522 19.9816 29.8168C19.8074 29.6813 19.7096 29.4976 19.7096 29.306V22.0828C19.7096 21.8913 19.8074 21.7076 19.9816 21.5721C20.1557 21.4366 20.3919 21.3605 20.6383 21.3605H33.64C33.8863 21.3605 34.1225 21.4366 34.2967 21.5721C34.4708 21.7076 34.5687 21.8913 34.5687 22.0828V31.8991ZM23.4243 24.9721C23.2407 24.9721 23.0611 25.0145 22.9084 25.0938C22.7557 25.1732 22.6366 25.286 22.5663 25.418C22.496 25.55 22.4777 25.6952 22.5135 25.8353C22.5493 25.9755 22.6378 26.1042 22.7676 26.2052C22.8975 26.3062 23.063 26.375 23.2432 26.4029C23.4233 26.4307 23.61 26.4164 23.7797 26.3618C23.9494 26.3071 24.0945 26.2145 24.1965 26.0957C24.2986 25.9769 24.353 25.8373 24.353 25.6944C24.353 25.5029 24.2552 25.3191 24.081 25.1837C23.9069 25.0482 23.6706 24.9721 23.4243 24.9721V24.9721ZM30.8539 24.9721C30.6702 24.9721 30.4907 25.0145 30.3379 25.0938C30.1852 25.1732 30.0662 25.286 29.9959 25.418C29.9256 25.55 29.9072 25.6952 29.943 25.8353C29.9789 25.9755 30.0673 26.1042 30.1972 26.2052C30.3271 26.3062 30.4926 26.375 30.6727 26.4029C30.8529 26.4307 31.0396 26.4164 31.2093 26.3618C31.379 26.3071 31.524 26.2145 31.6261 26.0957C31.7281 25.9769 31.7826 25.8373 31.7826 25.6944C31.7826 25.5029 31.6847 25.3191 31.5106 25.1837C31.3364 25.0482 31.1002 24.9721 30.8539 24.9721Z" fill="#2115FC"/>
<path d="M6.86439 29.107C7.45733 29.1108 8.0275 28.8789 8.44946 28.4623C8.87141 28.0457 9.11059 27.4786 9.11439 26.8856C9.11456 22.6979 10.575 18.6414 13.2443 15.4146C15.9135 12.1878 19.6244 9.99286 23.7378 9.20774C27.8513 8.42261 32.1098 9.09647 35.7798 11.1133C39.4499 13.13 42.3018 16.3635 43.8444 20.2568C45.3869 24.15 45.5236 28.4593 44.2308 32.4424C42.938 36.4256 40.2967 39.8333 36.7618 42.0785C33.2269 44.3238 29.0197 45.2661 24.8647 44.7432C20.7098 44.2203 16.8673 42.2649 13.999 39.2137L19.3647 39.248C19.9576 39.2518 20.5278 39.0199 20.9497 38.6033C21.3717 38.1867 21.6109 37.6196 21.6147 37.0266C21.6184 36.4337 21.3865 35.8635 20.9699 35.4416C20.5534 35.0196 19.9862 34.7804 19.3933 34.7766L9.26555 34.7118C8.6726 34.708 8.10243 34.94 7.68048 35.3565C7.25852 35.7731 7.01934 36.3403 7.01555 36.9332L6.95119 46.9939C6.94739 47.5868 7.1793 48.157 7.59589 48.5789C8.01249 49.0009 8.57964 49.2401 9.17258 49.2439C9.76553 49.2477 10.3357 49.0158 10.7577 48.5992C11.1796 48.1826 11.4188 47.6154 11.4226 47.0225L11.4479 43.0653C15.1483 46.6482 19.9723 48.8436 25.1046 49.2802C30.2368 49.7169 35.3624 48.3681 39.6149 45.4618C43.8674 42.5556 46.986 38.2701 48.4436 33.3299C49.9011 28.3897 49.6082 23.0977 47.6143 18.3485C45.6204 13.5993 42.0478 9.68429 37.5005 7.26515C32.9532 4.846 27.7101 4.07117 22.6574 5.07162C17.6047 6.07206 13.0525 8.78643 9.77013 12.7559C6.48778 16.7253 4.67669 21.7064 4.64299 26.857C4.6392 27.4499 4.87111 28.0201 5.2877 28.4421C5.70429 28.864 6.27144 29.1032 6.86439 29.107Z" fill="#3F3D56"/>
</svg>
