<svg width="54" height="55" viewBox="0 0 54 55" fill="none" xmlns="http://www.w3.org/2000/svg">
<path d="M39.1305 26.9543C36.6604 20.5568 32.0136 16.5873 27 16.5873C21.9865 16.5873 17.3397 20.5568 14.8696 26.9543C14.8023 27.1264 14.7675 27.3122 14.7675 27.5C14.7675 27.6878 14.8023 27.8735 14.8696 28.0456C17.3397 34.4432 21.9865 38.4127 27 38.4127C32.0136 38.4127 36.6604 34.4432 39.1305 28.0456C39.1978 27.8735 39.2326 27.6878 39.2326 27.5C39.2326 27.3122 39.1978 27.1264 39.1305 26.9543V26.9543ZM27 35.6845C23.1115 35.6845 19.4552 32.5607 17.3397 27.5C19.4552 22.4392 23.1115 19.3155 27 19.3155C30.8886 19.3155 34.5449 22.4392 36.6604 27.5C34.5449 32.5607 30.8886 35.6845 27 35.6845ZM27 22.0436C26.0326 22.0436 25.0869 22.3636 24.2826 22.9632C23.4782 23.5627 22.8513 24.4149 22.4811 25.4119C22.1109 26.4089 22.014 27.506 22.2027 28.5645C22.3915 29.6229 22.8573 30.5951 23.5414 31.3582C24.2254 32.1213 25.097 32.6409 26.0458 32.8515C26.9946 33.062 27.9781 32.954 28.8719 32.541C29.7656 32.128 30.5295 31.4287 31.067 30.5314C31.6045 29.6341 31.8913 28.5791 31.8913 27.5C31.8913 26.0529 31.376 24.665 30.4587 23.6418C29.5414 22.6185 28.2973 22.0436 27 22.0436V22.0436ZM27 30.2282C26.5163 30.2282 26.0435 30.0681 25.6413 29.7684C25.2391 29.4686 24.9257 29.0425 24.7406 28.544C24.5554 28.0455 24.507 27.497 24.6014 26.9677C24.6957 26.4385 24.9287 25.9524 25.2707 25.5709C25.6127 25.1893 26.0485 24.9295 26.5229 24.8242C26.9973 24.719 27.4891 24.773 27.9359 24.9795C28.3828 25.186 28.7648 25.5356 29.0335 25.9843C29.3023 26.4329 29.4457 26.9604 29.4457 27.5C29.4457 28.2235 29.188 28.9175 28.7294 29.4291C28.2707 29.9407 27.6487 30.2282 27 30.2282Z" fill="#2115FC"/>
<path d="M25.6794 2.72815H3.6685C3.34419 2.72815 3.03316 2.87187 2.80384 3.12768C2.57451 3.3835 2.44568 3.73046 2.44568 4.09224V28.6458C2.44568 29.0076 2.57451 29.3545 2.80384 29.6104C3.03316 29.8662 3.34419 30.0099 3.6685 30.0099H11.0055C11.3298 30.0099 11.6408 29.8662 11.8701 29.6104C12.0995 29.3545 12.2283 29.0076 12.2283 28.6458V13.6408H25.6794C26.0037 13.6408 26.3147 13.4971 26.544 13.2413C26.7734 12.9855 26.9022 12.6385 26.9022 12.2768V4.09224C26.9022 3.73046 26.7734 3.3835 26.544 3.12768C26.3147 2.87187 26.0037 2.72815 25.6794 2.72815V2.72815ZM24.4565 10.9127H22.0109V9.54859C22.0109 9.18681 21.8821 8.83985 21.6527 8.58403C21.4234 8.32821 21.1124 8.1845 20.7881 8.1845C20.4638 8.1845 20.1527 8.32821 19.9234 8.58403C19.6941 8.83985 19.5652 9.18681 19.5652 9.54859V10.9127H17.1196V9.54859C17.1196 9.18681 16.9908 8.83985 16.7614 8.58403C16.5321 8.32821 16.2211 8.1845 15.8968 8.1845C15.5725 8.1845 15.2614 8.32821 15.0321 8.58403C14.8028 8.83985 14.6739 9.18681 14.6739 9.54859V10.9127H12.2283V9.54859C12.2283 9.18681 12.0995 8.83985 11.8701 8.58403C11.6408 8.32821 11.3298 8.1845 11.0055 8.1845C10.6811 8.1845 10.3701 8.32821 10.1408 8.58403C9.91147 8.83985 9.78263 9.18681 9.78263 9.54859V10.9127H8.55981C8.2355 10.9127 7.92446 11.0564 7.69514 11.3122C7.46582 11.568 7.33698 11.915 7.33698 12.2768C7.33698 12.6385 7.46582 12.9855 7.69514 13.2413C7.92446 13.4971 8.2355 13.6408 8.55981 13.6408H9.78263V16.369H8.55981C8.2355 16.369 7.92446 16.5127 7.69514 16.7686C7.46582 17.0244 7.33698 17.3713 7.33698 17.7331C7.33698 18.0949 7.46582 18.4418 7.69514 18.6977C7.92446 18.9535 8.2355 19.0972 8.55981 19.0972H9.78263V21.8254H8.55981C8.2355 21.8254 7.92446 21.9691 7.69514 22.2249C7.46582 22.4807 7.33698 22.8277 7.33698 23.1895C7.33698 23.5512 7.46582 23.8982 7.69514 24.154C7.92446 24.4098 8.2355 24.5535 8.55981 24.5535H9.78263V27.2817H4.89133V5.45632H24.4565V10.9127Z" fill="#3F3D56"/>
<path d="M28.3206 52.2718L50.3315 52.2719C50.6558 52.2719 50.9668 52.1281 51.1962 51.8723C51.4255 51.6165 51.5543 51.2695 51.5543 50.9078L51.5543 26.3542C51.5543 25.9924 51.4255 25.6455 51.1962 25.3896C50.9668 25.1338 50.6558 24.9901 50.3315 24.9901L42.9945 24.9901C42.6702 24.9901 42.3592 25.1338 42.1299 25.3896C41.9005 25.6454 41.7717 25.9924 41.7717 26.3542L41.7717 41.3592L28.3206 41.3591C27.9963 41.3591 27.6853 41.5029 27.456 41.7587C27.2266 42.0145 27.0978 42.3615 27.0978 42.7232L27.0978 50.9078C27.0978 51.2695 27.2266 51.6165 27.456 51.8723C27.6853 52.1281 27.9963 52.2718 28.3206 52.2718V52.2718ZM29.5435 44.0873L31.9891 44.0873L31.9891 45.4514C31.9891 45.8132 32.1179 46.1602 32.3473 46.416C32.5766 46.6718 32.8876 46.8155 33.2119 46.8155C33.5362 46.8155 33.8473 46.6718 34.0766 46.416C34.3059 46.1602 34.4348 45.8132 34.4348 45.4514L34.4348 44.0873L36.8804 44.0873L36.8804 45.4514C36.8804 45.8132 37.0092 46.1602 37.2386 46.416C37.4679 46.6718 37.7789 46.8155 38.1032 46.8155C38.4275 46.8155 38.7386 46.6718 38.9679 46.416C39.1972 46.1602 39.3261 45.8132 39.3261 45.4514L39.3261 44.0873L41.7717 44.0873L41.7717 45.4514C41.7717 45.8132 41.9005 46.1602 42.1299 46.416C42.3592 46.6718 42.6702 46.8155 42.9945 46.8155C43.3189 46.8155 43.6299 46.6718 43.8592 46.416C44.0885 46.1602 44.2174 45.8132 44.2174 45.4514L44.2174 44.0873L45.4402 44.0873C45.7645 44.0873 46.0755 43.9436 46.3049 43.6878C46.5342 43.432 46.663 43.085 46.663 42.7232C46.663 42.3615 46.5342 42.0145 46.3049 41.7587C46.0755 41.5029 45.7645 41.3592 45.4402 41.3592L44.2174 41.3592L44.2174 38.631L45.4402 38.631C45.7645 38.631 46.0755 38.4873 46.3049 38.2314C46.5342 37.9756 46.663 37.6287 46.663 37.2669C46.663 36.9051 46.5342 36.5582 46.3049 36.3023C46.0755 36.0465 45.7645 35.9028 45.4402 35.9028L44.2174 35.9028L44.2174 33.1746L45.4402 33.1746C45.7645 33.1746 46.0755 33.0309 46.3049 32.7751C46.5342 32.5193 46.663 32.1723 46.663 31.8105C46.663 31.4488 46.5342 31.1018 46.3049 30.846C46.0755 30.5902 45.7645 30.4465 45.4402 30.4465L44.2174 30.4465L44.2174 27.7183L49.1087 27.7183L49.1087 49.5437L29.5435 49.5437L29.5435 44.0873Z" fill="#3F3D56"/>
</svg>
