<svg width="54" height="54" viewBox="0 0 54 54" fill="none" xmlns="http://www.w3.org/2000/svg">
<path d="M48.8475 45.6525L40.5 37.3725C43.7403 33.3325 45.3094 28.2044 44.8849 23.043C44.4603 17.8815 42.0743 13.0788 38.2175 9.62248C34.3606 6.16617 29.3261 4.31893 24.1491 4.46059C18.9721 4.60225 14.0462 6.72204 10.3841 10.3841C6.72204 14.0462 4.60225 18.9721 4.46059 24.1491C4.31893 29.3261 6.16617 34.3606 9.62248 38.2174C13.0788 42.0743 17.8815 44.4603 23.043 44.8849C28.2045 45.3094 33.3325 43.7403 37.3725 40.5L45.6525 48.78C45.8617 48.9909 46.1106 49.1583 46.3847 49.2725C46.6589 49.3868 46.953 49.4456 47.25 49.4456C47.5471 49.4456 47.8411 49.3868 48.1153 49.2725C48.3895 49.1583 48.6384 48.9909 48.8475 48.78C49.2531 48.3605 49.4798 47.7998 49.4798 47.2163C49.4798 46.6328 49.2531 46.0721 48.8475 45.6525V45.6525ZM24.75 40.5C21.635 40.5 18.5899 39.5763 15.9998 37.8457C13.4097 36.115 11.391 33.6552 10.1989 30.7773C9.00685 27.8994 8.69494 24.7326 9.30266 21.6774C9.91038 18.6222 11.4104 15.8158 13.6131 13.6131C15.8158 11.4104 18.6222 9.91038 21.6774 9.30266C24.7326 8.69494 27.8994 9.00685 30.7773 10.1989C33.6552 11.391 36.115 13.4097 37.8457 15.9998C39.5763 18.5899 40.5 21.635 40.5 24.75C40.5 28.9272 38.8407 32.9333 35.887 35.887C32.9333 38.8407 28.9272 40.5 24.75 40.5V40.5Z" fill="#3F3D56"/>
<path d="M15.5004 21.9197L24.5 27.0208C24.652 27.1069 24.8245 27.1522 25 27.1522C25.1755 27.1522 25.348 27.1069 25.5 27.0208L34.4996 21.9197C34.6508 21.8342 34.7764 21.7112 34.8641 21.5632C34.9518 21.4152 34.9985 21.2473 34.9996 21.0761C35.0003 20.9033 34.9544 20.7333 34.8666 20.5834C34.7788 20.4335 34.6522 20.3091 34.4996 20.2227L25.5 15.1314C25.348 15.0453 25.1755 15 25 15C24.8245 15 24.652 15.0453 24.5 15.1314L15.5004 20.2227C15.3478 20.3091 15.2212 20.4335 15.1334 20.5834C15.0456 20.7333 14.9997 20.9033 15.0004 21.0761C15.0015 21.2473 15.0482 21.4152 15.1359 21.5632C15.2236 21.7112 15.3492 21.8342 15.5004 21.9197ZM25 17.1522L31.9997 21.0761L25 25L18.0003 21.0761L25 17.1522ZM33.4997 24.1858L25 28.9239L16.5003 24.1466C16.3862 24.0817 16.2601 24.0396 16.1294 24.0228C15.9986 24.0059 15.8657 24.0146 15.7384 24.0483C15.611 24.0821 15.4918 24.1402 15.3874 24.2193C15.2831 24.2985 15.1957 24.3971 15.1304 24.5095C15 24.7348 14.9658 25.0014 15.0351 25.2514C15.1044 25.5013 15.2717 25.7142 15.5004 25.8436L24.5 30.9447C24.652 31.0308 24.8245 31.0761 25 31.0761C25.1755 31.0761 25.348 31.0308 25.5 30.9447L34.4996 25.8436C34.7283 25.7142 34.8956 25.5013 34.9649 25.2514C35.0342 25.0014 35 24.7348 34.8696 24.5095C34.8043 24.3971 34.7169 24.2985 34.6126 24.2193C34.5082 24.1402 34.389 24.0821 34.2616 24.0483C34.1343 24.0146 34.0014 24.0059 33.8706 24.0228C33.7399 24.0396 33.6138 24.0817 33.4997 24.1466V24.1858ZM33.4997 28.1097L25 32.8478L16.5003 28.0704C16.3862 28.0056 16.2601 27.9635 16.1294 27.9467C15.9986 27.9298 15.8657 27.9385 15.7384 27.9722C15.611 28.006 15.4918 28.0641 15.3874 28.1432C15.2831 28.2224 15.1957 28.321 15.1304 28.4334C15 28.6586 14.9658 28.9253 15.0351 29.1753C15.1044 29.4252 15.2717 29.6381 15.5004 29.7675L24.5 34.8686C24.652 34.9547 24.8245 35 25 35C25.1755 35 25.348 34.9547 25.5 34.8686L34.4996 29.7675C34.7283 29.6381 34.8956 29.4252 34.9649 29.1753C35.0342 28.9253 35 28.6586 34.8696 28.4334C34.8043 28.321 34.7169 28.2224 34.6126 28.1432C34.5082 28.0641 34.389 28.006 34.2616 27.9722C34.1343 27.9385 34.0014 27.9298 33.8706 27.9467C33.7399 27.9635 33.6138 28.0056 33.4997 28.0704V28.1097Z" fill="#2115FC"/>
</svg>
