<svg width="23" height="28" viewBox="0 0 23 28" fill="none" xmlns="http://www.w3.org/2000/svg">
<path d="M14.8925 13.1716L9.46831 6.57996C9.37922 6.47061 9.27322 6.38382 9.15644 6.32459C9.03966 6.26536 8.9144 6.23486 8.78789 6.23486C8.66138 6.23486 8.53612 6.26536 8.41934 6.32459C8.30255 6.38382 8.19656 6.47061 8.10747 6.57996C7.92898 6.79855 7.8288 7.09424 7.8288 7.40246C7.8288 7.71068 7.92898 8.00637 8.10747 8.22496L12.8512 14.0583L8.10747 19.8333C7.92898 20.0519 7.8288 20.3476 7.8288 20.6558C7.8288 20.964 7.92898 21.2597 8.10747 21.4783C8.19623 21.5885 8.30207 21.6762 8.41887 21.7363C8.53567 21.7964 8.66109 21.8277 8.78789 21.8283C8.91468 21.8277 9.04011 21.7964 9.15691 21.7363C9.27371 21.6762 9.37955 21.5885 9.46831 21.4783L14.8925 14.8866C14.9897 14.7774 15.0674 14.6448 15.1205 14.4972C15.1736 14.3496 15.201 14.1902 15.201 14.0291C15.201 13.868 15.1736 13.7086 15.1205 13.5611C15.0674 13.4135 14.9897 13.2809 14.8925 13.1716V13.1716Z" fill="black"/>
</svg>
