<svg width="30" height="30" viewBox="0 0 30 30" fill="none" xmlns="http://www.w3.org/2000/svg">
<path d="M27.5 7.25002C26.5604 7.65764 25.5668 7.9271 24.55 8.05002C25.6227 7.40917 26.4266 6.401 26.8125 5.21252C25.8044 5.8126 24.701 6.23539 23.55 6.46252C22.7807 5.62823 21.7562 5.07289 20.6373 4.88358C19.5183 4.69428 18.3682 4.88172 17.3672 5.4165C16.3663 5.95129 15.5712 6.80318 15.1066 7.83856C14.6419 8.87394 14.5341 10.0343 14.8 11.1375C12.7618 11.0344 10.7681 10.5037 8.94832 9.57985C7.12859 8.65598 5.52356 7.35963 4.2375 5.77502C3.78642 6.56273 3.5494 7.4548 3.55 8.36252C3.5484 9.2055 3.75527 10.0358 4.15219 10.7795C4.54912 11.5232 5.12377 12.1572 5.825 12.625C5.00997 12.6028 4.21236 12.3841 3.5 11.9875V12.05C3.50611 13.2311 3.91999 14.3739 4.67164 15.285C5.42329 16.1961 6.46657 16.8196 7.625 17.05C7.17907 17.1857 6.71609 17.2573 6.25 17.2625C5.92736 17.2587 5.60553 17.2295 5.2875 17.175C5.61739 18.191 6.25578 19.079 7.11384 19.7152C7.97191 20.3515 9.00697 20.7045 10.075 20.725C8.2715 22.1441 6.04485 22.9186 3.75 22.925C3.33217 22.9264 2.91467 22.9013 2.5 22.85C4.84304 24.3628 7.57352 25.1659 10.3625 25.1625C12.2871 25.1825 14.1964 24.8188 15.9789 24.0926C17.7614 23.3664 19.3813 22.2924 20.744 20.9331C22.1067 19.5739 23.185 17.9568 23.9157 16.1762C24.6464 14.3955 25.015 12.4872 25 10.5625C25 10.35 25 10.125 25 9.90002C25.9809 9.16853 26.8268 8.2718 27.5 7.25002V7.25002Z" fill="white" fill-opacity="0.8"/>
</svg>
