<svg width="28" height="20" viewBox="0 0 28 20" fill="none" xmlns="http://www.w3.org/2000/svg">
<path d="M27.75 7.1376C27.8118 5.34842 27.4205 3.57262 26.6125 1.9751C26.0642 1.3196 25.3034 0.87724 24.4625 0.725102C20.9844 0.409509 17.4919 0.280157 14 0.337602C10.5208 0.27755 7.04086 0.402727 3.57497 0.712602C2.88975 0.837248 2.25562 1.15865 1.74997 1.6376C0.624973 2.6751 0.499973 4.4501 0.374973 5.9501C0.193613 8.64706 0.193613 11.3531 0.374973 14.0501C0.411135 14.8944 0.53684 15.7324 0.749972 16.5501C0.900691 17.1814 1.20563 17.7655 1.63747 18.2501C2.14656 18.7544 2.79545 19.0941 3.49997 19.2251C6.19487 19.5577 8.91024 19.6956 11.625 19.6376C16 19.7001 19.8375 19.6376 24.375 19.2876C25.0968 19.1647 25.764 18.8245 26.2875 18.3126C26.6374 17.9625 26.8988 17.534 27.05 17.0626C27.497 15.6909 27.7166 14.2552 27.7 12.8126C27.75 12.1126 27.75 7.8876 27.75 7.1376ZM11.175 13.5626V5.8251L18.575 9.7126C16.5 10.8626 13.7625 12.1626 11.175 13.5626Z" fill="white" fill-opacity="0.8"/>
</svg>
